{
.appVersion = "3243";
.formatVersion = 3;
DisplayStrings = (
"9",
"±"
);
axes = (
{
name = Weight;
tag = wght;
}
);
customParameters = (
{
name = "Use Typo Metrics";
value = 1;
},
{
name = fsType;
value = (
);
}
);
date = "2024-04-18 15:46:03 +0000";
familyName = Buenard;
fontMaster = (
{
axesValues = (
400
);
customParameters = (
{
name = hheaAscender;
value = 1031;
},
{
name = hheaDescender;
value = -270;
},
{
name = hheaLineGap;
value = 0;
},
{
name = typoLineGap;
value = 0;
},
{
name = typoDescender;
value = -270;
},
{
name = typoAscender;
value = 1031;
},
{
name = winAscent;
value = 851;
},
{
name = winDescent;
value = 260;
},
{
name = "Axis Location";
value = (
{
Axis = Weight;
Location = 400;
}
);
}
);
id = "619f1a1e-fd92-11ee-b280-8aa624eb3053";
metricValues = (
{
pos = 702;
},
{
pos = -244;
}
);
name = Regular;
},
{
axesValues = (
700
);
customParameters = (
{
name = hheaAscender;
value = 1031;
},
{
name = hheaDescender;
value = -270;
},
{
name = hheaLineGap;
value = 0;
},
{
name = typoLineGap;
value = 0;
},
{
name = typoDescender;
value = -270;
},
{
name = typoAscender;
value = 1031;
},
{
name = winAscent;
value = 851;
},
{
name = winDescent;
value = 260;
},
{
name = "Axis Location";
value = (
{
Axis = Weight;
Location = 700;
}
);
}
);
iconName = Bold;
id = "66e3d46a-fd92-11ee-8244-8aa624eb3053";
metricValues = (
{
pos = 750;
},
{
pos = -250;
}
);
name = Bold;
}
);
glyphs = (
{
glyphname = A;
lastChange = "2024-04-18 14:47:37 +0000";
layers = (
{
anchors = (
{
name = top;
pos = (303,0);
}
);
layerId = "619f1a1e-fd92-11ee-b280-8aa624eb3053";
shapes = (
{
closed = 1;
nodes = (
(3,-8,l),
(45,-2,o),
(72,0,o),
(98,0,cs),
(125,0,o),
(171,-2,o),
(212,-8,c),
(218,25,l),
(218,25,o),
(181,31,o),
(159,38,cs),
(142,43,o),
(134,51,o),
(134,65,cs),
(134,69,o),
(134,74,o),
(136,79,c),
(190,237,l),
(423,237,l),
(480,79,ls),
(482,74,o),
(483,69,o),
(483,65,cs),
(483,52,o),
(474,43,o),
(457,38,cs),
(435,31,o),
(400,25,o),
(400,25,c),
(406,-8,l),
(448,-2,o),
(509,0,o),
(536,0,cs),
(562,0,o),
(603,-2,o),
(645,-8,c),
(652,25,l),
(595,37,o),
(589,44,o),
(568,101,cs),
(353,674,l),
(332,662,o),
(302,651,o),
(277,645,c),
(78,101,ls),
(57,44,o),
(53,37,o),
(-4,25,c)
);
},
{
closed = 1;
nodes = (
(299,575,l),
(306,572,l),
(317,530,l),
(405,287,l),
(207,287,l),
(294,537,l)
);
}
);
width = 650;
},
{
anchors = (
{
name = top;
pos = (304,0);
}
);
layerId = "66e3d46a-fd92-11ee-8244-8aa624eb3053";
shapes = (
{
closed = 1;
nodes = (
(-1,-9,l),
(45,-3,o),
(74,0,o),
(102,0,cs),
(130,0,o),
(180,-3,o),
(223,-9,c),
(229,30,l),
(229,30,o),
(194,40,o),
(173,48,cs),
(157,54,o),
(148,61,o),
(148,75,cs),
(148,80,o),
(148,84,o),
(150,89,cs),
(198,228,l),
(400,228,l),
(450,89,ls),
(452,84,o),
(453,79,o),
(453,75,cs),
(453,62,o),
(443,54,o),
(427,48,cs),
(406,40,o),
(373,30,o),
(373,30,c),
(379,-9,l),
(429,-3,o),
(502,0,o),
(533,0,cs),
(561,0,o),
(608,-3,o),
(654,-9,c),
(661,30,l),
(607,43,o),
(603,51,o),
(580,111,cs),
(362,675,l),
(338,663,o),
(304,651,o),
(273,645,c),
(77,111,ls),
(55,50,o),
(53,43,o),
(-9,30,c)
);
},
{
closed = 1;
nodes = (
(291,523,l),
(298,520,l),
(309,478,l),
(376,292,l),
(220,292,l),
(286,485,l)
);
}
);
width = 652;
}
);
unicode = 65;
},
{
glyphname = AE;
lastChange = "2024-04-18 14:46:39 +0000";
layers = (
{
layerId = "619f1a1e-fd92-11ee-b280-8aa624eb3053";
shapes = (
{
closed = 1;
nodes = (
(346,656,l),
(85,101,ls),
(70,69,o),
(63,52,o),
(45,42,c),
(33,34,o),
(16,30,o),
(-12,25,c),
(-5,-8,l),
(33,-2,o),
(56,0,o),
(80,0,cs),
(109,0,o),
(159,-2,o),
(204,-8,c),
(210,25,l),
(210,25,o),
(168,30,o),
(151,38,cs),
(136,45,o),
(147,66,o),
(153,79,cs),
(410,641,l)
);
},
{
closed = 1;
nodes = (
(461,312,l),
(461,360,l),
(216,360,l),
(216,312,l)
);
},
{
closed = 1;
nodes = (
(433,650,o),
(385,651,o),
(346,656,c),
(339,603,l),
(414,603,l),
(414,69,ls),
(414,52,o),
(413,45,o),
(398,38,cs),
(379,30,o),
(339,25,o),
(339,25,c),
(346,-8,l),
(388,-3,o),
(433,0,o),
(459,0,cs),
(788,0,l),
(797,29,o),
(808,135,o),
(809,167,c),
(773,173,l),
(766,145,o),
(737,66,o),
(718,48,c),
(503,48,l),
(503,312,l),
(638,312,ls),
(654,312,o),
(666,310,o),
(671,297,cs),
(678,281,o),
(683,238,o),
(683,238,c),
(721,242,l),
(716,273,o),
(713,315,o),
(713,336,cs),
(713,357,o),
(716,399,o),
(721,430,c),
(683,434,l),
(683,434,o),
(678,390,o),
(671,375,c),
(666,361,o),
(654,360,o),
(638,360,cs),
(503,360,l),
(503,603,l),
(708,603,l),
(721,586,o),
(736,519,o),
(740,495,c),
(777,501,l),
(777,558,o),
(777,607,o),
(777,656,c),
(753,652,o),
(716,650,o),
(695,650,cs),
(459,650,ls)
);
}
);
width = 857;
},
{
layerId = "66e3d46a-fd92-11ee-8244-8aa624eb3053";
shapes = (
{
closed = 1;
nodes = (
(328,657,l),
(72,111,ls),
(57,79,o),
(49,64,o),
(32,52,cs),
(20,43,o),
(4,36,o),
(-22,30,c),
(-15,-8,l),
(21,-2,o),
(44,0,o),
(67,0,cs),
(97,0,o),
(151,-2,o),
(198,-8,c),
(204,30,l),
(204,30,o),
(165,38,o),
(148,48,cs),
(134,56,o),
(143,76,o),
(149,89,cs),
(402,641,l)
);
},
{
closed = 1;
nodes = (
(453,305,l),
(453,368,l),
(208,368,l),
(208,305,l)
);
},
{
closed = 1;
nodes = (
(415,650,o),
(367,652,o),
(328,657,c),
(321,588,l),
(396,588,l),
(396,79,ls),
(396,62,o),
(394,56,o),
(380,48,cs),
(362,38,o),
(324,30,o),
(324,30,c),
(331,-9,l),
(371,-4,o),
(416,0,o),
(441,0,cs),
(790,0,l),
(799,30,o),
(809,137,o),
(810,170,c),
(760,178,l),
(753,152,o),
(724,79,o),
(705,63,c),
(525,63,l),
(525,305,l),
(625,305,ls),
(641,305,o),
(652,303,o),
(658,290,cs),
(667,272,o),
(675,228,o),
(675,228,c),
(718,234,l),
(713,269,o),
(710,311,o),
(710,334,cs),
(710,356,o),
(713,400,o),
(718,433,c),
(675,439,l),
(675,439,o),
(666,398,o),
(658,383,cs),
(651,370,o),
(641,368,o),
(625,368,cs),
(525,368,l),
(525,588,l),
(695,588,l),
(708,573,o),
(723,512,o),
(727,490,c),
(779,499,l),
(779,558,o),
(779,605,o),
(779,656,c),
(754,652,o),
(714,650,o),
(692,650,cs),
(441,650,ls)
);
}
);
width = 854;
}
);
unicode = 198;
},
{
glyphname = B;
lastChange = "2024-04-18 14:46:39 +0000";
layers = (
{
layerId = "619f1a1e-fd92-11ee-b280-8aa624eb3053";
shapes = (
{
closed = 1;
nodes = (
(442,-8,o),
(557,57,o),
(557,190,cs),
(557,311,o),
(463,357,o),
(384,362,c),
(384,369,l),
(436,380,o),
(511,413,o),
(511,510,cs),
(511,628,o),
(397,658,o),
(279,658,cs),
(204,658,o),
(125,646,o),
(57,653,c),
(50,622,l),
(50,622,o),
(90,617,o),
(109,609,cs),
(124,602,o),
(125,595,o),
(125,578,cs),
(125,69,ls),
(125,52,o),
(124,45,o),
(109,38,cs),
(90,30,o),
(50,25,o),
(50,25,c),
(57,-8,l),
(99,-3,o),
(144,0,o),
(170,0,cs),
(210,0,o),
(276,-8,o),
(309,-8,cs)
);
},
{
closed = 1;
nodes = (
(301,324,ls),
(400,324,o),
(456,278,o),
(456,180,cs),
(456,77,o),
(384,32,o),
(306,32,cs),
(271,32,o),
(214,42,o),
(214,81,cs),
(214,324,l)
);
},
{
closed = 1;
nodes = (
(230,616,o),
(256,619,o),
(279,619,cs),
(362,619,o),
(416,582,o),
(416,499,cs),
(416,414,o),
(362,366,o),
(277,366,cs),
(214,366,l),
(214,612,l)
);
}
);
width = 593;
},
{
layerId = "66e3d46a-fd92-11ee-8244-8aa624eb3053";
shapes = (
{
closed = 1;
nodes = (
(461,-8,o),
(582,57,o),
(582,190,cs),
(582,311,o),
(482,357,o),
(399,362,c),
(399,369,l),
(455,380,o),
(536,413,o),
(536,510,cs),
(536,628,o),
(416,658,o),
(289,658,cs),
(210,658,o),
(128,646,o),
(56,653,c),
(48,617,l),
(48,617,o),
(86,609,o),
(104,599,cs),
(118,591,o),
(120,585,o),
(120,568,cs),
(120,79,ls),
(120,62,o),
(118,56,o),
(104,48,cs),
(86,38,o),
(48,30,o),
(48,30,c),
(56,-8,l),
(102,-3,o),
(152,0,o),
(180,0,cs),
(220,0,o),
(286,-8,o),
(319,-8,cs)
);
},
{
closed = 1;
nodes = (
(311,319,ls),
(395,319,o),
(441,275,o),
(441,180,cs),
(441,83,o),
(379,42,o),
(316,42,cs),
(291,42,o),
(249,52,o),
(249,91,cs),
(249,319,l)
);
},
{
closed = 1;
nodes = (
(260,606,o),
(276,609,o),
(289,609,cs),
(357,609,o),
(401,576,o),
(401,499,cs),
(401,420,o),
(357,376,o),
(287,376,cs),
(249,376,l),
(249,602,l)
);
}
);
width = 617;
}
);
unicode = 66;
},
{
glyphname = C;
lastChange = "2024-04-18 14:46:39 +0000";
layers = (
{
anchors = (
{
name = bottom;
pos = (385,0);
}
);
layerId = "619f1a1e-fd92-11ee-b280-8aa624eb3053";
shapes = (
{
closed = 1;
nodes = (
(460,-16,o),
(547,1,o),
(594,17,c),
(605,67,o),
(614,129,o),
(615,181,c),
(581,186,l),
(550,79,o),
(503,30,o),
(395,30,cs),
(242,30,o),
(148,176,o),
(148,329,cs),
(148,503,o),
(231,620,o),
(380,620,cs),
(434,620,o),
(492,612,o),
(525,594,c),
(543,567,o),
(552,513,o),
(559,457,c),
(593,463,l),
(606,512,o),
(615,582,o),
(620,634,c),
(547,649,o),
(482,666,o),
(393,666,cs),
(180,666,o),
(47,512,o),
(47,299,cs),
(47,104,o),
(190,-16,o),
(385,-16,cs)
);
}
);
width = 660;
},
{
anchors = (
{
name = bottom;
pos = (403,0);
}
);
layerId = "66e3d46a-fd92-11ee-8244-8aa624eb3053";
shapes = (
{
closed = 1;
nodes = (
(480,-16,o),
(569,1,o),
(617,17,c),
(627,71,o),
(637,135,o),
(638,191,c),
(584,196,l),
(556,89,o),
(512,40,o),
(413,40,cs),
(275,40,o),
(191,182,o),
(191,329,cs),
(191,497,o),
(264,610,o),
(398,610,cs),
(446,610,o),
(498,603,o),
(528,584,c),
(546,558,o),
(555,502,o),
(562,448,c),
(616,458,l),
(629,508,o),
(638,580,o),
(643,634,c),
(568,649,o),
(502,666,o),
(411,666,cs),
(183,666,o),
(40,512,o),
(40,299,cs),
(40,104,o),
(193,-16,o),
(403,-16,cs)
);
}
);
width = 680;
}
);
unicode = 67;
},
{
glyphname = D;
lastChange = "2024-04-18 14:46:39 +0000";
layers = (
{
layerId = "619f1a1e-fd92-11ee-b280-8aa624eb3053";
shapes = (
{
closed = 1;
nodes = (
(274,36,o),
(214,46,o),
(214,88,cs),
(214,606,l),
(230,610,o),
(263,615,o),
(310,615,cs),
(508,615,o),
(602,523,o),
(602,325,cs),
(602,156,o),
(517,36,o),
(348,36,cs)
);
},
{
closed = 1;
nodes = (
(576,-8,o),
(703,136,o),
(703,355,cs),
(703,576,o),
(550,660,o),
(329,660,cs),
(219,660,o),
(132,647,o),
(57,653,c),
(50,622,l),
(50,622,o),
(90,616,o),
(109,607,cs),
(124,599,o),
(125,595,o),
(125,579,cs),
(125,69,ls),
(125,52,o),
(124,45,o),
(109,38,cs),
(90,30,o),
(50,25,o),
(50,25,c),
(57,-8,l),
(102,-3,o),
(144,0,o),
(170,0,cs),
(210,0,o),
(276,-8,o),
(357,-8,cs)
);
}
);
width = 750;
},
{
layerId = "66e3d46a-fd92-11ee-8244-8aa624eb3053";
shapes = (
{
closed = 1;
nodes = (
(299,46,o),
(249,56,o),
(249,98,cs),
(249,596,l),
(260,600,o),
(284,605,o),
(320,605,cs),
(503,605,o),
(587,517,o),
(587,325,cs),
(587,162,o),
(512,46,o),
(358,46,cs)
);
},
{
closed = 1;
nodes = (
(595,-8,o),
(728,136,o),
(728,355,cs),
(728,576,o),
(569,660,o),
(339,660,cs),
(225,660,o),
(133,648,o),
(56,654,c),
(48,617,l),
(48,617,o),
(87,609,o),
(104,597,c),
(119,588,o),
(120,585,o),
(120,569,cs),
(120,79,ls),
(120,62,o),
(118,56,o),
(104,48,cs),
(86,38,o),
(49,30,o),
(49,30,c),
(57,-9,l),
(106,-4,o),
(152,0,o),
(180,0,cs),
(220,0,o),
(286,-8,o),
(367,-8,cs)
);
}
);
width = 768;
}
);
unicode = 68;
},
{
glyphname = Eth;
lastChange = "2024-04-18 14:46:39 +0000";
layers = (
{
layerId = "619f1a1e-fd92-11ee-b280-8aa624eb3053";
shapes = (
{
closed = 1;
nodes = (
(274,36,o),
(214,46,o),
(214,88,cs),
(214,606,l),
(230,610,o),
(263,615,o),
(310,615,cs),
(508,615,o),
(602,523,o),
(602,325,cs),
(602,156,o),
(517,36,o),
(348,36,cs)
);
},
{
closed = 1;
nodes = (
(576,-8,o),
(703,136,o),
(703,355,cs),
(703,576,o),
(550,660,o),
(329,660,cs),
(219,660,o),
(132,647,o),
(57,653,c),
(50,622,l),
(50,622,o),
(90,616,o),
(109,607,cs),
(124,599,o),
(125,595,o),
(125,579,cs),
(125,69,ls),
(125,52,o),
(124,45,o),
(109,38,cs),
(90,30,o),
(50,25,o),
(50,25,c),
(57,-8,l),
(102,-3,o),
(144,0,o),
(170,0,cs),
(210,0,o),
(276,-8,o),
(357,-8,cs)
);
},
{
closed = 1;
nodes = (
(46,315,l),
(386,315,l),
(395,361,l),
(55,361,l)
);
}
);
width = 750;
},
{
layerId = "66e3d46a-fd92-11ee-8244-8aa624eb3053";
shapes = (
{
closed = 1;
nodes = (
(304,46,o),
(254,56,o),
(254,98,cs),
(254,596,l),
(265,600,o),
(289,605,o),
(325,605,cs),
(508,605,o),
(592,517,o),
(592,325,cs),
(592,162,o),
(517,46,o),
(363,46,cs)
);
},
{
closed = 1;
nodes = (
(600,-8,o),
(733,136,o),
(733,355,cs),
(733,576,o),
(574,660,o),
(344,660,cs),
(230,660,o),
(138,648,o),
(61,654,c),
(53,617,l),
(53,617,o),
(92,609,o),
(109,597,c),
(124,588,o),
(125,585,o),
(125,569,cs),
(125,79,ls),
(125,62,o),
(123,56,o),
(109,48,cs),
(91,38,o),
(54,30,o),
(54,30,c),
(62,-9,l),
(111,-4,o),
(157,0,o),
(185,0,cs),
(225,0,o),
(291,-8,o),
(372,-8,cs)
);
},
{
closed = 1;
nodes = (
(46,313,l),
(397,313,l),
(407,365,l),
(56,365,l)
);
}
);
width = 773;
}
);
unicode = 208;
},
{
glyphname = E;
lastChange = "2024-04-18 14:46:39 +0000";
layers = (
{
anchors = (
{
name = top;
pos = (294,0);
}
);
layerId = "619f1a1e-fd92-11ee-b280-8aa624eb3053";
shapes = (
{
closed = 1;
nodes = (
(364,312,ls),
(380,312,o),
(392,310,o),
(397,297,cs),
(404,281,o),
(409,238,o),
(409,238,c),
(447,242,l),
(442,273,o),
(439,315,o),
(439,336,cs),
(439,357,o),
(442,399,o),
(447,430,c),
(409,434,l),
(409,434,o),
(404,390,o),
(397,375,c),
(392,361,o),
(380,360,o),
(364,360,cs),
(214,360,l),
(214,603,l),
(434,603,l),
(447,586,o),
(462,519,o),
(466,495,c),
(503,501,l),
(507,558,o),
(507,607,o),
(503,656,c),
(478,652,o),
(442,650,o),
(421,650,cs),
(170,650,ls),
(144,650,o),
(99,654,o),
(57,659,c),
(50,626,l),
(50,626,o),
(90,621,o),
(109,613,cs),
(124,607,o),
(125,599,o),
(125,583,cs),
(125,69,ls),
(125,52,o),
(124,45,o),
(109,38,cs),
(90,30,o),
(50,25,o),
(50,25,c),
(57,-8,l),
(99,-3,o),
(144,0,o),
(170,0,cs),
(514,0,l),
(523,29,o),
(534,135,o),
(535,167,c),
(499,173,l),
(492,145,o),
(463,66,o),
(444,48,c),
(214,48,l),
(214,312,l)
);
}
);
width = 583;
},
{
anchors = (
{
name = top;
pos = (304,0);
}
);
layerId = "66e3d46a-fd92-11ee-8244-8aa624eb3053";
shapes = (
{
closed = 1;
nodes = (
(364,307,ls),
(380,307,o),
(391,304,o),
(397,292,cs),
(405,276,o),
(414,237,o),
(414,237,c),
(457,241,l),
(452,272,o),
(449,315,o),
(449,336,cs),
(449,358,o),
(452,402,o),
(457,435,c),
(414,440,l),
(414,440,o),
(405,399,o),
(397,384,cs),
(390,371,o),
(380,369,o),
(364,369,cs),
(249,369,l),
(249,589,l),
(439,589,l),
(452,574,o),
(467,513,o),
(471,491,c),
(517,499,l),
(522,558,o),
(518,605,o),
(518,656,c),
(489,652,o),
(449,650,o),
(426,650,cs),
(180,650,ls),
(151,650,o),
(102,655,o),
(54,660,c),
(45,621,l),
(45,621,o),
(84,613,o),
(104,603,cs),
(119,596,o),
(120,589,o),
(120,573,cs),
(120,79,ls),
(120,62,o),
(119,56,o),
(104,48,cs),
(85,38,o),
(45,30,o),
(45,30,c),
(53,-9,l),
(101,-4,o),
(151,0,o),
(180,0,cs),
(529,0,l),
(538,30,o),
(549,138,o),
(550,171,c),
(504,179,l),
(497,153,o),
(468,78,o),
(449,62,c),
(249,62,l),
(249,307,l)
);
}
);
width = 594;
}
);
unicode = 69;
},
{
glyphname = F;
lastChange = "2024-04-18 14:46:39 +0000";
layers = (
{
layerId = "619f1a1e-fd92-11ee-b280-8aa624eb3053";
shapes = (
{
closed = 1;
nodes = (
(361,308,o),
(373,306,o),
(378,293,cs),
(385,277,o),
(390,234,o),
(390,234,c),
(428,238,l),
(423,269,o),
(420,311,o),
(420,332,cs),
(420,353,o),
(423,395,o),
(428,426,c),
(390,430,l),
(390,430,o),
(385,386,o),
(378,371,c),
(373,357,o),
(361,356,o),
(345,356,cs),
(214,356,l),
(214,603,l),
(423,603,l),
(437,586,o),
(452,517,o),
(457,493,c),
(494,499,l),
(496,540,o),
(497,623,o),
(493,656,c),
(468,652,o),
(432,650,o),
(411,650,cs),
(170,650,ls),
(144,650,o),
(99,654,o),
(57,659,c),
(50,626,l),
(73,623,o),
(94,618,o),
(109,613,cs),
(124,608,o),
(125,600,o),
(125,583,cs),
(125,69,ls),
(125,52,o),
(124,45,o),
(109,38,cs),
(90,30,o),
(50,25,o),
(50,25,c),
(57,-8,l),
(103,-3,o),
(152,0,o),
(180,0,cs),
(210,0,o),
(268,-3,o),
(312,-8,c),
(319,28,l),
(319,28,o),
(255,36,o),
(236,42,cs),
(216,48,o),
(214,59,o),
(214,77,cs),
(214,308,l),
(345,308,ls)
);
}
);
width = 512;
},
{
layerId = "66e3d46a-fd92-11ee-8244-8aa624eb3053";
shapes = (
{
closed = 1;
nodes = (
(371,302,o),
(383,300,o),
(388,287,cs),
(394,272,o),
(400,230,o),
(400,230,c),
(438,235,l),
(433,266,o),
(430,310,o),
(430,331,cs),
(430,353,o),
(433,398,o),
(438,431,c),
(400,436,l),
(400,436,o),
(394,393,o),
(388,379,cs),
(382,365,o),
(371,364,o),
(355,364,cs),
(249,364,l),
(249,588,l),
(428,588,l),
(442,573,o),
(457,510,o),
(462,488,c),
(508,496,l),
(510,538,o),
(512,622,o),
(508,656,c),
(481,652,o),
(443,650,o),
(421,650,cs),
(180,650,ls),
(152,650,o),
(98,655,o),
(57,660,c),
(48,621,l),
(67,617,o),
(90,610,o),
(104,604,cs),
(119,598,o),
(120,590,o),
(120,573,cs),
(120,79,ls),
(120,62,o),
(118,56,o),
(104,48,cs),
(86,38,o),
(48,30,o),
(48,30,c),
(55,-9,l),
(95,-4,o),
(160,0,o),
(190,0,cs),
(224,0,o),
(302,-4,o),
(344,-9,c),
(351,33,l),
(351,33,o),
(289,45,o),
(271,52,cs),
(251,59,o),
(249,69,o),
(249,87,cs),
(249,302,l),
(355,302,ls)
);
}
);
width = 523;
}
);
unicode = 70;
},
{
glyphname = G;
lastChange = "2024-04-18 14:46:39 +0000";
layers = (
{
layerId = "619f1a1e-fd92-11ee-b280-8aa624eb3053";
shapes = (
{
closed = 1;
nodes = (
(486,40,o),
(442,30,o),
(395,30,cs),
(242,30,o),
(148,176,o),
(148,329,cs),
(148,503,o),
(231,620,o),
(380,620,cs),
(434,620,o),
(493,612,o),
(526,594,c),
(544,567,o),
(552,523,o),
(559,467,c),
(593,473,l),
(606,522,o),
(614,582,o),
(619,634,c),
(546,649,o),
(482,666,o),
(393,666,cs),
(180,666,o),
(47,512,o),
(47,299,cs),
(47,104,o),
(190,-16,o),
(385,-16,cs),
(470,-16,o),
(553,0,o),
(603,19,c),
(603,210,ls),
(603,227,o),
(604,234,o),
(619,241,cs),
(634,248,o),
(664,254,o),
(664,254,c),
(658,287,l),
(630,281,o),
(584,279,o),
(548,279,cs),
(518,279,o),
(467,282,o),
(423,287,c),
(416,251,l),
(416,251,o),
(473,243,o),
(492,237,cs),
(512,231,o),
(514,220,o),
(514,202,cs),
(514,56,l)
);
}
);
width = 690;
},
{
layerId = "66e3d46a-fd92-11ee-8244-8aa624eb3053";
shapes = (
{
closed = 1;
nodes = (
(474,50,o),
(440,40,o),
(403,40,cs),
(265,40,o),
(181,182,o),
(181,329,cs),
(181,497,o),
(254,610,o),
(388,610,cs),
(436,610,o),
(489,603,o),
(519,584,c),
(537,557,o),
(545,516,o),
(552,460,c),
(606,468,l),
(618,519,o),
(627,580,o),
(632,634,c),
(557,649,o),
(492,666,o),
(401,666,cs),
(179,666,o),
(40,512,o),
(40,299,cs),
(40,104,o),
(189,-16,o),
(393,-16,cs),
(484,-16,o),
(573,0,o),
(626,19,c),
(626,200,ls),
(626,217,o),
(628,222,o),
(642,231,cs),
(656,240,o),
(684,249,o),
(684,249,c),
(677,288,l),
(647,282,o),
(596,279,o),
(556,279,cs),
(522,279,o),
(463,283,o),
(411,288,c),
(402,246,l),
(402,246,o),
(457,234,o),
(475,227,cs),
(495,220,o),
(497,209,o),
(497,192,cs),
(497,66,l)
);
}
);
width = 707;
}
);
unicode = 71;
},
{
glyphname = H;
lastChange = "2024-04-18 14:46:39 +0000";
layers = (
{
layerId = "619f1a1e-fd92-11ee-b280-8aa624eb3053";
shapes = (
{
closed = 1;
nodes = (
(214,364,l),
(214,582,ls),
(214,598,o),
(215,604,o),
(230,611,cs),
(249,619,o),
(298,625,o),
(298,625,c),
(291,658,l),
(245,653,o),
(199,650,o),
(171,650,cs),
(143,650,o),
(103,653,o),
(57,658,c),
(50,625,l),
(50,625,o),
(90,620,o),
(109,612,cs),
(124,605,o),
(125,599,o),
(125,582,cs),
(125,68,ls),
(125,51,o),
(124,45,o),
(109,38,cs),
(90,30,o),
(50,25,o),
(50,25,c),
(57,-8,l),
(103,-3,o),
(143,0,o),
(171,0,cs),
(199,0,o),
(245,-3,o),
(291,-8,c),
(298,25,l),
(298,25,o),
(249,31,o),
(230,39,cs),
(215,46,o),
(214,52,o),
(214,70,cs),
(214,311,l),
(581,311,l),
(581,70,ls),
(581,52,o),
(580,46,o),
(565,39,cs),
(546,31,o),
(497,25,o),
(497,25,c),
(504,-8,l),
(550,-3,o),
(596,0,o),
(624,0,cs),
(652,0,o),
(692,-3,o),
(738,-8,c),
(745,25,l),
(745,25,o),
(705,30,o),
(686,38,cs),
(671,45,o),
(670,51,o),
(670,68,cs),
(670,582,ls),
(670,599,o),
(671,605,o),
(686,612,cs),
(705,620,o),
(745,625,o),
(745,625,c),
(738,658,l),
(692,653,o),
(652,650,o),
(624,650,cs),
(596,650,o),
(550,653,o),
(504,658,c),
(497,625,l),
(497,625,o),
(546,619,o),
(565,611,cs),
(580,604,o),
(581,598,o),
(581,580,cs),
(581,364,l)
);
}
);
width = 795;
},
{
layerId = "66e3d46a-fd92-11ee-8244-8aa624eb3053";
shapes = (
{
closed = 1;
nodes = (
(249,373,l),
(249,572,ls),
(249,588,o),
(250,594,o),
(265,601,cs),
(283,609,o),
(330,615,o),
(330,615,c),
(321,659,l),
(272,653,o),
(213,650,o),
(181,650,cs),
(151,650,o),
(101,653,o),
(57,659,c),
(48,620,l),
(48,620,o),
(86,612,o),
(104,602,cs),
(118,594,o),
(120,589,o),
(120,572,cs),
(120,78,ls),
(120,61,o),
(118,56,o),
(104,48,cs),
(86,38,o),
(48,30,o),
(48,30,c),
(56,-9,l),
(101,-3,o),
(151,0,o),
(181,0,cs),
(213,0,o),
(272,-3,o),
(322,-9,c),
(330,35,l),
(330,35,o),
(283,41,o),
(265,49,cs),
(250,56,o),
(249,62,o),
(249,80,cs),
(249,305,l),
(566,305,l),
(566,80,ls),
(566,62,o),
(565,56,o),
(550,49,cs),
(532,41,o),
(485,35,o),
(485,35,c),
(493,-9,l),
(543,-3,o),
(602,0,o),
(634,0,cs),
(664,0,o),
(714,-3,o),
(759,-9,c),
(767,30,l),
(767,30,o),
(729,38,o),
(711,48,cs),
(697,56,o),
(695,61,o),
(695,78,cs),
(695,572,ls),
(695,589,o),
(697,594,o),
(711,602,cs),
(729,612,o),
(767,620,o),
(767,620,c),
(759,659,l),
(714,653,o),
(664,650,o),
(634,650,cs),
(602,650,o),
(543,653,o),
(494,659,c),
(485,615,l),
(485,615,o),
(532,609,o),
(550,601,cs),
(565,594,o),
(566,588,o),
(566,570,cs),
(566,373,l)
);
}
);
width = 815;
}
);
unicode = 72;
},
{
glyphname = I;
lastChange = "2024-04-18 14:46:39 +0000";
layers = (
{
anchors = (
{
name = top;
pos = (171,0);
}
);
layerId = "619f1a1e-fd92-11ee-b280-8aa624eb3053";
shapes = (
{
closed = 1;
nodes = (
(214,599,o),
(215,605,o),
(230,612,cs),
(249,620,o),
(291,625,o),
(291,625,c),
(284,658,l),
(242,653,o),
(197,650,o),
(170,650,cs),
(144,650,o),
(99,653,o),
(57,658,c),
(50,625,l),
(50,625,o),
(90,620,o),
(109,612,cs),
(124,605,o),
(125,599,o),
(125,582,cs),
(125,68,ls),
(125,51,o),
(124,45,o),
(109,38,cs),
(90,30,o),
(50,25,o),
(50,25,c),
(57,-8,l),
(99,-3,o),
(144,0,o),
(170,0,cs),
(197,0,o),
(242,-3,o),
(284,-8,c),
(291,25,l),
(291,25,o),
(249,30,o),
(230,38,cs),
(215,45,o),
(214,51,o),
(214,68,cs),
(214,582,ls)
);
}
);
width = 339;
},
{
anchors = (
{
name = top;
pos = (186,0);
}
);
layerId = "66e3d46a-fd92-11ee-8244-8aa624eb3053";
shapes = (
{
closed = 1;
nodes = (
(249,589,o),
(250,594,o),
(265,602,cs),
(282,612,o),
(323,620,o),
(323,620,c),
(316,659,l),
(270,653,o),
(215,650,o),
(185,650,cs),
(156,650,o),
(101,653,o),
(55,659,c),
(48,620,l),
(48,620,o),
(87,612,o),
(104,602,cs),
(119,594,o),
(120,589,o),
(120,572,cs),
(120,78,ls),
(120,61,o),
(119,56,o),
(104,48,cs),
(87,38,o),
(48,30,o),
(48,30,c),
(55,-9,l),
(101,-3,o),
(156,0,o),
(185,0,cs),
(215,0,o),
(270,-3,o),
(316,-9,c),
(323,30,l),
(323,30,o),
(282,38,o),
(265,48,cs),
(250,56,o),
(249,61,o),
(249,78,cs),
(249,572,ls)
);
}
);
width = 369;
}
);
unicode = 73;
},
{
glyphname = J;
lastChange = "2024-04-18 14:49:08 +0000";
layers = (
{
layerId = "619f1a1e-fd92-11ee-b280-8aa624eb3053";
shapes = (
{
closed = 1;
nodes = (
(196,599,o),
(197,605,o),
(212,612,cs),
(231,620,o),
(273,625,o),
(273,625,c),
(266,658,l),
(224,653,o),
(179,650,o),
(152,650,cs),
(126,650,o),
(81,653,o),
(39,658,c),
(32,625,l),
(32,625,o),
(72,620,o),
(91,612,cs),
(106,605,o),
(107,599,o),
(107,582,cs),
(107,0,ls),
(107,-81,o),
(68,-156,o),
(0,-235,c),
(24,-260,l),
(96,-189,ls),
(191,-96,o),
(196,-42,o),
(196,50,cs),
(196,582,ls)
);
}
);
width = 303;
},
{
layerId = "66e3d46a-fd92-11ee-8244-8aa624eb3053";
shapes = (
{
closed = 1;
nodes = (
(211,589,o),
(212,594,o),
(227,602,cs),
(244,612,o),
(285,620,o),
(285,620,c),
(278,659,l),
(232,653,o),
(177,650,o),
(147,650,cs),
(118,650,o),
(63,653,o),
(17,659,c),
(10,620,l),
(10,620,o),
(49,612,o),
(66,602,cs),
(81,594,o),
(82,589,o),
(82,572,cs),
(82,0,ls),
(82,-79,o),
(41,-153,o),
(-30,-230,c),
(0,-260,l),
(96,-189,ls),
(210,-104,o),
(211,-42,o),
(211,50,cs),
(211,572,ls)
);
}
);
width = 303;
}
);
unicode = 74;
},
{
glyphname = K;
lastChange = "2024-04-18 14:46:39 +0000";
layers = (
{
layerId = "619f1a1e-fd92-11ee-b280-8aa624eb3053";
shapes = (
{
closed = 1;
nodes = (
(453,80,ls),
(464,68,o),
(471,58,o),
(471,50,cs),
(471,34,o),
(441,31,o),
(413,25,c),
(420,-8,l),
(458,-2,o),
(508,0,o),
(549,0,cs),
(592,0,o),
(625,-2,o),
(665,-8,c),
(672,25,l),
(632,35,o),
(607,42,o),
(558,96,cs),
(312,363,l),
(514,576,ls),
(543,607,o),
(563,618,o),
(609,625,c),
(602,658,l),
(568,652,o),
(544,650,o),
(515,650,cs),
(486,650,o),
(450,652,o),
(415,658,c),
(408,625,l),
(434,621,o),
(464,615,o),
(464,602,cs),
(464,595,o),
(462,590,o),
(449,576,cs),
(228,345,l),
(228,327,l)
);
},
{
closed = 1;
nodes = (
(214,599,o),
(215,605,o),
(230,612,cs),
(249,620,o),
(284,625,o),
(284,625,c),
(277,658,l),
(235,653,o),
(197,650,o),
(170,650,cs),
(144,650,o),
(99,653,o),
(57,658,c),
(50,625,l),
(50,625,o),
(90,620,o),
(109,612,cs),
(124,605,o),
(125,599,o),
(125,582,cs),
(125,68,ls),
(125,51,o),
(124,45,o),
(109,38,cs),
(90,30,o),
(50,25,o),
(50,25,c),
(57,-8,l),
(103,-3,o),
(152,0,o),
(180,0,cs),
(210,0,o),
(256,-3,o),
(300,-8,c),
(307,27,l),
(307,27,o),
(255,34,o),
(236,40,cs),
(216,46,o),
(214,57,o),
(214,75,cs),
(214,582,ls)
);
}
);
width = 668;
},
{
layerId = "66e3d46a-fd92-11ee-8244-8aa624eb3053";
shapes = (
{
closed = 1;
nodes = (
(471,80,ls),
(482,68,o),
(489,58,o),
(489,50,cs),
(489,34,o),
(459,31,o),
(431,25,c),
(440,-8,l),
(481,-2,o),
(537,0,o),
(584,0,cs),
(637,0,o),
(675,-2,o),
(725,-8,c),
(732,25,l),
(692,35,o),
(667,42,o),
(618,96,cs),
(367,371,l),
(561,576,ls),
(589,607,o),
(610,618,o),
(656,625,c),
(649,658,l),
(611,652,o),
(583,650,o),
(550,650,cs),
(520,650,o),
(482,652,o),
(445,658,c),
(438,625,l),
(464,621,o),
(494,615,o),
(494,602,cs),
(494,595,o),
(492,590,o),
(479,576,cs),
(263,350,l),
(263,317,l)
);
},
{
closed = 1;
nodes = (
(249,589,o),
(250,594,o),
(265,602,cs),
(282,612,o),
(323,620,o),
(323,620,c),
(316,659,l),
(270,653,o),
(215,650,o),
(185,650,cs),
(156,650,o),
(101,653,o),
(55,659,c),
(48,620,l),
(48,620,o),
(87,612,o),
(104,602,cs),
(119,594,o),
(120,589,o),
(120,572,cs),
(120,78,ls),
(120,61,o),
(119,56,o),
(104,48,cs),
(87,38,o),
(48,30,o),
(48,30,c),
(55,-9,l),
(101,-3,o),
(156,0,o),
(185,0,cs),
(217,0,o),
(276,-3,o),
(326,-9,c),
(333,30,l),
(333,30,o),
(284,38,o),
(265,48,cs),
(250,56,o),
(249,61,o),
(249,78,cs),
(249,572,ls)
);
}
);
width = 717;
}
);
unicode = 75;
},
{
glyphname = L;
lastChange = "2024-04-18 14:46:39 +0000";
layers = (
{
layerId = "619f1a1e-fd92-11ee-b280-8aa624eb3053";
shapes = (
{
closed = 1;
nodes = (
(214,591,o),
(216,602,o),
(236,608,cs),
(255,614,o),
(319,622,o),
(319,622,c),
(312,658,l),
(268,653,o),
(210,650,o),
(180,650,cs),
(152,650,o),
(103,653,o),
(57,658,c),
(50,625,l),
(50,625,o),
(90,620,o),
(109,612,cs),
(124,605,o),
(125,598,o),
(125,581,cs),
(125,69,ls),
(125,52,o),
(124,44,o),
(109,37,cs),
(90,29,o),
(50,24,o),
(50,24,c),
(57,-8,l),
(108,-3,o),
(141,0,o),
(167,0,cs),
(496,0,l),
(504,28,o),
(519,135,o),
(520,166,c),
(486,173,l),
(478,145,o),
(443,66,o),
(425,48,c),
(214,48,l),
(214,573,ls)
);
}
);
width = 528;
},
{
layerId = "66e3d46a-fd92-11ee-8244-8aa624eb3053";
shapes = (
{
closed = 1;
nodes = (
(249,581,o),
(252,591,o),
(271,598,cs),
(289,605,o),
(351,617,o),
(351,617,c),
(343,659,l),
(295,653,o),
(224,650,o),
(190,650,cs),
(160,650,o),
(103,653,o),
(57,659,c),
(48,620,l),
(48,620,o),
(86,612,o),
(104,602,cs),
(118,594,o),
(120,588,o),
(120,571,cs),
(120,79,ls),
(120,62,o),
(118,55,o),
(104,47,cs),
(86,37,o),
(48,29,o),
(48,29,c),
(56,-9,l),
(111,-4,o),
(149,0,o),
(177,0,cs),
(511,0,l),
(519,29,o),
(533,137,o),
(534,169,c),
(486,178,l),
(478,152,o),
(444,79,o),
(425,63,c),
(249,63,l),
(249,563,ls)
);
}
);
width = 540;
}
);
unicode = 76;
},
{
glyphname = M;
lastChange = "2024-04-18 14:46:39 +0000";
layers = (
{
layerId = "619f1a1e-fd92-11ee-b280-8aa624eb3053";
shapes = (
{
closed = 1;
nodes = (
(477,142,o),
(474,109,o),
(474,109,c),
(467,111,l),
(467,111,o),
(462,138,o),
(454,158,cs),
(288,591,ls),
(276,623,o),
(268,659,o),
(268,659,c),
(245,654,o),
(191,650,o),
(170,650,cs),
(150,650,o),
(112,651,o),
(70,659,c),
(63,626,l),
(63,626,o),
(103,621,o),
(121,613,cs),
(136,607,o),
(138,598,o),
(137,582,cs),
(100,69,ls),
(99,52,o),
(97,45,o),
(83,38,c),
(64,30,o),
(29,25,o),
(29,25,c),
(36,-8,l),
(78,-3,o),
(106,0,o),
(132,0,cs),
(159,0,o),
(202,-3,o),
(244,-8,c),
(251,27,l),
(251,27,o),
(198,34,o),
(180,42,cs),
(165,49,o),
(162,55,o),
(163,72,cs),
(198,563,l),
(205,568,l),
(205,568,o),
(215,525,o),
(224,502,cs),
(373,129,ls),
(394,77,o),
(422,-17,o),
(422,-17,c),
(482,0,l),
(482,0,o),
(507,84,o),
(530,142,cs),
(674,503,ls),
(684,527,o),
(695,577,o),
(695,577,c),
(701,572,l),
(730,72,ls),
(731,55,o),
(728,48,o),
(713,42,c),
(694,33,o),
(642,27,o),
(642,27,c),
(649,-8,l),
(690,-3,o),
(744,0,o),
(771,0,cs),
(797,0,o),
(844,-3,o),
(886,-8,c),
(893,25,l),
(893,25,o),
(857,30,o),
(838,38,cs),
(823,45,o),
(821,55,o),
(820,72,cs),
(790,579,l),
(790,595,o),
(791,607,o),
(806,613,cs),
(825,621,o),
(864,626,o),
(864,626,c),
(857,659,l),
(815,651,o),
(772,650,o),
(752,650,cs),
(731,650,o),
(692,654,o),
(669,659,c),
(669,659,o),
(658,617,o),
(646,585,cs),
(483,157,ls)
);
}
);
width = 926;
},
{
layerId = "66e3d46a-fd92-11ee-8244-8aa624eb3053";
shapes = (
{
closed = 1;
nodes = (
(486,186,o),
(484,153,o),
(484,153,c),
(477,155,l),
(477,155,o),
(472,182,o),
(464,202,cs),
(320,591,ls),
(308,623,o),
(300,660,o),
(300,660,c),
(272,655,o),
(201,650,o),
(175,650,cs),
(154,650,o),
(112,652,o),
(68,660,c),
(61,621,l),
(61,621,o),
(103,612,o),
(121,603,cs),
(135,596,o),
(138,587,o),
(137,572,cs),
(100,79,ls),
(99,62,o),
(97,55,o),
(83,48,cs),
(64,38,o),
(27,30,o),
(27,30,c),
(35,-9,l),
(70,-4,o),
(110,0,o),
(137,0,cs),
(166,0,o),
(224,-4,o),
(260,-9,c),
(268,32,l),
(268,32,o),
(218,42,o),
(200,52,cs),
(185,60,o),
(182,65,o),
(183,82,cs),
(212,498,l),
(219,503,l),
(219,503,o),
(229,460,o),
(238,437,cs),
(358,129,ls),
(379,77,o),
(407,-18,o),
(407,-18,c),
(502,6,l),
(502,6,o),
(523,86,o),
(545,142,cs),
(664,442,ls),
(674,466,o),
(685,516,o),
(685,516,c),
(691,511,l),
(715,82,ls),
(716,65,o),
(713,60,o),
(698,52,cs),
(679,42,o),
(630,32,o),
(630,32,c),
(637,-9,l),
(681,-4,o),
(746,0,o),
(776,0,cs),
(804,0,o),
(861,-3,o),
(903,-9,c),
(910,30,l),
(910,30,o),
(876,38,o),
(858,48,cs),
(844,56,o),
(841,64,o),
(840,82,cs),
(810,569,ls),
(809,585,o),
(812,596,o),
(826,603,cs),
(844,612,o),
(881,621,o),
(881,621,c),
(874,660,l),
(828,652,o),
(779,650,o),
(757,650,cs),
(733,650,o),
(683,655,o),
(657,660,c),
(657,660,o),
(648,617,o),
(636,585,cs),
(493,201,l)
);
}
);
width = 944;
}
);
unicode = 77;
},
{
glyphname = N;
lastChange = "2024-04-18 14:46:39 +0000";
layers = (
{
anchors = (
{
name = top;
pos = (392,0);
}
);
layerId = "619f1a1e-fd92-11ee-b280-8aa624eb3053";
shapes = (
{
closed = 1;
nodes = (
(196,572,l),
(196,572,o),
(215,531,o),
(232,507,cs),
(475,178,ls),
(555,70,o),
(590,-14,o),
(590,-14,c),
(665,1,l),
(665,1,o),
(657,104,o),
(657,193,cs),
(657,583,ls),
(657,599,o),
(660,607,o),
(674,613,cs),
(693,621,o),
(732,626,o),
(732,626,c),
(725,659,l),
(684,654,o),
(648,650,o),
(621,650,cs),
(595,650,o),
(556,654,o),
(514,659,c),
(507,624,l),
(507,624,o),
(556,618,o),
(574,610,cs),
(589,604,o),
(591,596,o),
(591,580,cs),
(591,149,l),
(586,145,l),
(586,145,o),
(573,189,o),
(554,216,cs),
(303,563,ls),
(262,619,o),
(241,659,o),
(241,659,c),
(218,654,o),
(182,650,o),
(161,650,cs),
(142,650,o),
(99,651,o),
(57,659,c),
(50,626,l),
(50,626,o),
(91,621,o),
(109,613,cs),
(124,607,o),
(125,599,o),
(125,583,cs),
(125,69,ls),
(125,52,o),
(124,45,o),
(109,38,cs),
(90,30,o),
(50,25,o),
(50,25,c),
(57,-8,l),
(103,-3,o),
(152,0,o),
(180,0,cs),
(210,0,o),
(245,-3,o),
(289,-8,c),
(296,28,l),
(296,28,o),
(232,36,o),
(213,42,cs),
(193,48,o),
(191,59,o),
(191,77,cs),
(191,568,l)
);
}
);
width = 764;
},
{
anchors = (
{
name = top;
pos = (391,0);
}
);
layerId = "66e3d46a-fd92-11ee-8244-8aa624eb3053";
shapes = (
{
closed = 1;
nodes = (
(210,529,l),
(210,529,o),
(229,488,o),
(246,464,cs),
(446,178,ls),
(523,68,o),
(560,-14,o),
(560,-14,c),
(668,7,l),
(668,7,o),
(660,106,o),
(660,193,cs),
(660,573,ls),
(660,589,o),
(663,596,o),
(677,603,cs),
(697,613,o),
(735,621,o),
(735,621,c),
(728,660,l),
(687,654,o),
(648,650,o),
(620,650,cs),
(591,650,o),
(544,654,o),
(498,660,c),
(491,619,l),
(491,619,o),
(539,609,o),
(558,600,cs),
(572,593,o),
(575,586,o),
(575,570,cs),
(575,196,l),
(570,192,l),
(570,192,o),
(557,236,o),
(538,263,cs),
(330,563,ls),
(291,620,o),
(268,660,o),
(268,660,c),
(240,655,o),
(186,650,o),
(160,650,cs),
(140,650,o),
(96,652,o),
(52,660,c),
(45,621,l),
(45,621,o),
(85,612,o),
(104,603,cs),
(118,596,o),
(120,589,o),
(120,573,cs),
(120,79,ls),
(120,62,o),
(119,55,o),
(104,48,cs),
(83,37,o),
(42,30,o),
(42,30,c),
(50,-9,l),
(98,-3,o),
(149,0,o),
(179,0,cs),
(211,0,o),
(253,-3,o),
(299,-9,c),
(307,33,l),
(307,33,o),
(245,44,o),
(227,52,c),
(207,58,o),
(205,69,o),
(205,87,cs),
(205,525,l)
);
}
);
width = 769;
}
);
unicode = 78;
},
{
glyphname = O;
lastChange = "2024-04-18 14:46:39 +0000";
layers = (
{
anchors = (
{
name = top;
pos = (375,0);
}
);
layerId = "619f1a1e-fd92-11ee-b280-8aa624eb3053";
shapes = (
{
closed = 1;
nodes = (
(47,106,o),
(177,-16,o),
(380,-16,cs),
(583,-16,o),
(708,138,o),
(708,341,cs),
(708,544,o),
(578,666,o),
(375,666,cs),
(172,666,o),
(47,512,o),
(47,309,cs)
);
},
{
closed = 1;
nodes = (
(148,496,o),
(215,618,o),
(366,618,cs),
(531,618,o),
(607,470,o),
(607,305,cs),
(607,154,o),
(540,32,o),
(389,32,cs),
(224,32,o),
(148,180,o),
(148,345,cs)
);
}
);
width = 755;
},
{
anchors = (
{
name = top;
pos = (383,0);
}
);
layerId = "66e3d46a-fd92-11ee-8244-8aa624eb3053";
shapes = (
{
closed = 1;
nodes = (
(40,106,o),
(176,-16,o),
(388,-16,cs),
(600,-16,o),
(731,138,o),
(731,341,cs),
(731,544,o),
(595,666,o),
(383,666,cs),
(171,666,o),
(40,512,o),
(40,309,cs)
);
},
{
closed = 1;
nodes = (
(181,490,o),
(239,608,o),
(374,608,cs),
(524,608,o),
(590,464,o),
(590,305,cs),
(590,160,o),
(532,42,o),
(397,42,cs),
(247,42,o),
(181,186,o),
(181,345,cs)
);
}
);
width = 771;
}
);
unicode = 79;
},
{
glyphname = Oslash;
lastChange = "2024-04-18 14:46:39 +0000";
layers = (
{
layerId = "619f1a1e-fd92-11ee-b280-8aa624eb3053";
shapes = (
{
closed = 1;
nodes = (
(47,106,o),
(177,-16,o),
(380,-16,cs),
(583,-16,o),
(708,138,o),
(708,341,cs),
(708,544,o),
(578,666,o),
(375,666,cs),
(172,666,o),
(47,512,o),
(47,309,cs)
);
},
{
closed = 1;
nodes = (
(148,496,o),
(215,618,o),
(366,618,cs),
(531,618,o),
(607,470,o),
(607,305,cs),
(607,154,o),
(540,32,o),
(389,32,cs),
(224,32,o),
(148,180,o),
(148,345,cs)
);
},
{
closed = 1;
nodes = (
(137,-31,l),
(619,660,l),
(585,697,l),
(102,5,l)
);
}
);
width = 755;
},
{
layerId = "66e3d46a-fd92-11ee-8244-8aa624eb3053";
shapes = (
{
closed = 1;
nodes = (
(42,106,o),
(178,-16,o),
(390,-16,cs),
(602,-16,o),
(733,138,o),
(733,341,cs),
(733,544,o),
(597,666,o),
(385,666,cs),
(173,666,o),
(42,512,o),
(42,309,cs)
);
},
{
closed = 1;
nodes = (
(183,490,o),
(241,608,o),
(376,608,cs),
(531,608,o),
(592,464,o),
(592,305,cs),
(592,160,o),
(540,42,o),
(399,42,cs),
(249,42,o),
(183,186,o),
(183,345,cs)
);
},
{
closed = 1;
nodes = (
(149,-34,l),
(631,658,l),
(593,699,l),
(111,7,l)
);
}
);
width = 775;
}
);
unicode = 216;
},
{
glyphname = OE;
lastChange = "2024-04-18 14:51:21 +0000";
layers = (
{
layerId = "619f1a1e-fd92-11ee-b280-8aa624eb3053";
shapes = (
{
closed = 1;
nodes = (
(58,106,o),
(182,-16,o),
(376,-16,cs),
(399,-16,o),
(423,-13,o),
(443,-8,c),
(517,45,l),
(511,74,l),
(479,47,o),
(438,32,o),
(385,32,cs),
(229,32,o),
(159,180,o),
(159,345,cs),
(159,496,o),
(219,618,o),
(362,618,cs),
(426,618,o),
(474,595,o),
(511,557,c),
(520,615,l),
(443,659,l),
(421,664,o),
(396,666,o),
(371,666,cs),
(177,666,o),
(58,512,o),
(58,309,cs)
);
},
{
closed = 1;
nodes = (
(443,-8,l),
(485,-3,o),
(530,0,o),
(556,0,cs),
(885,0,l),
(894,29,o),
(905,135,o),
(906,167,c),
(870,173,l),
(863,145,o),
(834,66,o),
(815,48,c),
(600,48,l),
(600,312,l),
(735,312,ls),
(751,312,o),
(763,310,o),
(768,297,cs),
(775,281,o),
(780,238,o),
(780,238,c),
(818,242,l),
(813,273,o),
(810,315,o),
(810,336,cs),
(810,357,o),
(813,399,o),
(818,430,c),
(780,434,l),
(780,434,o),
(775,390,o),
(768,375,c),
(763,361,o),
(751,360,o),
(735,360,cs),
(600,360,l),
(600,603,l),
(805,603,l),
(818,586,o),
(833,519,o),
(837,495,c),
(874,501,l),
(874,558,o),
(874,607,o),
(874,656,c),
(850,652,o),
(813,650,o),
(792,650,cs),
(556,650,ls),
(530,650,o),
(485,654,o),
(443,659,c),
(436,626,l),
(511,583,l),
(511,69,ls),
(511,52,o),
(510,45,o),
(495,38,cs),
(476,30,o),
(436,25,o),
(436,25,c)
);
}
);
width = 954;
},
{
layerId = "66e3d46a-fd92-11ee-8244-8aa624eb3053";
shapes = (
{
closed = 1;
nodes = (
(40,104,o),
(170,-16,o),
(373,-16,cs),
(394,-16,o),
(416,-13,o),
(435,-8,c),
(509,45,l),
(503,79,l),
(472,58,o),
(433,47,o),
(382,47,cs),
(241,47,o),
(181,189,o),
(181,345,cs),
(181,490,o),
(234,608,o),
(359,608,cs),
(421,608,o),
(467,587,o),
(503,552,c),
(512,615,l),
(435,659,l),
(415,664,o),
(391,666,o),
(368,666,cs),
(165,666,o),
(40,510,o),
(40,304,cs)
);
},
{
closed = 1;
nodes = (
(423,-9,l),
(463,-4,o),
(508,0,o),
(533,0,cs),
(882,0,l),
(891,30,o),
(901,137,o),
(902,170,c),
(852,178,l),
(845,152,o),
(816,79,o),
(797,63,c),
(617,63,l),
(617,305,l),
(717,305,ls),
(733,305,o),
(744,303,o),
(750,290,cs),
(758,272,o),
(767,228,o),
(767,228,c),
(810,234,l),
(805,269,o),
(802,311,o),
(802,334,cs),
(802,356,o),
(805,400,o),
(810,433,c),
(767,439,l),
(767,439,o),
(758,398,o),
(750,383,cs),
(743,370,o),
(733,368,o),
(717,368,cs),
(617,368,l),
(617,588,l),
(787,588,l),
(800,573,o),
(815,512,o),
(819,490,c),
(871,499,l),
(871,558,o),
(871,605,o),
(871,656,c),
(846,652,o),
(806,650,o),
(784,650,cs),
(533,650,ls),
(507,650,o),
(474,654,o),
(435,659,c),
(423,614,l),
(488,588,l),
(488,79,ls),
(488,62,o),
(486,56,o),
(472,48,cs),
(454,38,o),
(416,30,o),
(416,30,c)
);
}
);
width = 946;
}
);
unicode = 338;
},
{
glyphname = P;
lastChange = "2024-04-18 14:46:39 +0000";
layers = (
{
layerId = "619f1a1e-fd92-11ee-b280-8aa624eb3053";
shapes = (
{
closed = 1;
nodes = (
(227,615,o),
(254,619,o),
(271,619,cs),
(362,619,o),
(422,573,o),
(422,461,cs),
(422,358,o),
(364,310,o),
(261,310,cs),
(250,310,o),
(235,312,o),
(228,314,c),
(232,298,l),
(243,290,o),
(278,273,o),
(298,273,cs),
(411,273,o),
(521,361,o),
(521,474,cs),
(521,612,o),
(415,658,o),
(277,658,cs),
(195,658,o),
(114,645,o),
(57,653,c),
(50,622,l),
(50,622,o),
(90,617,o),
(109,609,cs),
(124,602,o),
(125,595,o),
(125,579,cs),
(125,69,ls),
(125,52,o),
(124,45,o),
(109,38,cs),
(90,30,o),
(50,25,o),
(50,25,c),
(57,-8,l),
(103,-3,o),
(152,0,o),
(180,0,cs),
(210,0,o),
(268,-3,o),
(312,-8,c),
(319,28,l),
(319,28,o),
(255,36,o),
(236,42,cs),
(216,48,o),
(214,59,o),
(214,77,cs),
(214,612,l)
);
}
);
width = 537;
},
{
layerId = "66e3d46a-fd92-11ee-8244-8aa624eb3053";
shapes = (
{
closed = 1;
nodes = (
(258,605,o),
(274,609,o),
(286,609,cs),
(359,609,o),
(407,565,o),
(407,461,cs),
(407,361,o),
(369,315,o),
(296,315,cs),
(285,315,o),
(270,319,o),
(263,319,c),
(267,298,l),
(278,290,o),
(314,273,o),
(333,273,cs),
(438,273,o),
(546,361,o),
(546,474,cs),
(546,612,o),
(434,658,o),
(287,658,cs),
(201,658,o),
(114,646,o),
(55,654,c),
(47,617,l),
(47,617,o),
(86,609,o),
(104,599,cs),
(118,591,o),
(120,585,o),
(120,569,cs),
(120,79,ls),
(120,62,o),
(118,56,o),
(104,48,cs),
(86,38,o),
(48,30,o),
(48,30,c),
(56,-9,l),
(106,-4,o),
(160,0,o),
(190,0,cs),
(224,0,o),
(292,-4,o),
(344,-9,c),
(352,33,l),
(352,33,o),
(289,45,o),
(271,52,cs),
(251,59,o),
(249,69,o),
(249,87,cs),
(249,602,l)
);
}
);
width = 558;
}
);
unicode = 80;
},
{
glyphname = Thorn;
lastChange = "2024-04-18 14:48:29 +0000";
layers = (
{
layerId = "619f1a1e-fd92-11ee-b280-8aa624eb3053";
shapes = (
{
closed = 1;
nodes = (
(227,495,o),
(254,499,o),
(271,499,cs),
(362,499,o),
(422,454,o),
(422,351,cs),
(422,254,o),
(364,210,o),
(261,210,cs),
(250,210,o),
(235,214,o),
(228,214,c),
(232,198,l),
(243,190,o),
(278,173,o),
(298,173,cs),
(411,173,o),
(521,257,o),
(521,364,cs),
(521,494,o),
(415,538,o),
(277,538,cs),
(229,538,o),
(182,532,o),
(140,532,c),
(214,492,l)
);
},
{
closed = 1;
nodes = (
(214,599,o),
(215,605,o),
(230,612,cs),
(249,620,o),
(291,625,o),
(291,625,c),
(284,658,l),
(242,653,o),
(197,650,o),
(170,650,cs),
(144,650,o),
(99,653,o),
(57,658,c),
(50,625,l),
(50,625,o),
(90,620,o),
(109,612,cs),
(124,605,o),
(125,599,o),
(125,582,cs),
(125,68,ls),
(125,51,o),
(124,45,o),
(109,38,cs),
(90,30,o),
(50,25,o),
(50,25,c),
(57,-8,l),
(99,-3,o),
(144,0,o),
(170,0,cs),
(197,0,o),
(242,-3,o),
(284,-8,c),
(291,25,l),
(291,25,o),
(249,30,o),
(230,38,cs),
(215,45,o),
(214,51,o),
(214,68,cs),
(214,582,ls)
);
}
);
width = 537;
},
{
layerId = "66e3d46a-fd92-11ee-8244-8aa624eb3053";
shapes = (
{
closed = 1;
nodes = (
(258,491,o),
(274,495,o),
(286,495,cs),
(359,495,o),
(407,454,o),
(407,357,cs),
(407,260,o),
(369,216,o),
(296,216,cs),
(285,216,o),
(270,220,o),
(263,220,c),
(267,199,l),
(278,191,o),
(314,174,o),
(333,174,cs),
(438,174,o),
(546,260,o),
(546,370,cs),
(546,500,o),
(434,544,o),
(287,544,cs),
(255,544,o),
(223,542,o),
(193,541,c),
(249,488,l)
);
},
{
closed = 1;
nodes = (
(249,589,o),
(250,594,o),
(265,602,cs),
(283,612,o),
(323,620,o),
(323,620,c),
(316,659,l),
(270,653,o),
(215,650,o),
(185,650,cs),
(156,650,o),
(101,653,o),
(55,659,c),
(48,620,l),
(48,620,o),
(88,612,o),
(104,602,c),
(119,594,o),
(120,589,o),
(120,572,cs),
(120,78,ls),
(120,61,o),
(119,56,o),
(104,48,cs),
(87,38,o),
(48,30,o),
(48,30,c),
(55,-9,l),
(101,-3,o),
(156,0,o),
(185,0,cs),
(215,0,o),
(270,-3,o),
(316,-9,c),
(323,30,l),
(323,30,o),
(282,38,o),
(265,48,cs),
(250,56,o),
(249,61,o),
(249,78,cs),
(249,572,ls)
);
}
);
width = 547;
}
);
unicode = 222;
},
{
glyphname = Q;
lastChange = "2024-04-18 14:46:39 +0000";
layers = (
{
layerId = "619f1a1e-fd92-11ee-b280-8aa624eb3053";
shapes = (
{
closed = 1;
nodes = (
(47,106,o),
(177,-16,o),
(380,-16,cs),
(583,-16,o),
(708,138,o),
(708,341,cs),
(708,544,o),
(578,666,o),
(375,666,cs),
(172,666,o),
(47,512,o),
(47,309,cs)
);
},
{
closed = 1;
nodes = (
(148,496,o),
(215,618,o),
(366,618,cs),
(531,618,o),
(607,470,o),
(607,305,cs),
(607,152,o),
(542,30,o),
(389,30,cs),
(224,30,o),
(148,180,o),
(148,345,cs)
);
},
{
closed = 1;
nodes = (
(365,-15,l),
(340,-26,o),
(273,-88,o),
(251,-115,c),
(279,-138,l),
(294,-122,o),
(332,-91,o),
(357,-91,cs),
(408,-91,o),
(483,-213,o),
(560,-213,cs),
(599,-213,o),
(628,-190,o),
(691,-120,c),
(668,-92,l),
(648,-116,o),
(621,-135,o),
(595,-135,cs),
(532,-135,o),
(448,-31,o),
(391,-15,c)
);
}
);
width = 755;
},
{
layerId = "66e3d46a-fd92-11ee-8244-8aa624eb3053";
shapes = (
{
closed = 1;
nodes = (
(40,106,o),
(176,-16,o),
(388,-16,cs),
(600,-16,o),
(731,138,o),
(731,341,cs),
(731,544,o),
(595,666,o),
(383,666,cs),
(171,666,o),
(40,512,o),
(40,309,cs)
);
},
{
closed = 1;
nodes = (
(181,490,o),
(239,608,o),
(374,608,cs),
(524,608,o),
(590,464,o),
(590,305,cs),
(590,158,o),
(532,40,o),
(397,40,cs),
(247,40,o),
(181,186,o),
(181,345,cs)
);
},
{
closed = 1;
nodes = (
(373,-15,l),
(347,-30,o),
(275,-105,o),
(252,-136,c),
(287,-163,l),
(302,-145,o),
(340,-111,o),
(365,-111,cs),
(416,-111,o),
(491,-213,o),
(568,-213,cs),
(610,-213,o),
(645,-188,o),
(714,-94,c),
(686,-58,l),
(663,-90,o),
(632,-115,o),
(603,-115,cs),
(540,-115,o),
(456,-27,o),
(399,-15,c)
);
}
);
width = 771;
}
);
unicode = 81;
},
{
glyphname = R;
lastChange = "2024-04-18 14:49:52 +0000";
layers = (
{
layerId = "619f1a1e-fd92-11ee-b280-8aa624eb3053";
shapes = (
{
closed = 1;
nodes = (
(229,616,o),
(262,619,o),
(279,619,cs),
(377,619,o),
(422,573,o),
(422,475,cs),
(422,378,o),
(366,331,o),
(269,331,cs),
(214,331,l),
(214,612,l)
);
},
{
closed = 1;
nodes = (
(125,52,o),
(124,45,o),
(109,38,cs),
(90,30,o),
(50,25,o),
(50,25,c),
(57,-8,l),
(103,-3,o),
(152,0,o),
(180,0,cs),
(210,0,o),
(268,-3,o),
(312,-8,c),
(319,28,l),
(319,28,o),
(255,36,o),
(236,42,cs),
(216,48,o),
(214,59,o),
(214,77,cs),
(214,289,l),
(257,289,ls),
(278,289,o),
(287,286,o),
(293,283,cs),
(313,274,o),
(323,254,o),
(346,217,cs),
(396,134,o),
(461,-6,o),
(504,-6,cs),
(646,-6,l),
(651,26,l),
(624,26,o),
(598,29,o),
(570,47,cs),
(500,94,o),
(443,292,o),
(368,313,c),
(368,320,l),
(450,326,o),
(521,400,o),
(521,489,cs),
(521,618,o),
(408,658,o),
(279,658,cs),
(202,658,o),
(112,646,o),
(57,653,c),
(50,622,l),
(50,622,o),
(90,617,o),
(109,609,cs),
(124,602,o),
(125,595,o),
(125,579,cs),
(125,69,ls)
);
}
);
width = 649;
},
{
layerId = "66e3d46a-fd92-11ee-8244-8aa624eb3053";
shapes = (
{
closed = 1;
nodes = (
(259,606,o),
(277,609,o),
(289,609,cs),
(372,609,o),
(407,567,o),
(407,475,cs),
(407,384,o),
(361,341,o),
(279,341,cs),
(249,341,l),
(249,602,l)
);
},
{
closed = 1;
nodes = (
(120,62,o),
(119,56,o),
(104,48,cs),
(87,38,o),
(48,30,o),
(48,30,c),
(55,-9,l),
(105,-4,o),
(160,0,o),
(190,0,cs),
(224,0,o),
(292,-4,o),
(344,-9,c),
(351,33,l),
(351,33,o),
(289,45,o),
(271,52,cs),
(251,59,o),
(249,69,o),
(249,87,cs),
(249,284,l),
(267,284,ls),
(281,284,o),
(291,281,o),
(300,274,cs),
(313,264,o),
(325,246,o),
(341,217,cs),
(387,133,o),
(452,-6,o),
(494,-6,cs),
(671,-6,l),
(677,31,l),
(652,31,o),
(627,37,o),
(600,56,cs),
(528,107,o),
(470,292,o),
(383,313,c),
(383,320,l),
(471,326,o),
(546,400,o),
(546,489,cs),
(546,618,o),
(427,658,o),
(289,658,cs),
(208,658,o),
(112,647,o),
(55,654,c),
(48,617,l),
(48,617,o),
(86,610,o),
(104,600,cs),
(118,592,o),
(120,585,o),
(120,569,cs),
(120,79,ls)
);
}
);
width = 665;
}
);
unicode = 82;
},
{
glyphname = S;
lastChange = "2024-04-18 14:46:39 +0000";
layers = (
{
layerId = "619f1a1e-fd92-11ee-b280-8aa624eb3053";
shapes = (
{
closed = 1;
nodes = (
(145,30,o),
(101,104,o),
(94,192,c),
(57,183,l),
(54,163,o),
(53,116,o),
(53,78,cs),
(53,53,o),
(53,32,o),
(55,21,c),
(94,4,o),
(170,-16,o),
(228,-16,cs),
(365,-16,o),
(469,50,o),
(469,187,cs),
(469,284,o),
(380,333,o),
(297,378,cs),
(223,418,o),
(154,454,o),
(154,520,cs),
(154,585,o),
(203,622,o),
(269,622,cs),
(309,622,o),
(354,611,o),
(375,597,c),
(387,566,o),
(391,519,o),
(394,480,c),
(428,486,l),
(435,512,o),
(451,607,o),
(454,640,c),
(404,649,o),
(330,666,o),
(277,666,cs),
(161,666,o),
(70,603,o),
(70,487,cs),
(70,385,o),
(160,338,o),
(243,292,cs),
(313,253,o),
(377,215,o),
(377,145,cs),
(377,72,o),
(321,30,o),
(248,30,cs)
);
}
);
width = 524;
},
{
layerId = "66e3d46a-fd92-11ee-8244-8aa624eb3053";
shapes = (
{
closed = 1;
nodes = (
(151,40,o),
(111,114,o),
(104,199,c),
(52,188,l),
(48,169,o),
(48,124,o),
(48,88,cs),
(48,59,o),
(48,34,o),
(50,21,c),
(90,4,o),
(168,-16,o),
(228,-16,cs),
(374,-16,o),
(484,50,o),
(484,187,cs),
(484,292,o),
(394,344,o),
(312,390,cs),
(243,428,o),
(179,462,o),
(179,520,cs),
(179,579,o),
(218,612,o),
(269,612,cs),
(305,612,o),
(346,601,o),
(365,587,c),
(377,557,o),
(381,512,o),
(384,475,c),
(433,482,l),
(440,509,o),
(457,606,o),
(459,640,c),
(408,649,o),
(331,666,o),
(277,666,cs),
(152,666,o),
(55,603,o),
(55,487,cs),
(55,380,o),
(144,331,o),
(224,284,cs),
(291,245,o),
(352,209,o),
(352,145,cs),
(352,78,o),
(306,40,o),
(248,40,cs)
);
}
);
width = 524;
}
);
unicode = 83;
},
{
glyphname = T;
lastChange = "2024-04-18 14:46:39 +0000";
layers = (
{
layerId = "619f1a1e-fd92-11ee-b280-8aa624eb3053";
shapes = (
{
closed = 1;
nodes = (
(313,0,o),
(381,-3,o),
(422,-8,c),
(430,26,l),
(430,26,o),
(366,34,o),
(347,43,cs),
(333,49,o),
(331,55,o),
(331,72,cs),
(331,603,l),
(498,603,l),
(507,578,o),
(517,506,o),
(519,478,c),
(555,484,l),
(560,521,o),
(566,620,o),
(564,657,c),
(540,654,o),
(484,650,o),
(463,650,cs),
(110,650,ls),
(89,650,o),
(33,654,o),
(9,657,c),
(7,620,o),
(12,521,o),
(17,484,c),
(54,478,l),
(56,506,o),
(66,578,o),
(75,603,c),
(242,603,l),
(242,72,ls),
(242,55,o),
(240,49,o),
(226,43,cs),
(207,34,o),
(143,26,o),
(143,26,c),
(151,-8,l),
(192,-3,o),
(259,0,o),
(286,0,cs)
);
}
);
width = 573;
},
{
layerId = "66e3d46a-fd92-11ee-8244-8aa624eb3053";
shapes = (
{
closed = 1;
nodes = (
(319,0,o),
(398,-4,o),
(441,-9,c),
(450,31,l),
(450,31,o),
(389,43,o),
(370,53,cs),
(357,60,o),
(354,65,o),
(354,82,cs),
(354,588,l),
(486,588,l),
(495,565,o),
(505,496,o),
(507,470,c),
(563,479,l),
(567,517,o),
(574,620,o),
(572,658,c),
(547,655,o),
(488,650,o),
(466,650,cs),
(113,650,ls),
(91,650,o),
(32,655,o),
(7,658,c),
(5,620,o),
(10,517,o),
(15,479,c),
(72,470,l),
(75,496,o),
(84,565,o),
(93,588,c),
(225,588,l),
(225,82,ls),
(225,65,o),
(223,61,o),
(209,53,cs),
(190,43,o),
(129,31,o),
(129,31,c),
(138,-9,l),
(181,-4,o),
(259,0,o),
(289,0,cs)
);
}
);
width = 579;
}
);
unicode = 84;
},
{
glyphname = U;
lastChange = "2024-04-18 15:24:12 +0000";
layers = (
{
anchors = (
{
name = top;
pos = (372,0);
}
);
layerId = "619f1a1e-fd92-11ee-b280-8aa624eb3053";
shapes = (
{
closed = 1;
nodes = (
(558,117,o),
(495,46,o),
(383,46,cs),
(246,46,o),
(190,112,o),
(190,249,cs),
(190,581,ls),
(190,598,o),
(191,604,o),
(206,611,cs),
(225,619,o),
(270,625,o),
(270,625,c),
(263,658,l),
(221,653,o),
(173,650,o),
(146,650,cs),
(120,650,o),
(75,653,o),
(33,658,c),
(26,625,l),
(26,625,o),
(66,620,o),
(85,612,cs),
(100,605,o),
(101,599,o),
(101,582,cs),
(101,233,ls),
(101,61,o),
(185,-14,o),
(357,-14,cs),
(528,-14,o),
(623,74,o),
(623,245,cs),
(623,582,ls),
(623,598,o),
(624,604,o),
(639,611,cs),
(658,619,o),
(700,624,o),
(700,624,c),
(693,658,l),
(651,653,o),
(618,650,o),
(591,650,cs),
(565,650,o),
(529,653,o),
(487,658,c),
(480,624,l),
(480,624,o),
(523,618,o),
(542,610,cs),
(557,603,o),
(558,598,o),
(558,581,cs),
(558,229,ls)
);
}
);
width = 724;
},
{
anchors = (
{
name = top;
pos = (392,0);
}
);
layerId = "66e3d46a-fd92-11ee-8244-8aa624eb3053";
shapes = (
{
closed = 1;
nodes = (
(563,126,o),
(506,61,o),
(403,61,cs),
(285,61,o),
(235,121,o),
(235,249,cs),
(235,572,ls),
(235,589,o),
(236,594,o),
(251,602,cs),
(268,612,o),
(309,620,o),
(309,620,c),
(302,659,l),
(256,653,o),
(201,650,o),
(171,650,cs),
(142,650,o),
(87,653,o),
(41,659,c),
(34,620,l),
(34,620,o),
(73,612,o),
(90,602,cs),
(105,594,o),
(106,589,o),
(106,572,cs),
(106,233,ls),
(106,61,o),
(196,-14,o),
(377,-14,cs),
(551,-14,o),
(648,74,o),
(648,245,cs),
(648,572,ls),
(648,589,o),
(649,594,o),
(664,602,cs),
(681,612,o),
(722,620,o),
(722,620,c),
(715,659,l),
(675,653,o),
(627,650,o),
(600,650,cs),
(577,650,o),
(532,653,o),
(498,659,c),
(491,620,l),
(491,620,o),
(531,612,o),
(547,602,c),
(562,594,o),
(563,589,o),
(563,572,cs),
(563,229,ls)
);
}
);
width = 754;
}
);
unicode = 85;
},
{
glyphname = V;
lastChange = "2024-04-18 14:46:39 +0000";
layers = (
{
layerId = "619f1a1e-fd92-11ee-b280-8aa624eb3053";
shapes = (
{
closed = 1;
nodes = (
(338,80,l),
(331,83,l),
(321,124,l),
(167,571,ls),
(159,593,o),
(168,605,o),
(190,612,cs),
(212,619,o),
(249,625,o),
(249,625,c),
(243,658,l),
(201,652,o),
(138,650,o),
(111,650,cs),
(85,650,o),
(45,652,o),
(5,658,c),
(-2,625,l),
(55,613,o),
(58,606,o),
(78,549,cs),
(278,-7,l),
(352,-7,l),
(563,549,ls),
(584,606,o),
(584,613,o),
(641,625,c),
(634,658,l),
(594,652,o),
(567,650,o),
(541,650,cs),
(514,650,o),
(466,652,o),
(425,658,c),
(419,625,l),
(419,625,o),
(458,619,o),
(480,612,cs),
(502,606,o),
(510,592,o),
(503,571,cs),
(344,124,l)
);
}
);
width = 643;
},
{
layerId = "66e3d46a-fd92-11ee-8244-8aa624eb3053";
shapes = (
{
closed = 1;
nodes = (
(353,133,l),
(346,136,l),
(336,177,l),
(203,561,ls),
(195,583,o),
(205,593,o),
(226,602,cs),
(247,610,o),
(283,620,o),
(283,620,c),
(276,659,l),
(226,653,o),
(151,650,o),
(120,650,cs),
(92,650,o),
(47,653,o),
(3,659,c),
(-6,620,l),
(47,607,o),
(50,599,o),
(72,539,cs),
(269,-7,l),
(363,-7,l),
(570,539,ls),
(590,600,o),
(593,607,o),
(646,620,c),
(638,659,l),
(598,653,o),
(569,650,o),
(543,650,cs),
(515,650,o),
(463,653,o),
(420,659,c),
(413,620,l),
(413,620,o),
(452,609,o),
(472,602,cs),
(494,595,o),
(502,581,o),
(495,561,cs),
(359,177,l)
);
}
);
width = 640;
}
);
unicode = 86;
},
{
glyphname = W;
lastChange = "2024-04-18 14:50:15 +0000";
layers = (
{
layerId = "619f1a1e-fd92-11ee-b280-8aa624eb3053";
shapes = (
{
closed = 1;
nodes = (
(962,606,o),
(963,613,o),
(1020,625,c),
(1013,658,l),
(973,652,o),
(946,650,o),
(920,650,cs),
(893,650,o),
(847,652,o),
(806,658,c),
(800,625,l),
(800,625,o),
(839,619,o),
(861,612,cs),
(878,607,o),
(887,598,o),
(886,584,cs),
(886,580,o),
(886,576,o),
(884,571,cs),
(749,138,l),
(743,108,l),
(738,109,l),
(732,135,l),
(564,649,l),
(492,649,l),
(325,142,l),
(321,109,l),
(315,110,l),
(309,139,l),
(167,571,ls),
(165,576,o),
(165,581,o),
(165,585,cs),
(165,598,o),
(173,607,o),
(190,612,cs),
(212,619,o),
(249,625,o),
(249,625,c),
(243,658,l),
(201,652,o),
(138,650,o),
(111,650,cs),
(85,650,o),
(45,652,o),
(5,658,c),
(-2,625,l),
(55,613,o),
(59,606,o),
(78,549,cs),
(263,-8,l),
(332,-8,l),
(497,487,l),
(505,521,l),
(510,520,l),
(516,493,l),
(685,-8,l),
(753,-8,l),
(942,549,ls)
);
}
);
width = 1018;
},
{
layerId = "66e3d46a-fd92-11ee-8244-8aa624eb3053";
shapes = (
{
closed = 1;
nodes = (
(969,600,o),
(973,607,o),
(1026,620,c),
(1018,659,l),
(978,653,o),
(949,650,o),
(923,650,cs),
(895,650,o),
(845,653,o),
(802,659,c),
(795,620,l),
(795,620,o),
(834,609,o),
(854,602,c),
(871,597,o),
(879,587,o),
(879,574,cs),
(879,570,o),
(879,566,o),
(877,561,c),
(759,185,l),
(753,155,l),
(748,156,l),
(742,182,l),
(590,649,l),
(488,649,l),
(336,182,l),
(332,149,l),
(326,150,l),
(320,179,l),
(201,561,l),
(199,566,o),
(199,570,o),
(199,574,cs),
(199,587,o),
(207,596,o),
(224,602,c),
(245,611,o),
(281,620,o),
(281,620,c),
(274,659,l),
(224,653,o),
(151,650,o),
(120,650,cs),
(92,650,o),
(46,653,o),
(2,659,c),
(-6,620,l),
(47,607,o),
(52,600,o),
(72,539,cs),
(254,-8,l),
(348,-8,l),
(498,447,l),
(506,481,l),
(511,480,l),
(517,453,l),
(671,-8,l),
(764,-8,l),
(950,539,ls)
);
}
);
width = 1020;
}
);
unicode = 87;
},
{
glyphname = X;
lastChange = "2024-04-18 14:57:15 +0000";
layers = (
{
layerId = "619f1a1e-fd92-11ee-b280-8aa624eb3053";
shapes = (
{
closed = 1;
nodes = (
(290,336,l),
(95,88,ls),
(60,43,o),
(42,32,o),
(8,24,c),
(15,-9,l),
(55,-3,o),
(89,0,o),
(115,0,cs),
(142,0,o),
(193,-2,o),
(234,-8,c),
(240,25,l),
(240,25,o),
(201,31,o),
(179,38,cs),
(163,42,o),
(151,53,o),
(151,65,cs),
(151,70,o),
(153,74,o),
(156,79,cs),
(322,300,l)
);
},
{
closed = 1;
nodes = (
(588,609,o),
(588,613,o),
(644,625,c),
(637,658,l),
(597,652,o),
(570,650,o),
(544,650,cs),
(517,650,o),
(469,652,o),
(428,658,c),
(422,625,l),
(422,625,o),
(462,621,o),
(483,612,cs),
(491,608,o),
(500,597,o),
(500,584,cs),
(500,580,o),
(499,575,o),
(496,571,cs),
(355,380,l),
(384,344,l),
(552,562,ls)
);
},
{
closed = 1;
nodes = (
(472,74,o),
(473,69,o),
(473,65,cs),
(473,53,o),
(461,43,o),
(445,38,cs),
(423,31,o),
(386,25,o),
(386,25,c),
(392,-8,l),
(434,-2,o),
(507,0,o),
(534,0,cs),
(560,0,o),
(614,-2,o),
(654,-8,c),
(661,25,l),
(619,32,o),
(606,46,o),
(568,99,cs),
(220,571,ls),
(217,576,o),
(215,581,o),
(215,586,cs),
(215,597,o),
(224,608,o),
(233,612,cs),
(254,621,o),
(292,625,o),
(292,625,c),
(286,658,l),
(245,652,o),
(174,650,o),
(147,650,cs),
(121,650,o),
(74,652,o),
(34,658,c),
(27,625,l),
(72,617,o),
(84,602,o),
(125,551,cs),
(468,79,ls)
);
}
);
width = 669;
},
{
layerId = "66e3d46a-fd92-11ee-8244-8aa624eb3053";
shapes = (
{
closed = 1;
nodes = (
(289,336,l),
(102,98,ls),
(65,51,o),
(43,38,o),
(9,29,c),
(17,-10,l),
(57,-4,o),
(95,0,o),
(121,0,cs),
(149,0,o),
(203,-3,o),
(246,-9,c),
(253,30,l),
(253,30,o),
(222,38,o),
(203,46,cs),
(187,53,o),
(175,61,o),
(175,73,cs),
(175,77,o),
(177,84,o),
(180,89,c),
(338,300,l)
);
},
{
closed = 1;
nodes = (
(613,602,o),
(618,607,o),
(674,620,c),
(665,659,l),
(625,653,o),
(594,650,o),
(568,650,cs),
(540,650,o),
(488,653,o),
(445,659,c),
(438,620,l),
(438,620,o),
(472,616,o),
(490,604,c),
(497,600,o),
(507,589,o),
(507,577,cs),
(507,573,o),
(506,565,o),
(503,561,cs),
(369,380,l),
(415,344,l),
(576,552,ls)
);
},
{
closed = 1;
nodes = (
(453,84,o),
(454,76,o),
(454,72,cs),
(454,60,o),
(441,53,o),
(426,46,cs),
(407,38,o),
(376,30,o),
(376,30,c),
(383,-9,l),
(429,-3,o),
(516,0,o),
(547,0,cs),
(575,0,o),
(635,-3,o),
(679,-9,c),
(687,30,l),
(645,39,o),
(629,53,o),
(589,109,cs),
(265,561,l),
(262,566,o),
(261,573,o),
(261,578,cs),
(261,590,o),
(269,599,o),
(278,604,cs),
(296,614,o),
(328,620,o),
(328,620,c),
(321,659,l),
(276,653,o),
(191,650,o),
(160,650,cs),
(132,650,o),
(79,653,o),
(35,659,c),
(27,620,l),
(72,611,o),
(92,595,o),
(130,541,cs),
(449,89,l)
);
}
);
width = 696;
}
);
unicode = 88;
},
{
glyphname = Y;
lastChange = "2024-04-18 14:57:33 +0000";
layers = (
{
anchors = (
{
name = top;
pos = (307,0);
}
);
layerId = "619f1a1e-fd92-11ee-b280-8aa624eb3053";
shapes = (
{
closed = 1;
nodes = (
(250,68,ls),
(250,51,o),
(249,44,o),
(234,37,cs),
(215,29,o),
(165,24,o),
(165,24,c),
(172,-8,l),
(213,-3,o),
(270,0,o),
(296,0,cs),
(323,0,o),
(378,-3,o),
(419,-8,c),
(427,23,l),
(427,23,o),
(374,29,o),
(355,37,cs),
(340,44,o),
(339,51,o),
(339,68,cs),
(339,276,l),
(505,562,ls),
(533,613,o),
(550,623,o),
(590,627,c),
(594,659,l),
(560,654,o),
(521,650,o),
(489,650,cs),
(451,650,o),
(410,654,o),
(371,659,c),
(374,627,l),
(387,624,o),
(426,617,o),
(443,606,c),
(450,601,o),
(454,595,o),
(454,586,cs),
(454,580,o),
(452,573,o),
(447,564,cs),
(316,330,l),
(184,563,ls),
(179,572,o),
(177,579,o),
(177,586,cs),
(177,600,o),
(186,609,o),
(199,614,cs),
(218,621,o),
(248,627,o),
(248,627,c),
(251,659,l),
(213,654,o),
(153,650,o),
(110,650,cs),
(69,650,o),
(34,653,o),
(-2,659,c),
(2,627,l),
(40,623,o),
(55,613,o),
(79,569,cs),
(250,274,l)
);
}
);
width = 592;
},
{
anchors = (
{
name = top;
pos = (323,0);
}
);
layerId = "66e3d46a-fd92-11ee-8244-8aa624eb3053";
shapes = (
{
closed = 1;
nodes = (
(245,78,ls),
(245,61,o),
(244,55,o),
(229,47,cs),
(210,37,o),
(162,29,o),
(162,29,c),
(170,-8,l),
(213,-3,o),
(274,0,o),
(301,0,cs),
(331,0,o),
(394,-3,o),
(441,-8,c),
(450,28,l),
(450,28,o),
(399,37,o),
(380,47,cs),
(365,55,o),
(364,61,o),
(364,78,cs),
(364,276,l),
(521,552,l),
(547,607,o),
(570,618,o),
(608,622,c),
(612,660,l),
(578,655,o),
(537,650,o),
(505,650,cs),
(465,650,o),
(421,655,o),
(380,660,c),
(383,622,l),
(395,619,o),
(433,611,o),
(449,601,c),
(455,596,o),
(458,588,o),
(458,580,cs),
(458,573,o),
(454,564,o),
(448,554,cs),
(342,360,l),
(231,553,ls),
(226,561,o),
(223,571,o),
(223,578,cs),
(223,591,o),
(231,601,o),
(240,606,cs),
(257,616,o),
(286,622,o),
(286,622,c),
(289,660,l),
(247,655,o),
(177,650,o),
(126,650,cs),
(79,650,o),
(38,654,o),
(-4,660,c),
(0,622,l),
(38,618,o),
(56,607,o),
(80,559,c),
(245,274,l)
);
}
);
width = 608;
}
);
unicode = 89;
},
{
glyphname = Z;
lastChange = "2024-04-18 14:46:39 +0000";
layers = (
{
layerId = "619f1a1e-fd92-11ee-b280-8aa624eb3053";
shapes = (
{
closed = 1;
nodes = (
(49,0,l),
(518,0,l),
(528,34,o),
(551,160,o),
(553,197,c),
(517,206,l),
(505,170,o),
(456,75,o),
(434,53,c),
(149,53,l),
(525,600,l),
(511,650,l),
(164,650,ls),
(123,650,o),
(93,662,o),
(93,662,c),
(69,650,l),
(62,612,o),
(56,502,o),
(58,463,c),
(93,456,l),
(102,496,o),
(124,568,o),
(144,597,c),
(418,597,l),
(40,47,l)
);
}
);
width = 587;
},
{
layerId = "66e3d46a-fd92-11ee-8244-8aa624eb3053";
shapes = (
{
closed = 1;
nodes = (
(46,0,l),
(527,0,l),
(537,35,o),
(560,164,o),
(562,202,c),
(511,214,l),
(499,180,o),
(450,88,o),
(428,68,c),
(188,68,l),
(539,595,l),
(530,650,l),
(168,650,ls),
(127,650,o),
(97,663,o),
(97,663,c),
(63,645,l),
(57,607,o),
(57,498,o),
(57,459,c),
(107,450,l),
(116,488,o),
(138,555,o),
(158,582,c),
(386,582,l),
(32,52,l)
);
}
);
width = 595;
}
);
unicode = 90;
},
{
glyphname = a;
lastChange = "2024-04-18 14:46:39 +0000";
layers = (
{
anchors = (
{
name = top;
pos = (220,0);
}
);
layerId = "619f1a1e-fd92-11ee-b280-8aa624eb3053";
shapes = (
{
closed = 1;
nodes = (
(153,44,o),
(127,75,o),
(127,112,cs),
(127,157,o),
(159,176,o),
(206,184,cs),
(283,198,l),
(283,84,l),
(252,60,o),
(216,44,o),
(191,44,cs)
);
},
{
closed = 1;
nodes = (
(363,385,o),
(320,432,o),
(221,432,cs),
(178,432,o),
(98,398,o),
(65,383,c),
(67,358,o),
(84,291,o),
(90,271,c),
(132,283,l),
(132,305,o),
(132,354,o),
(138,375,c),
(151,382,o),
(177,387,o),
(202,387,cs),
(269,387,o),
(283,341,o),
(283,272,cs),
(283,227,l),
(191,217,ls),
(108,209,o),
(44,182,o),
(44,100,cs),
(44,31,o),
(87,-16,o),
(156,-16,cs),
(193,-16,o),
(225,0,o),
(286,51,c),
(293,21,o),
(312,-2,o),
(333,-16,c),
(366,-2,o),
(400,10,o),
(437,18,c),
(429,47,l),
(429,47,o),
(416,46,o),
(402,46,cs),
(380,46,o),
(363,52,o),
(363,82,cs),
(363,286,ls)
);
}
);
width = 455;
},
{
anchors = (
{
name = top;
pos = (222,0);
}
);
layerId = "66e3d46a-fd92-11ee-8244-8aa624eb3053";
shapes = (
{
closed = 1;
nodes = (
(167,59,o),
(150,84,o),
(150,112,cs),
(150,154,o),
(173,171,o),
(208,179,cs),
(260,190,l),
(260,88,l),
(239,70,o),
(213,59,o),
(193,59,cs)
);
},
{
closed = 1;
nodes = (
(380,390,o),
(331,437,o),
(223,437,cs),
(176,437,o),
(84,400,o),
(47,383,c),
(48,354,o),
(69,286,o),
(77,261,c),
(139,278,l),
(139,300,o),
(139,348,o),
(145,369,c),
(157,375,o),
(181,382,o),
(204,382,cs),
(251,382,o),
(260,340,o),
(260,277,cs),
(260,230,l),
(193,222,ls),
(101,211,o),
(30,187,o),
(30,100,cs),
(30,31,o),
(80,-16,o),
(158,-16,cs),
(185,-16,o),
(212,-3,o),
(263,48,c),
(271,18,o),
(292,-2,o),
(315,-16,c),
(360,-2,o),
(401,10,o),
(450,18,c),
(441,52,l),
(441,52,o),
(427,52,o),
(416,54,cs),
(394,57,o),
(380,62,o),
(380,92,cs),
(380,291,ls)
);
}
);
width = 459;
}
);
unicode = 97;
},
{
glyphname = ae;
lastChange = "2024-04-18 14:46:39 +0000";
layers = (
{
layerId = "619f1a1e-fd92-11ee-b280-8aa624eb3053";
shapes = (
{
closed = 1;
nodes = (
(363,286,ls),
(363,385,o),
(321,432,o),
(221,432,cs),
(178,432,o),
(98,398,o),
(65,383,c),
(68,359,o),
(82,295,o),
(88,276,c),
(129,286,l),
(129,307,o),
(129,354,o),
(133,374,c),
(146,381,o),
(177,387,o),
(202,387,cs),
(269,387,o),
(283,341,o),
(283,272,cs),
(283,227,l),
(191,217,ls),
(108,209,o),
(44,182,o),
(44,100,cs),
(44,31,o),
(87,-16,o),
(156,-16,cs),
(222,-16,o),
(288,45,o),
(333,89,c),
(313,111,l),
(284,80,o),
(230,44,o),
(191,44,cs),
(153,44,o),
(127,75,o),
(127,112,cs),
(127,157,o),
(159,176,o),
(206,184,cs),
(283,198,l),
(363,82,l)
);
},
{
closed = 1;
nodes = (
(642,348,o),
(590,432,o),
(472,432,cs),
(355,432,o),
(283,322,o),
(283,200,cs),
(283,68,o),
(359,-16,o),
(474,-16,cs),
(512,-16,o),
(563,-5,o),
(640,68,c),
(624,90,l),
(593,67,o),
(549,47,o),
(507,47,cs),
(421,47,o),
(371,102,o),
(366,210,c),
(642,230,l)
);
},
{
closed = 1;
nodes = (
(531,391,o),
(552,332,o),
(552,270,c),
(366,246,l),
(366,316,o),
(394,391,o),
(466,391,cs)
);
}
);
width = 679;
},
{
layerId = "66e3d46a-fd92-11ee-8244-8aa624eb3053";
shapes = (
{
closed = 1;
nodes = (
(384,291,ls),
(384,390,o),
(338,437,o),
(222,437,cs),
(178,437,o),
(95,400,o),
(61,383,c),
(64,358,o),
(78,291,o),
(84,271,c),
(140,285,l),
(140,305,o),
(140,345,o),
(144,364,c),
(155,370,o),
(182,377,o),
(203,377,cs),
(262,377,o),
(274,337,o),
(274,277,cs),
(274,232,l),
(192,222,ls),
(100,211,o),
(30,186,o),
(30,100,cs),
(30,31,o),
(79,-16,o),
(157,-16,cs),
(223,-16,o),
(289,42,o),
(334,84,c),
(314,116,l),
(286,87,o),
(234,54,o),
(197,54,cs),
(171,54,o),
(153,81,o),
(153,112,cs),
(153,154,o),
(175,172,o),
(207,179,cs),
(274,193,l),
(384,82,l)
);
},
{
closed = 1;
nodes = (
(658,351,o),
(600,437,o),
(473,437,cs),
(350,437,o),
(274,323,o),
(274,195,cs),
(274,66,o),
(354,-16,o),
(475,-16,cs),
(515,-16,o),
(570,-4,o),
(651,73,c),
(633,100,l),
(600,77,o),
(554,57,o),
(508,57,cs),
(437,57,o),
(397,108,o),
(392,210,c),
(658,230,l)
);
},
{
closed = 1;
nodes = (
(512,386,o),
(528,331,o),
(528,275,c),
(392,256,l),
(392,320,o),
(414,386,o),
(467,386,cs)
);
}
);
width = 680;
}
);
unicode = 230;
},
{
glyphname = b;
lastChange = "2024-04-18 14:46:39 +0000";
layers = (
{
layerId = "619f1a1e-fd92-11ee-b280-8aa624eb3053";
shapes = (
{
closed = 1;
nodes = (
(385,-16,o),
(475,86,o),
(475,224,cs),
(475,348,o),
(422,432,o),
(308,432,cs),
(240,432,o),
(163,375,o),
(163,375,c),
(163,602,ls),
(163,643,o),
(164,674,o),
(171,700,c),
(156,718,l),
(118,715,o),
(48,697,o),
(10,680,c),
(16,650,l),
(16,650,o),
(41,656,o),
(58,656,cs),
(80,656,o),
(83,644,o),
(83,622,cs),
(83,25,l),
(134,4,o),
(201,-16,o),
(261,-16,cs)
);
},
{
closed = 1;
nodes = (
(342,373,o),
(386,322,o),
(386,201,cs),
(386,77,o),
(331,25,o),
(265,25,cs),
(206,25,o),
(163,57,o),
(163,107,cs),
(163,336,l),
(163,336,o),
(208,373,o),
(267,373,cs)
);
}
);
width = 517;
},
{
layerId = "66e3d46a-fd92-11ee-8244-8aa624eb3053";
shapes = (
{
closed = 1;
nodes = (
(388,-16,o),
(484,88,o),
(484,229,cs),
(484,353,o),
(425,437,o),
(302,437,cs),
(247,437,o),
(182,383,o),
(182,383,c),
(182,602,ls),
(182,641,o),
(182,670,o),
(195,695,c),
(175,718,l),
(130,715,o),
(39,695,o),
(-6,678,c),
(0,640,l),
(0,640,o),
(22,645,o),
(37,645,cs),
(59,645,o),
(62,634,o),
(62,612,cs),
(62,25,l),
(116,4,o),
(189,-16,o),
(255,-16,cs)
);
},
{
closed = 1;
nodes = (
(321,363,o),
(355,316,o),
(355,206,cs),
(355,90,o),
(310,40,o),
(259,40,cs),
(215,40,o),
(182,66,o),
(182,107,cs),
(182,337,l),
(182,337,o),
(217,363,o),
(261,363,cs)
);
}
);
width = 515;
}
);
unicode = 98;
},
{
glyphname = c;
lastChange = "2024-04-18 14:46:39 +0000";
layers = (
{
anchors = (
{
name = bottom;
pos = (242,0);
}
);
layerId = "619f1a1e-fd92-11ee-b280-8aa624eb3053";
shapes = (
{
closed = 1;
nodes = (
(374,285,o),
(395,368,o),
(398,394,c),
(371,406,o),
(289,432,o),
(243,432,cs),
(115,432,o),
(42,324,o),
(42,200,cs),
(42,68,o),
(124,-16,o),
(242,-16,cs),
(288,-16,o),
(339,5,o),
(405,64,c),
(389,88,l),
(357,66,o),
(313,47,o),
(275,47,cs),
(189,47,o),
(131,105,o),
(131,223,cs),
(131,321,o),
(158,390,o),
(235,390,cs),
(275,390,o),
(304,381,o),
(318,371,c),
(327,354,o),
(330,295,o),
(328,265,c),
(362,259,l)
);
}
);
width = 435;
},
{
anchors = (
{
name = bottom;
pos = (246,0);
}
);
layerId = "66e3d46a-fd92-11ee-8244-8aa624eb3053";
shapes = (
{
closed = 1;
nodes = (
(388,282,o),
(409,371,o),
(412,399,c),
(383,411,o),
(295,437,o),
(247,437,cs),
(110,437,o),
(31,329,o),
(31,205,cs),
(31,70,o),
(119,-16,o),
(246,-16,cs),
(294,-16,o),
(348,6,o),
(418,69,c),
(398,98,l),
(365,79,o),
(319,62,o),
(279,62,cs),
(208,62,o),
(160,116,o),
(160,228,cs),
(160,320,o),
(182,385,o),
(239,385,cs),
(275,385,o),
(300,376,o),
(312,368,c),
(321,352,o),
(325,292,o),
(322,264,c),
(376,254,l)
);
}
);
width = 437;
}
);
unicode = 99;
},
{
glyphname = d;
lastChange = "2024-04-18 14:46:39 +0000";
layers = (
{
layerId = "619f1a1e-fd92-11ee-b280-8aa624eb3053";
shapes = (
{
closed = 1;
nodes = (
(432,602,ls),
(432,643,o),
(433,674,o),
(439,700,c),
(424,718,l),
(385,715,o),
(305,698,o),
(266,680,c),
(271,650,l),
(271,650,o),
(315,659,o),
(334,656,cs),
(348,654,o),
(352,641,o),
(352,622,cs),
(352,411,l),
(329,422,o),
(291,432,o),
(258,432,cs),
(124,432,o),
(42,331,o),
(42,192,cs),
(42,68,o),
(103,-16,o),
(223,-16,cs),
(258,-16,o),
(294,2,o),
(355,52,c),
(362,21,o),
(381,-1,o),
(401,-16,c),
(435,-2,o),
(482,11,o),
(518,18,c),
(511,48,l),
(494,46,o),
(463,46,o),
(448,52,cs),
(437,57,o),
(432,72,o),
(432,85,cs)
);
},
{
closed = 1;
nodes = (
(182,43,o),
(131,94,o),
(131,215,cs),
(131,338,o),
(182,391,o),
(249,391,cs),
(286,391,o),
(329,368,o),
(352,332,c),
(352,83,l),
(315,54,o),
(284,43,o),
(254,43,cs)
);
}
);
width = 528;
},
{
layerId = "66e3d46a-fd92-11ee-8244-8aa624eb3053";
shapes = (
{
closed = 1;
nodes = (
(461,602,ls),
(461,641,o),
(461,670,o),
(473,695,c),
(453,718,l),
(407,715,o),
(306,695,o),
(260,675,c),
(267,635,l),
(280,638,o),
(299,644,o),
(323,644,cs),
(337,644,o),
(341,629,o),
(341,607,cs),
(341,419,l),
(323,430,o),
(293,437,o),
(272,437,cs),
(129,437,o),
(41,336,o),
(41,197,cs),
(41,70,o),
(106,-16,o),
(232,-16,cs),
(268,-16,o),
(304,4,o),
(344,49,c),
(352,20,o),
(373,-2,o),
(395,-16,c),
(434,-2,o),
(491,11,o),
(537,18,c),
(530,53,l),
(515,53,o),
(490,53,o),
(477,62,c),
(466,67,o),
(461,82,o),
(461,95,cs)
);
},
{
closed = 1;
nodes = (
(211,58,o),
(170,107,o),
(170,220,cs),
(170,332,o),
(211,381,o),
(263,381,cs),
(290,381,o),
(323,360,o),
(341,333,c),
(341,87,l),
(314,65,o),
(290,58,o),
(268,58,cs)
);
}
);
width = 542;
}
);
unicode = 100;
},
{
glyphname = eth;
lastChange = "2024-04-18 14:46:39 +0000";
layers = (
{
layerId = "619f1a1e-fd92-11ee-b280-8aa624eb3053";
shapes = (
{
closed = 1;
nodes = (
(3,72,o),
(74,-16,o),
(212,-16,cs),
(384,-16,o),
(421,133,o),
(421,290,cs),
(421,554,o),
(236,711,o),
(63,718,c),
(60,686,l),
(209,662,o),
(289,540,o),
(314,400,c),
(285,420,o),
(250,432,o),
(211,432,cs),
(86,432,o),
(3,334,o),
(3,197,cs)
);
},
{
closed = 1;
nodes = (
(92,334,o),
(127,391,o),
(197,391,cs),
(248,391,o),
(294,366,o),
(319,320,c),
(325,288,o),
(326,248,o),
(326,197,cs),
(326,81,o),
(292,25,o),
(225,25,cs),
(142,25,o),
(92,93,o),
(92,219,cs)
);
},
{
closed = 1;
nodes = (
(128,509,l),
(393,661,l),
(379,701,l),
(114,549,l)
);
}
);
width = 460;
},
{
layerId = "66e3d46a-fd92-11ee-8244-8aa624eb3053";
shapes = (
{
closed = 1;
nodes = (
(-12,72,o),
(65,-16,o),
(212,-16,cs),
(396,-16,o),
(436,133,o),
(436,290,cs),
(436,554,o),
(239,711,o),
(58,718,c),
(53,680,l),
(190,656,o),
(264,540,o),
(288,404,c),
(276,417,o),
(238,432,o),
(211,432,cs),
(77,432,o),
(-12,334,o),
(-12,197,cs)
);
},
{
closed = 1;
nodes = (
(117,325,o),
(142,376,o),
(197,376,cs),
(238,376,o),
(274,355,o),
(294,315,c),
(300,284,o),
(301,246,o),
(301,197,cs),
(301,87,o),
(277,35,o),
(225,35,cs),
(157,35,o),
(117,99,o),
(117,219,cs)
);
},
{
closed = 1;
nodes = (
(127,505,l),
(397,661,l),
(381,708,l),
(111,552,l)
);
}
);
width = 460;
}
);
unicode = 240;
},
{
glyphname = e;
lastChange = "2024-04-18 14:46:39 +0000";
layers = (
{
anchors = (
{
name = top;
pos = (240,0);
}
);
layerId = "619f1a1e-fd92-11ee-b280-8aa624eb3053";
shapes = (
{
closed = 1;
nodes = (
(413,348,o),
(361,432,o),
(240,432,cs),
(118,432,o),
(42,322,o),
(42,200,cs),
(42,68,o),
(121,-16,o),
(242,-16,cs),
(281,-16,o),
(332,-5,o),
(411,68,c),
(395,90,l),
(363,67,o),
(319,47,o),
(275,47,cs),
(186,47,o),
(136,102,o),
(131,210,c),
(413,230,l)
);
},
{
closed = 1;
nodes = (
(303,391,o),
(323,332,o),
(323,270,c),
(131,246,l),
(131,316,o),
(158,391,o),
(234,391,cs)
);
}
);
width = 450;
},
{
anchors = (
{
name = top;
pos = (240,0);
}
);
layerId = "66e3d46a-fd92-11ee-8244-8aa624eb3053";
shapes = (
{
closed = 1;
nodes = (
(428,349,o),
(370,437,o),
(240,437,cs),
(109,437,o),
(27,327,o),
(27,205,cs),
(27,70,o),
(112,-16,o),
(242,-16,cs),
(283,-16,o),
(338,-4,o),
(421,73,c),
(400,105,l),
(367,82,o),
(321,62,o),
(275,62,cs),
(201,62,o),
(161,111,o),
(156,207,c),
(428,225,l)
);
},
{
closed = 1;
nodes = (
(283,386,o),
(298,330,o),
(298,275,c),
(156,255,l),
(156,319,o),
(178,386,o),
(234,386,cs)
);
}
);
width = 450;
}
);
unicode = 101;
},
{
glyphname = f;
lastChange = "2024-04-18 14:46:39 +0000";
layers = (
{
layerId = "619f1a1e-fd92-11ee-b280-8aa624eb3053";
shapes = (
{
closed = 1;
nodes = (
(107,372,l),
(107,66,ls),
(107,49,o),
(106,45,o),
(92,37,c),
(73,28,o),
(34,22,o),
(34,22,c),
(42,-8,l),
(93,-3,o),
(121,0,o),
(147,0,cs),
(174,0,o),
(215,-3,o),
(268,-8,c),
(276,22,l),
(276,22,o),
(223,29,o),
(204,38,cs),
(189,46,o),
(187,50,o),
(187,67,cs),
(187,370,l),
(297,367,l),
(306,420,l),
(187,412,l),
(187,531,ls),
(187,593,o),
(205,675,o),
(267,675,cs),
(316,675,o),
(342,625,o),
(342,573,c),
(371,575,l),
(381,602,o),
(401,666,o),
(406,700,c),
(369,710,o),
(321,718,o),
(296,718,cs),
(170,718,o),
(107,600,o),
(107,474,cs),
(107,416,l),
(41,401,l),
(44,373,l)
);
}
);
width = 327;
},
{
layerId = "66e3d46a-fd92-11ee-8244-8aa624eb3053";
shapes = (
{
closed = 1;
nodes = (
(95,367,l),
(95,76,ls),
(95,59,o),
(93,54,o),
(80,46,cs),
(63,35,o),
(27,27,o),
(27,27,c),
(35,-9,l),
(90,-4,o),
(122,0,o),
(150,0,cs),
(181,0,o),
(230,-4,o),
(291,-9,c),
(299,27,l),
(299,27,o),
(251,36,o),
(232,47,cs),
(217,56,o),
(215,60,o),
(215,77,cs),
(215,365,l),
(318,361,l),
(327,426,l),
(215,416,l),
(215,536,ls),
(215,592,o),
(229,665,o),
(275,665,cs),
(318,665,o),
(336,624,o),
(336,573,c),
(377,565,l),
(388,593,o),
(413,660,o),
(419,695,c),
(380,708,o),
(330,718,o),
(304,718,cs),
(166,718,o),
(95,602,o),
(95,479,cs),
(95,422,l),
(34,407,l),
(39,367,l)
);
}
);
width = 326;
}
);
unicode = 102;
},
{
glyphname = g;
lastChange = "2024-04-18 14:53:46 +0000";
layers = (
{
layerId = "619f1a1e-fd92-11ee-b280-8aa624eb3053";
shapes = (
{
closed = 1;
nodes = (
(66,66,o),
(62,50,o),
(62,45,cs),
(62,16,o),
(83,-7,o),
(128,-19,c),
(29,-94,l),
(23,-106,o),
(20,-126,o),
(20,-140,cs),
(20,-220,o),
(90,-260,o),
(194,-260,cs),
(308,-260,o),
(448,-184,o),
(448,-75,cs),
(448,-16,o),
(405,29,o),
(319,36,cs),
(220,43,ls),
(159,47,o),
(144,58,o),
(144,75,cs),
(144,91,o),
(164,107,o),
(186,124,c),
(186,124,o),
(202,120,o),
(225,120,cs),
(327,120,o),
(407,175,o),
(407,277,cs),
(407,343,o),
(367,379,o),
(367,379,c),
(399,376,o),
(434,377,o),
(452,380,c),
(463,428,l),
(450,442,l),
(421,429,o),
(372,416,o),
(339,412,c),
(326,410,l),
(326,410,o),
(289,432,o),
(230,432,cs),
(128,432,o),
(48,379,o),
(48,277,cs),
(48,166,o),
(147,134,o),
(147,134,c),
(69,72,l)
);
},
{
closed = 1;
nodes = (
(359,-41,o),
(381,-68,o),
(381,-110,cs),
(381,-170,o),
(319,-211,o),
(235,-211,cs),
(152,-211,o),
(100,-173,o),
(100,-125,cs),
(100,-90,o),
(122,-68,o),
(172,-27,c),
(292,-36,ls)
);
},
{
closed = 1;
nodes = (
(132,348,o),
(159,394,o),
(225,394,cs),
(290,394,o),
(322,336,o),
(322,270,cs),
(322,205,o),
(295,159,o),
(230,159,cs),
(164,159,o),
(132,217,o),
(132,283,cs)
);
}
);
width = 471;
},
{
layerId = "66e3d46a-fd92-11ee-8244-8aa624eb3053";
shapes = (
{
closed = 1;
nodes = (
(46,66,o),
(43,50,o),
(43,45,cs),
(43,10,o),
(59,-19,o),
(99,-34,c),
(15,-94,l),
(8,-106,o),
(6,-126,o),
(6,-140,cs),
(6,-220,o),
(82,-260,o),
(195,-260,cs),
(315,-260,o),
(464,-184,o),
(464,-75,cs),
(464,-13,o),
(415,34,o),
(320,41,cs),
(221,48,ls),
(168,51,o),
(155,61,o),
(155,75,cs),
(155,91,o),
(172,106,o),
(192,123,c),
(196,122,o),
(206,120,o),
(226,120,cs),
(337,120,o),
(423,176,o),
(423,281,cs),
(423,319,o),
(408,351,o),
(385,376,c),
(415,374,o),
(447,374,o),
(464,377,c),
(480,434,l),
(462,453,l),
(429,438,o),
(371,424,o),
(338,421,c),
(316,421,l),
(289,432,o),
(260,437,o),
(231,437,cs),
(120,437,o),
(34,383,o),
(34,281,cs),
(34,170,o),
(139,137,o),
(139,137,c),
(50,72,l)
);
},
{
closed = 1;
nodes = (
(340,-70,o),
(357,-86,o),
(357,-110,cs),
(357,-164,o),
(305,-201,o),
(236,-201,cs),
(168,-201,o),
(126,-167,o),
(126,-125,cs),
(126,-100,o),
(137,-83,o),
(163,-52,c),
(293,-66,ls)
);
},
{
closed = 1;
nodes = (
(158,346,o),
(178,389,o),
(226,389,cs),
(276,389,o),
(298,334,o),
(298,274,cs),
(298,212,o),
(278,169,o),
(231,169,cs),
(180,169,o),
(158,224,o),
(158,287,cs)
);
}
);
width = 471;
}
);
unicode = 103;
},
{
glyphname = h;
lastChange = "2024-04-18 14:46:39 +0000";
layers = (
{
layerId = "619f1a1e-fd92-11ee-b280-8aa624eb3053";
shapes = (
{
closed = 1;
nodes = (
(474,392,o),
(426,432,o),
(341,432,cs),
(300,432,o),
(258,414,o),
(224,387,cs),
(187,358,l),
(187,602,ls),
(187,643,o),
(188,674,o),
(194,700,c),
(180,718,l),
(141,715,o),
(67,697,o),
(29,680,c),
(34,650,l),
(34,650,o),
(75,658,o),
(90,655,cs),
(105,652,o),
(107,641,o),
(107,622,cs),
(107,66,ls),
(107,49,o),
(106,45,o),
(92,37,c),
(73,28,o),
(34,22,o),
(34,22,c),
(42,-8,l),
(93,-3,o),
(119,0,o),
(146,0,cs),
(172,0,o),
(198,-3,o),
(249,-8,c),
(256,21,l),
(256,21,o),
(222,27,o),
(203,36,cs),
(188,44,o),
(187,48,o),
(187,64,cs),
(187,321,l),
(219,346,o),
(261,371,o),
(302,371,cs),
(371,371,o),
(394,337,o),
(394,261,cs),
(394,64,ls),
(394,48,o),
(393,44,o),
(379,36,c),
(360,27,o),
(326,21,o),
(326,21,c),
(333,-8,l),
(384,-3,o),
(410,0,o),
(436,0,cs),
(463,0,o),
(489,-3,o),
(540,-8,c),
(547,22,l),
(547,22,o),
(509,28,o),
(490,37,cs),
(475,45,o),
(474,49,o),
(474,66,cs),
(474,281,ls)
);
}
);
width = 567;
},
{
layerId = "66e3d46a-fd92-11ee-8244-8aa624eb3053";
shapes = (
{
closed = 1;
nodes = (
(491,397,o),
(437,437,o),
(343,437,cs),
(311,437,o),
(277,419,o),
(246,393,cs),
(214,366,l),
(214,602,ls),
(214,641,o),
(214,670,o),
(226,695,c),
(207,718,l),
(162,715,o),
(68,694,o),
(24,675,c),
(31,635,l),
(31,635,o),
(54,642,o),
(69,642,cs),
(92,642,o),
(94,622,o),
(94,607,cs),
(94,76,ls),
(94,59,o),
(92,54,o),
(79,46,c),
(62,34,o),
(26,27,o),
(26,27,c),
(35,-9,l),
(90,-4,o),
(119,0,o),
(148,0,cs),
(177,0,o),
(206,-4,o),
(263,-9,c),
(271,26,l),
(271,26,o),
(246,33,o),
(230,44,cs),
(216,54,o),
(214,58,o),
(214,74,cs),
(214,322,l),
(241,341,o),
(273,361,o),
(304,361,cs),
(353,361,o),
(371,332,o),
(371,266,cs),
(371,74,ls),
(371,58,o),
(368,53,o),
(356,44,cs),
(340,33,o),
(315,26,o),
(315,26,c),
(323,-9,l),
(380,-4,o),
(409,0,o),
(438,0,cs),
(467,0,o),
(496,-4,o),
(551,-9,c),
(559,27,l),
(559,27,o),
(524,35,o),
(507,46,cs),
(492,55,o),
(491,59,o),
(491,76,cs),
(491,286,ls)
);
}
);
width = 570;
}
);
unicode = 104;
},
{
glyphname = i;
lastChange = "2024-04-18 14:53:16 +0000";
layers = (
{
layerId = "619f1a1e-fd92-11ee-b280-8aa624eb3053";
shapes = (
{
closed = 1;
nodes = (
(187,357,o),
(191,387,o),
(198,414,c),
(183,432,l),
(147,432,o),
(76,415,o),
(37,399,c),
(43,369,l),
(43,369,o),
(74,376,o),
(90,373,cs),
(102,371,o),
(107,363,o),
(107,341,cs),
(107,66,ls),
(107,49,o),
(106,45,o),
(92,37,c),
(73,28,o),
(34,22,o),
(34,22,c),
(42,-8,l),
(83,-3,o),
(121,0,o),
(147,0,cs),
(174,0,o),
(211,-3,o),
(253,-8,c),
(260,22,l),
(260,22,o),
(222,28,o),
(203,37,cs),
(188,45,o),
(187,49,o),
(187,66,cs),
(187,316,ls)
);
},
{
closed = 1;
nodes = (
(72,567,o),
(96,544,o),
(130,544,cs),
(165,544,o),
(189,567,o),
(189,599,cs),
(189,631,o),
(165,655,o),
(130,655,cs),
(95,655,o),
(72,631,o),
(72,599,cs)
);
}
);
width = 284;
},
{
layerId = "66e3d46a-fd92-11ee-8244-8aa624eb3053";
shapes = (
{
closed = 1;
nodes = (
(217,360,o),
(223,388,o),
(233,414,c),
(213,437,l),
(169,437,o),
(74,414,o),
(27,394,c),
(35,354,l),
(35,354,o),
(54,361,o),
(70,361,cs),
(94,361,o),
(97,342,o),
(97,326,cs),
(97,76,ls),
(97,59,o),
(95,55,o),
(82,47,c),
(65,35,o),
(29,27,o),
(29,27,c),
(37,-9,l),
(84,-4,o),
(128,0,o),
(157,0,cs),
(187,0,o),
(230,-4,o),
(278,-9,c),
(285,27,l),
(285,27,o),
(250,35,o),
(233,47,c),
(218,55,o),
(217,59,o),
(217,76,cs),
(217,321,ls)
);
},
{
closed = 1;
nodes = (
(62,550,o),
(94,522,o),
(140,522,cs),
(187,522,o),
(219,550,o),
(219,591,cs),
(219,632,o),
(187,660,o),
(140,660,cs),
(93,660,o),
(62,632,o),
(62,591,cs)
);
}
);
width = 298;
}
);
unicode = 105;
},
{
glyphname = dotlessi;
lastChange = "2024-04-18 15:00:32 +0000";
layers = (
{
anchors = (
{
name = top;
pos = (140,0);
}
);
layerId = "619f1a1e-fd92-11ee-b280-8aa624eb3053";
shapes = (
{
closed = 1;
nodes = (
(187,357,o),
(191,387,o),
(198,414,c),
(183,432,l),
(147,432,o),
(76,415,o),
(37,399,c),
(43,369,l),
(43,369,o),
(74,376,o),
(90,373,cs),
(102,371,o),
(107,363,o),
(107,341,cs),
(107,66,ls),
(107,49,o),
(106,45,o),
(92,37,c),
(73,28,o),
(34,22,o),
(34,22,c),
(42,-8,l),
(83,-3,o),
(121,0,o),
(147,0,cs),
(174,0,o),
(211,-3,o),
(253,-8,c),
(260,22,l),
(260,22,o),
(222,28,o),
(203,37,cs),
(188,45,o),
(187,49,o),
(187,66,cs),
(187,316,ls)
);
}
);
width = 284;
},
{
anchors = (
{
name = top;
pos = (144,0);
}
);
layerId = "66e3d46a-fd92-11ee-8244-8aa624eb3053";
shapes = (
{
closed = 1;
nodes = (
(217,360,o),
(223,388,o),
(233,414,c),
(213,437,l),
(169,437,o),
(74,414,o),
(27,394,c),
(35,354,l),
(35,354,o),
(54,361,o),
(70,361,cs),
(94,361,o),
(97,342,o),
(97,326,cs),
(97,76,ls),
(97,59,o),
(95,55,o),
(82,47,c),
(65,35,o),
(29,27,o),
(29,27,c),
(37,-9,l),
(84,-4,o),
(128,0,o),
(157,0,cs),
(187,0,o),
(230,-4,o),
(278,-9,c),
(285,27,l),
(285,27,o),
(250,35,o),
(233,47,c),
(218,55,o),
(217,59,o),
(217,76,cs),
(217,321,ls)
);
}
);
width = 298;
}
);
unicode = 305;
},
{
glyphname = j;
lastChange = "2024-04-18 14:53:28 +0000";
layers = (
{
layerId = "619f1a1e-fd92-11ee-b280-8aa624eb3053";
shapes = (
{
closed = 1;
nodes = (
(60,567,o),
(84,544,o),
(118,544,cs),
(153,544,o),
(177,567,o),
(177,599,cs),
(177,631,o),
(153,655,o),
(118,655,cs),
(83,655,o),
(60,631,o),
(60,599,cs)
);
},
{
closed = 1;
nodes = (
(95,-58,o),
(93,-83,o),
(88,-103,cs),
(73,-153,o),
(37,-211,o),
(14,-239,c),
(35,-260,l),
(72,-224,o),
(130,-164,o),
(162,-96,cs),
(172,-75,o),
(175,-36,o),
(175,2,cs),
(175,316,ls),
(175,357,o),
(179,387,o),
(185,414,c),
(171,432,l),
(134,432,o),
(64,415,o),
(25,399,c),
(30,369,l),
(30,369,o),
(62,376,o),
(78,373,cs),
(90,371,o),
(95,363,o),
(95,341,cs),
(95,-28,ls)
);
}
);
width = 249;
},
{
layerId = "66e3d46a-fd92-11ee-8244-8aa624eb3053";
shapes = (
{
closed = 1;
nodes = (
(52,550,o),
(84,522,o),
(130,522,cs),
(177,522,o),
(209,550,o),
(209,591,cs),
(209,632,o),
(177,660,o),
(130,660,cs),
(83,660,o),
(52,632,o),
(52,591,cs)
);
},
{
closed = 1;
nodes = (
(87,-58,o),
(86,-83,o),
(80,-103,cs),
(66,-152,o),
(26,-207,o),
(1,-234,c),
(27,-260,l),
(72,-224,o),
(154,-164,o),
(194,-96,c),
(204,-75,o),
(207,-36,o),
(207,2,cs),
(207,321,ls),
(207,360,o),
(213,388,o),
(223,414,c),
(203,437,l),
(159,437,o),
(64,414,o),
(17,394,c),
(25,354,l),
(25,354,o),
(44,361,o),
(60,361,cs),
(84,361,o),
(87,342,o),
(87,326,cs),
(87,-28,ls)
);
}
);
width = 272;
}
);
unicode = 106;
},
{
glyphname = dotlessj;
lastChange = "2024-04-18 14:46:39 +0000";
layers = (
{
anchors = (
{
name = top;
pos = (124,0);
}
);
layerId = "619f1a1e-fd92-11ee-b280-8aa624eb3053";
shapes = (
{
closed = 1;
nodes = (
(95,-58,o),
(93,-83,o),
(88,-103,cs),
(73,-153,o),
(37,-211,o),
(14,-239,c),
(35,-260,l),
(72,-224,o),
(130,-164,o),
(162,-96,cs),
(172,-75,o),
(175,-36,o),
(175,2,cs),
(175,316,ls),
(175,357,o),
(179,387,o),
(185,414,c),
(171,432,l),
(134,432,o),
(64,415,o),
(25,399,c),
(30,369,l),
(30,369,o),
(62,376,o),
(78,373,cs),
(90,371,o),
(95,363,o),
(95,341,cs),
(95,-28,ls)
);
}
);
width = 249;
},
{
anchors = (
{
name = top;
pos = (128,0);
}
);
layerId = "66e3d46a-fd92-11ee-8244-8aa624eb3053";
shapes = (
{
closed = 1;
nodes = (
(87,-58,o),
(86,-83,o),
(80,-103,cs),
(66,-152,o),
(26,-207,o),
(1,-234,c),
(27,-260,l),
(72,-224,o),
(154,-164,o),
(194,-96,c),
(204,-75,o),
(207,-36,o),
(207,2,cs),
(207,321,ls),
(207,360,o),
(213,388,o),
(223,414,c),
(203,437,l),
(159,437,o),
(64,414,o),
(17,394,c),
(25,354,l),
(25,354,o),
(44,361,o),
(60,361,cs),
(84,361,o),
(87,342,o),
(87,326,cs),
(87,-28,ls)
);
}
);
width = 272;
}
);
unicode = 567;
},
{
glyphname = k;
lastChange = "2024-04-18 14:54:20 +0000";
layers = (
{
layerId = "619f1a1e-fd92-11ee-b280-8aa624eb3053";
shapes = (
{
closed = 1;
nodes = (
(358,53,o),
(359,43,o),
(355,36,cs),
(350,28,o),
(334,23,o),
(325,22,c),
(332,-8,l),
(355,-4,o),
(393,0,o),
(418,0,cs),
(445,0,o),
(492,-4,o),
(517,-8,c),
(524,22,l),
(524,22,o),
(503,26,o),
(489,32,cs),
(476,37,o),
(461,49,o),
(445,66,cs),
(270,251,l),
(396,361,ls),
(410,374,o),
(424,383,o),
(438,387,cs),
(450,390,o),
(474,393,o),
(474,393,c),
(477,423,l),
(452,419,o),
(410,417,o),
(387,417,cs),
(363,417,o),
(331,419,o),
(304,423,c),
(307,394,l),
(321,393,o),
(337,390,o),
(341,385,c),
(345,379,o),
(340,368,o),
(331,360,cs),
(187,236,l),
(187,603,ls),
(187,643,o),
(188,674,o),
(194,700,c),
(180,718,l),
(141,716,o),
(67,697,o),
(29,681,c),
(34,650,l),
(34,650,o),
(75,659,o),
(90,656,c),
(105,652,o),
(107,641,o),
(107,622,cs),
(107,66,ls),
(107,49,o),
(106,45,o),
(92,37,c),
(73,28,o),
(34,22,o),
(34,22,c),
(42,-8,l),
(91,-3,o),
(121,0,o),
(147,0,cs),
(174,0,o),
(188,-3,o),
(241,-8,c),
(249,22,l),
(249,22,o),
(222,28,o),
(203,37,cs),
(188,45,o),
(187,49,o),
(187,66,cs),
(187,234,l),
(346,66,ls)
);
}
);
width = 513;
},
{
layerId = "66e3d46a-fd92-11ee-8244-8aa624eb3053";
shapes = (
{
closed = 1;
nodes = (
(366,61,o),
(371,55,o),
(371,48,cs),
(371,36,o),
(349,28,o),
(340,27,c),
(348,-9,l),
(374,-5,o),
(420,0,o),
(448,0,cs),
(479,0,o),
(537,-5,o),
(566,-9,c),
(574,27,l),
(574,27,o),
(548,33,o),
(532,42,cs),
(520,48,o),
(507,58,o),
(491,76,cs),
(325,256,l),
(443,359,ls),
(457,371,o),
(473,382,o),
(488,386,cs),
(498,388,o),
(509,391,o),
(519,393,c),
(522,428,l),
(494,424,o),
(443,422,o),
(417,422,cs),
(391,422,o),
(355,422,o),
(324,428,c),
(327,394,l),
(335,393,o),
(357,392,o),
(357,381,cs),
(357,375,o),
(347,366,o),
(338,358,cs),
(217,254,l),
(217,602,ls),
(217,641,o),
(223,669,o),
(233,695,c),
(213,718,l),
(169,718,o),
(74,695,o),
(27,675,c),
(35,635,l),
(35,635,o),
(54,642,o),
(70,642,cs),
(94,642,o),
(97,623,o),
(97,607,cs),
(97,76,ls),
(97,59,o),
(95,55,o),
(82,47,cs),
(65,35,o),
(29,27,o),
(29,27,c),
(37,-9,l),
(84,-4,o),
(128,0,o),
(157,0,cs),
(186,0,o),
(227,-4,o),
(273,-9,c),
(280,27,l),
(280,27,o),
(249,35,o),
(233,46,cs),
(219,55,o),
(217,59,o),
(217,76,cs),
(217,224,l),
(352,76,ls)
);
}
);
width = 565;
}
);
unicode = 107;
},
{
glyphname = l;
lastChange = "2024-04-18 14:46:39 +0000";
layers = (
{
layerId = "619f1a1e-fd92-11ee-b280-8aa624eb3053";
shapes = (
{
closed = 1;
nodes = (
(186,643,o),
(188,674,o),
(194,700,c),
(180,718,l),
(141,716,o),
(67,697,o),
(29,681,c),
(34,650,l),
(34,650,o),
(75,659,o),
(90,656,c),
(105,652,o),
(107,641,o),
(107,622,cs),
(107,66,ls),
(107,49,o),
(106,45,o),
(92,37,c),
(73,28,o),
(34,22,o),
(34,22,c),
(42,-8,l),
(93,-3,o),
(121,0,o),
(147,0,cs),
(174,0,o),
(200,-3,o),
(253,-8,c),
(260,22,l),
(260,22,o),
(222,28,o),
(203,37,cs),
(188,45,o),
(187,49,o),
(187,66,cs),
(187,603,ls)
);
}
);
width = 284;
},
{
layerId = "66e3d46a-fd92-11ee-8244-8aa624eb3053";
shapes = (
{
closed = 1;
nodes = (
(217,641,o),
(223,669,o),
(233,695,c),
(213,718,l),
(169,718,o),
(74,695,o),
(27,675,c),
(35,635,l),
(35,635,o),
(54,642,o),
(70,642,cs),
(94,642,o),
(97,623,o),
(97,607,cs),
(97,76,ls),
(97,59,o),
(95,55,o),
(82,47,c),
(65,35,o),
(29,27,o),
(29,27,c),
(37,-9,l),
(84,-4,o),
(128,0,o),
(157,0,cs),
(187,0,o),
(230,-4,o),
(278,-9,c),
(285,27,l),
(285,27,o),
(250,35,o),
(233,47,c),
(218,55,o),
(217,59,o),
(217,76,cs),
(217,602,ls)
);
}
);
width = 298;
}
);
unicode = 108;
},
{
glyphname = m;
lastChange = "2024-04-18 14:57:59 +0000";
layers = (
{
layerId = "619f1a1e-fd92-11ee-b280-8aa624eb3053";
shapes = (
{
closed = 1;
nodes = (
(181,373,o),
(176,393,o),
(176,414,c),
(160,432,l),
(124,428,o),
(66,410,o),
(30,394,c),
(35,364,l),
(35,364,o),
(75,372,o),
(90,369,cs),
(105,366,o),
(107,355,o),
(107,336,cs),
(107,66,ls),
(107,49,o),
(106,45,o),
(92,37,c),
(73,28,o),
(34,22,o),
(34,22,c),
(42,-8,l),
(93,-3,o),
(119,0,o),
(146,0,cs),
(172,0,o),
(198,-3,o),
(249,-8,c),
(256,21,l),
(256,21,o),
(222,27,o),
(203,36,cs),
(188,44,o),
(187,48,o),
(187,64,cs),
(187,321,l),
(219,346,o),
(259,371,o),
(300,371,cs),
(369,371,o),
(385,337,o),
(385,261,cs),
(385,64,ls),
(385,48,o),
(384,44,o),
(369,36,cs),
(350,27,o),
(317,21,o),
(317,21,c),
(324,-8,l),
(375,-3,o),
(400,0,o),
(426,0,cs),
(453,0,o),
(474,-3,o),
(525,-8,c),
(532,22,l),
(532,22,o),
(499,28,o),
(480,37,c),
(466,45,o),
(465,49,o),
(465,66,cs),
(465,281,ls),
(465,294,o),
(464,306,o),
(463,317,c),
(496,342,o),
(537,371,o),
(577,371,cs),
(647,371,o),
(662,337,o),
(662,261,cs),
(662,64,ls),
(662,48,o),
(661,44,o),
(647,36,c),
(628,27,o),
(594,21,o),
(594,21,c),
(601,-8,l),
(652,-3,o),
(678,0,o),
(704,0,cs),
(731,0,o),
(757,-3,o),
(808,-8,c),
(815,22,l),
(815,22,o),
(777,28,o),
(758,37,c),
(744,45,o),
(743,49,o),
(743,66,cs),
(743,281,ls),
(743,392,o),
(702,432,o),
(617,432,cs),
(577,432,o),
(538,415,o),
(503,388,cs),
(457,353,l),
(441,410,o),
(402,432,o),
(339,432,cs),
(300,432,o),
(258,414,o),
(224,387,cs),
(186,358,l)
);
}
);
width = 836;
},
{
layerId = "66e3d46a-fd92-11ee-8244-8aa624eb3053";
shapes = (
{
closed = 1;
nodes = (
(211,380,o),
(206,395,o),
(206,414,c),
(185,437,l),
(141,433,o),
(63,411,o),
(20,392,c),
(25,354,l),
(25,354,o),
(53,360,o),
(71,360,cs),
(93,360,o),
(97,344,o),
(97,326,cs),
(97,76,ls),
(97,59,o),
(95,54,o),
(82,46,cs),
(65,35,o),
(29,27,o),
(29,27,c),
(39,-9,l),
(94,-4,o),
(122,0,o),
(151,0,cs),
(179,0,o),
(209,-4,o),
(264,-9,c),
(271,26,l),
(271,26,o),
(247,33,o),
(233,44,cs),
(219,54,o),
(217,58,o),
(217,74,cs),
(217,322,l),
(242,341,o),
(275,361,o),
(304,361,cs),
(349,361,o),
(368,332,o),
(368,266,cs),
(368,74,ls),
(368,58,o),
(365,54,o),
(353,45,cs),
(339,34,o),
(315,26,o),
(315,26,c),
(322,-9,l),
(377,-4,o),
(407,0,o),
(435,0,cs),
(461,0,o),
(485,-4,o),
(534,-9,c),
(542,27,l),
(542,27,o),
(517,35,o),
(504,45,cs),
(491,55,o),
(488,59,o),
(488,76,cs),
(488,286,ls),
(488,298,o),
(487,309,o),
(486,319,c),
(512,340,o),
(543,361,o),
(575,361,cs),
(620,361,o),
(639,332,o),
(639,266,cs),
(639,74,ls),
(639,58,o),
(636,54,o),
(624,45,cs),
(610,34,o),
(586,26,o),
(586,26,c),
(593,-9,l),
(648,-4,o),
(678,0,o),
(706,0,cs),
(735,0,o),
(764,-4,o),
(819,-9,c),
(827,27,l),
(827,27,o),
(793,35,o),
(775,46,cs),
(761,55,o),
(759,59,o),
(759,76,cs),
(759,286,ls),
(759,397,o),
(705,437,o),
(614,437,cs),
(584,437,o),
(549,417,o),
(520,393,cs),
(477,359,l),
(457,415,o),
(410,437,o),
(343,437,cs),
(313,437,o),
(278,417,o),
(249,393,cs),
(216,366,l)
);
}
);
width = 838;
}
);
unicode = 109;
},
{
glyphname = n;
lastChange = "2024-04-18 14:58:07 +0000";
layers = (
{
anchors = (
{
name = top;
pos = (288,0);
}
);
layerId = "619f1a1e-fd92-11ee-b280-8aa624eb3053";
shapes = (
{
closed = 1;
nodes = (
(219,346,o),
(261,371,o),
(302,371,cs),
(371,371,o),
(394,337,o),
(394,261,cs),
(394,64,ls),
(394,48,o),
(393,44,o),
(379,36,c),
(360,27,o),
(326,21,o),
(326,21,c),
(333,-8,l),
(384,-3,o),
(410,0,o),
(436,0,cs),
(463,0,o),
(489,-3,o),
(540,-8,c),
(547,22,l),
(547,22,o),
(509,28,o),
(490,37,cs),
(475,45,o),
(474,49,o),
(474,66,cs),
(474,281,ls),
(474,392,o),
(426,432,o),
(341,432,cs),
(300,432,o),
(257,413,o),
(224,387,cs),
(186,358,l),
(181,373,o),
(176,393,o),
(176,414,c),
(160,432,l),
(124,428,o),
(66,410,o),
(30,394,c),
(35,364,l),
(35,364,o),
(75,372,o),
(90,369,cs),
(105,366,o),
(107,355,o),
(107,336,cs),
(107,66,ls),
(107,49,o),
(106,45,o),
(92,37,c),
(73,28,o),
(34,22,o),
(34,22,c),
(42,-8,l),
(93,-3,o),
(119,0,o),
(146,0,cs),
(172,0,o),
(198,-3,o),
(249,-8,c),
(256,21,l),
(256,21,o),
(222,27,o),
(203,36,cs),
(188,44,o),
(187,48,o),
(187,64,cs),
(187,321,l)
);
}
);
width = 567;
},
{
anchors = (
{
name = top;
pos = (293,0);
}
);
layerId = "66e3d46a-fd92-11ee-8244-8aa624eb3053";
shapes = (
{
closed = 1;
nodes = (
(244,341,o),
(276,361,o),
(307,361,cs),
(356,361,o),
(374,332,o),
(374,266,cs),
(374,74,ls),
(374,58,o),
(371,54,o),
(359,45,cs),
(343,34,o),
(318,26,o),
(318,26,c),
(325,-9,l),
(382,-4,o),
(412,0,o),
(441,0,cs),
(470,0,o),
(499,-4,o),
(554,-9,c),
(562,27,l),
(562,27,o),
(527,35,o),
(510,47,c),
(495,55,o),
(494,59,o),
(494,76,cs),
(494,286,ls),
(494,397,o),
(440,437,o),
(346,437,cs),
(314,437,o),
(279,418,o),
(249,393,cs),
(216,366,l),
(211,380,o),
(206,395,o),
(206,414,c),
(185,437,l),
(141,433,o),
(63,411,o),
(20,392,c),
(25,354,l),
(25,354,o),
(53,360,o),
(71,360,cs),
(93,360,o),
(97,344,o),
(97,326,cs),
(97,76,ls),
(97,59,o),
(95,54,o),
(82,46,cs),
(65,35,o),
(29,27,o),
(29,27,c),
(39,-9,l),
(94,-4,o),
(122,0,o),
(151,0,cs),
(180,0,o),
(210,-4,o),
(267,-9,c),
(274,26,l),
(274,26,o),
(249,33,o),
(233,44,cs),
(219,54,o),
(217,58,o),
(217,74,cs),
(217,322,l)
);
}
);
width = 573;
}
);
unicode = 110;
},
{
glyphname = o;
lastChange = "2024-04-18 14:46:39 +0000";
layers = (
{
anchors = (
{
name = top;
pos = (259,-1);
}
);
layerId = "619f1a1e-fd92-11ee-b280-8aa624eb3053";
shapes = (
{
closed = 1;
nodes = (
(42,72,o),
(113,-16,o),
(251,-16,cs),
(375,-16,o),
(460,82,o),
(460,219,cs),
(460,344,o),
(387,432,o),
(250,432,cs),
(125,432,o),
(42,334,o),
(42,197,cs)
);
},
{
closed = 1;
nodes = (
(131,334,o),
(166,391,o),
(236,391,cs),
(319,391,o),
(370,323,o),
(370,197,cs),
(370,81,o),
(334,25,o),
(264,25,cs),
(181,25,o),
(131,93,o),
(131,219,cs)
);
}
);
width = 502;
},
{
anchors = (
{
name = top;
pos = (263,-1);
}
);
layerId = "66e3d46a-fd92-11ee-8244-8aa624eb3053";
shapes = (
{
closed = 1;
nodes = (
(31,72,o),
(108,-16,o),
(255,-16,cs),
(388,-16,o),
(479,82,o),
(479,219,cs),
(479,344,o),
(400,432,o),
(254,432,cs),
(120,432,o),
(31,334,o),
(31,197,cs)
);
},
{
closed = 1;
nodes = (
(160,328,o),
(185,381,o),
(240,381,cs),
(308,381,o),
(350,317,o),
(350,197,cs),
(350,87,o),
(323,35,o),
(268,35,cs),
(200,35,o),
(160,99,o),
(160,219,cs)
);
}
);
width = 510;
}
);
unicode = 111;
},
{
glyphname = oslash;
lastChange = "2024-04-18 14:46:39 +0000";
layers = (
{
layerId = "619f1a1e-fd92-11ee-b280-8aa624eb3053";
shapes = (
{
closed = 1;
nodes = (
(42,72,o),
(113,-16,o),
(251,-16,cs),
(375,-16,o),
(460,82,o),
(460,219,cs),
(460,344,o),
(387,432,o),
(250,432,cs),
(125,432,o),
(42,334,o),
(42,197,cs)
);
},
{
closed = 1;
nodes = (
(131,334,o),
(166,391,o),
(236,391,cs),
(319,391,o),
(370,323,o),
(370,197,cs),
(370,81,o),
(334,25,o),
(264,25,cs),
(181,25,o),
(131,93,o),
(131,219,cs)
);
},
{
closed = 1;
nodes = (
(92,-41,l),
(427,439,l),
(397,469,l),
(63,-11,l)
);
}
);
width = 502;
},
{
layerId = "66e3d46a-fd92-11ee-8244-8aa624eb3053";
shapes = (
{
closed = 1;
nodes = (
(35,72,o),
(112,-16,o),
(259,-16,cs),
(383,-16,o),
(487,82,o),
(487,219,cs),
(487,347,o),
(395,437,o),
(258,437,cs),
(124,437,o),
(35,337,o),
(35,197,cs)
);
},
{
closed = 1;
nodes = (
(164,341,o),
(189,386,o),
(244,386,cs),
(329,386,o),
(358,326,o),
(358,197,cs),
(358,87,o),
(343,36,o),
(272,36,cs),
(204,36,o),
(164,99,o),
(164,219,cs)
);
},
{
closed = 1;
nodes = (
(102,-47,l),
(440,438,l),
(403,477,l),
(65,-8,l)
);
}
);
width = 522;
}
);
unicode = 248;
},
{
glyphname = oe;
lastChange = "2024-04-18 14:46:39 +0000";
layers = (
{
layerId = "619f1a1e-fd92-11ee-b280-8aa624eb3053";
shapes = (
{
closed = 1;
nodes = (
(42,72,o),
(111,-16,o),
(246,-16,cs),
(358,-16,o),
(437,82,o),
(437,219,cs),
(437,344,o),
(370,432,o),
(245,432,cs),
(123,432,o),
(42,334,o),
(42,197,cs)
);
},
{
closed = 1;
nodes = (
(131,334,o),
(164,391,o),
(231,391,cs),
(311,391,o),
(360,323,o),
(360,197,cs),
(360,81,o),
(326,25,o),
(259,25,cs),
(179,25,o),
(131,93,o),
(131,219,cs)
);
},
{
closed = 1;
nodes = (
(719,348,o),
(667,432,o),
(549,432,cs),
(432,432,o),
(360,322,o),
(360,200,cs),
(360,68,o),
(436,-16,o),
(551,-16,cs),
(589,-16,o),
(640,-5,o),
(717,68,c),
(701,90,l),
(670,67,o),
(626,47,o),
(584,47,cs),
(498,47,o),
(448,102,o),
(443,210,c),
(719,230,l)
);
},
{
closed = 1;
nodes = (
(608,391,o),
(629,332,o),
(629,270,c),
(443,246,l),
(443,316,o),
(471,391,o),
(543,391,cs)
);
}
);
width = 756;
},
{
layerId = "66e3d46a-fd92-11ee-8244-8aa624eb3053";
shapes = (
{
closed = 1;
nodes = (
(31,72,o),
(106,-16,o),
(250,-16,cs),
(356,-16,o),
(431,82,o),
(431,219,cs),
(431,347,o),
(368,437,o),
(249,437,cs),
(118,437,o),
(31,337,o),
(31,197,cs)
);
},
{
closed = 1;
nodes = (
(160,331,o),
(183,386,o),
(235,386,cs),
(294,386,o),
(329,320,o),
(329,197,cs),
(329,87,o),
(309,35,o),
(263,35,cs),
(198,35,o),
(160,99,o),
(160,219,cs)
);
},
{
closed = 1;
nodes = (
(713,356,o),
(655,442,o),
(528,442,cs),
(405,442,o),
(329,326,o),
(329,195,cs),
(329,66,o),
(409,-16,o),
(530,-16,cs),
(570,-16,o),
(625,-4,o),
(706,73,c),
(688,100,l),
(655,77,o),
(609,57,o),
(563,57,cs),
(492,57,o),
(452,110,o),
(447,215,c),
(713,235,l)
);
},
{
closed = 1;
nodes = (
(567,391,o),
(583,336,o),
(583,280,c),
(447,261,l),
(447,325,o),
(469,391,o),
(522,391,cs)
);
}
);
width = 735;
}
);
unicode = 339;
},
{
glyphname = p;
lastChange = "2024-04-18 14:58:25 +0000";
layers = (
{
layerId = "619f1a1e-fd92-11ee-b280-8aa624eb3053";
shapes = (
{
closed = 1;
nodes = (
(174,378,o),
(172,396,o),
(170,414,c),
(154,432,l),
(118,428,o),
(57,410,o),
(22,394,c),
(27,364,l),
(27,364,o),
(67,372,o),
(82,369,cs),
(97,366,o),
(99,355,o),
(99,336,cs),
(99,-179,ls),
(99,-196,o),
(98,-200,o),
(83,-207,cs),
(65,-216,o),
(32,-223,o),
(32,-223,c),
(40,-253,l),
(81,-248,o),
(117,-244,o),
(143,-244,cs),
(170,-244,o),
(220,-248,o),
(264,-253,c),
(272,-220,l),
(272,-220,o),
(217,-213,o),
(200,-207,cs),
(183,-201,o),
(179,-194,o),
(179,-178,cs),
(179,10,l),
(202,-4,o),
(239,-16,o),
(273,-16,cs),
(400,-16,o),
(490,84,o),
(490,224,cs),
(490,348,o),
(442,432,o),
(328,432,cs),
(301,432,o),
(263,423,o),
(225,395,cs),
(176,360,l)
);
},
{
closed = 1;
nodes = (
(218,353,o),
(253,372,o),
(285,372,cs),
(357,372,o),
(401,322,o),
(401,201,cs),
(401,79,o),
(345,25,o),
(282,25,cs),
(241,25,o),
(199,52,o),
(179,84,c),
(179,320,l)
);
}
);
width = 532;
},
{
layerId = "66e3d46a-fd92-11ee-8244-8aa624eb3053";
shapes = (
{
closed = 1;
nodes = (
(196,383,o),
(191,400,o),
(191,419,c),
(170,442,l),
(126,438,o),
(50,416,o),
(7,397,c),
(12,359,l),
(12,359,o),
(40,365,o),
(58,365,cs),
(80,365,o),
(84,349,o),
(84,331,cs),
(84,-168,ls),
(84,-185,o),
(82,-190,o),
(69,-198,cs),
(52,-209,o),
(16,-217,o),
(16,-217,c),
(26,-253,l),
(83,-249,o),
(113,-244,o),
(143,-244,cs),
(177,-244,o),
(222,-247,o),
(284,-253,c),
(291,-218,l),
(291,-218,o),
(248,-211,o),
(220,-200,c),
(206,-190,o),
(204,-186,o),
(204,-170,cs),
(204,6,l),
(222,-5,o),
(249,-16,o),
(273,-16,cs),
(409,-16,o),
(505,86,o),
(505,229,cs),
(505,353,o),
(454,437,o),
(328,437,cs),
(306,437,o),
(278,427,o),
(245,402,cs),
(201,369,l)
);
},
{
closed = 1;
nodes = (
(233,348,o),
(261,362,o),
(285,362,cs),
(342,362,o),
(376,315,o),
(376,206,cs),
(376,87,o),
(330,35,o),
(282,35,cs),
(251,35,o),
(219,59,o),
(204,91,c),
(204,321,l)
);
}
);
width = 532;
}
);
unicode = 112;
},
{
glyphname = thorn;
lastChange = "2024-04-18 15:03:31 +0000";
layers = (
{
layerId = "619f1a1e-fd92-11ee-b280-8aa624eb3053";
shapes = (
{
closed = 1;
nodes = (
(385,-16,o),
(475,86,o),
(475,224,cs),
(475,348,o),
(422,432,o),
(308,432,cs),
(240,432,o),
(163,375,o),
(163,375,c),
(163,602,ls),
(163,643,o),
(164,674,o),
(171,700,c),
(156,718,l),
(118,715,o),
(48,697,o),
(10,680,c),
(16,650,l),
(16,650,o),
(41,656,o),
(58,656,cs),
(80,656,o),
(83,644,o),
(83,622,cs),
(83,40,l),
(134,10,o),
(201,-16,o),
(261,-16,cs)
);
},
{
closed = 1;
nodes = (
(342,373,o),
(386,322,o),
(386,201,cs),
(386,77,o),
(331,25,o),
(265,25,cs),
(206,25,o),
(163,57,o),
(163,107,cs),
(163,336,l),
(163,336,o),
(208,373,o),
(267,373,cs)
);
},
{
closed = 1;
nodes = (
(83,-196,o),
(82,-200,o),
(67,-207,cs),
(49,-216,o),
(16,-223,o),
(16,-223,c),
(24,-253,l),
(65,-248,o),
(101,-244,o),
(127,-244,cs),
(154,-244,o),
(204,-248,o),
(248,-253,c),
(256,-220,l),
(256,-220,o),
(201,-213,o),
(184,-207,cs),
(167,-201,o),
(163,-194,o),
(163,-178,cs),
(163,10,l),
(163,10,o),
(83,74,o),
(83,74,c),
(83,-179,ls)
);
}
);
width = 517;
},
{
layerId = "66e3d46a-fd92-11ee-8244-8aa624eb3053";
shapes = (
{
closed = 1;
nodes = (
(388,-16,o),
(484,88,o),
(484,229,cs),
(484,353,o),
(425,437,o),
(302,437,cs),
(247,437,o),
(182,383,o),
(182,383,c),
(182,602,ls),
(182,641,o),
(182,670,o),
(195,695,c),
(175,718,l),
(130,715,o),
(39,695,o),
(-6,678,c),
(0,640,l),
(0,640,o),
(22,645,o),
(37,645,cs),
(59,645,o),
(62,634,o),
(62,612,cs),
(62,25,l),
(116,4,o),
(189,-16,o),
(255,-16,cs)
);
},
{
closed = 1;
nodes = (
(321,363,o),
(355,316,o),
(355,206,cs),
(355,90,o),
(310,40,o),
(259,40,cs),
(215,40,o),
(182,66,o),
(182,107,cs),
(182,337,l),
(182,337,o),
(217,363,o),
(261,363,cs)
);
},
{
closed = 1;
nodes = (
(62,-185,o),
(60,-190,o),
(47,-198,cs),
(30,-209,o),
(-6,-217,o),
(-6,-217,c),
(4,-253,l),
(61,-249,o),
(91,-244,o),
(121,-244,cs),
(155,-244,o),
(200,-247,o),
(262,-253,c),
(269,-218,l),
(269,-218,o),
(226,-211,o),
(198,-200,c),
(184,-190,o),
(182,-186,o),
(182,-170,cs),
(182,6,l),
(182,6,o),
(62,331,o),
(62,331,c),
(62,-168,ls)
);
}
);
width = 515;
}
);
unicode = 254;
},
{
glyphname = q;
lastChange = "2024-04-18 14:46:39 +0000";
layers = (
{
layerId = "619f1a1e-fd92-11ee-b280-8aa624eb3053";
shapes = (
{
closed = 1;
nodes = (
(406,423,o),
(382,416,o),
(365,416,cs),
(339,416,o),
(306,432,o),
(257,432,cs),
(123,432,o),
(42,329,o),
(42,190,cs),
(42,66,o),
(105,-16,o),
(223,-16,cs),
(261,-16,o),
(298,-3,o),
(355,45,c),
(355,-178,ls),
(355,-194,o),
(350,-201,o),
(334,-207,cs),
(317,-213,o),
(262,-220,o),
(262,-220,c),
(269,-253,l),
(314,-248,o),
(361,-244,o),
(388,-244,cs),
(414,-244,o),
(450,-246,o),
(491,-253,c),
(498,-223,l),
(498,-223,o),
(469,-216,o),
(450,-207,cs),
(436,-200,o),
(435,-196,o),
(435,-179,cs),
(435,314,ls),
(435,355,o),
(436,398,o),
(442,424,c),
(427,432,l)
);
},
{
closed = 1;
nodes = (
(183,43,o),
(131,92,o),
(131,213,cs),
(131,336,o),
(182,391,o),
(249,391,cs),
(307,391,o),
(353,360,o),
(353,310,cs),
(353,79,l),
(316,53,o),
(284,43,o),
(254,43,cs)
);
}
);
width = 505;
},
{
layerId = "66e3d46a-fd92-11ee-8244-8aa624eb3053";
shapes = (
{
closed = 1;
nodes = (
(413,428,o),
(385,421,o),
(365,421,cs),
(339,421,o),
(306,437,o),
(257,437,cs),
(114,437,o),
(27,334,o),
(27,195,cs),
(27,68,o),
(96,-16,o),
(223,-16,cs),
(252,-16,o),
(288,2,o),
(330,42,c),
(330,-168,ls),
(330,-184,o),
(325,-190,o),
(309,-197,cs),
(292,-204,o),
(237,-215,o),
(237,-215,c),
(245,-254,l),
(300,-249,o),
(356,-244,o),
(388,-244,cs),
(417,-244,o),
(457,-247,o),
(504,-254,c),
(511,-218,l),
(511,-218,o),
(483,-209,o),
(463,-198,cs),
(449,-190,o),
(448,-186,o),
(448,-169,cs),
(448,319,ls),
(448,358,o),
(448,399,o),
(460,424,c),
(440,437,l)
);
},
{
closed = 1;
nodes = (
(198,53,o),
(156,101,o),
(156,218,cs),
(156,332,o),
(197,381,o),
(249,381,cs),
(292,381,o),
(328,356,o),
(328,315,cs),
(328,83,l),
(301,62,o),
(276,53,o),
(254,53,cs)
);
}
);
width = 505;
}
);
unicode = 113;
},
{
glyphname = r;
lastChange = "2024-04-18 14:58:31 +0000";
layers = (
{
layerId = "619f1a1e-fd92-11ee-b280-8aa624eb3053";
shapes = (
{
closed = 1;
nodes = (
(126,428,o),
(66,410,o),
(30,394,c),
(35,364,l),
(35,364,o),
(75,372,o),
(90,369,cs),
(105,366,o),
(107,355,o),
(107,336,cs),
(107,66,ls),
(107,49,o),
(106,45,o),
(92,37,c),
(73,28,o),
(34,22,o),
(34,22,c),
(42,-8,l),
(83,-3,o),
(130,0,o),
(156,0,cs),
(183,0,o),
(231,-4,o),
(276,-8,c),
(283,26,l),
(283,26,o),
(227,31,o),
(208,38,cs),
(191,45,o),
(187,50,o),
(187,67,cs),
(187,289,l),
(206,316,o),
(242,364,o),
(278,364,cs),
(307,364,o),
(320,327,o),
(320,282,c),
(347,284,l),
(358,311,o),
(376,384,o),
(381,413,c),
(365,419,o),
(334,432,o),
(310,432,cs),
(277,432,o),
(252,418,o),
(220,379,cs),
(187,337,l),
(183,357,o),
(178,389,o),
(178,414,c),
(162,432,l)
);
}
);
width = 381;
},
{
layerId = "66e3d46a-fd92-11ee-8244-8aa624eb3053";
shapes = (
{
closed = 1;
nodes = (
(142,434,o),
(63,411,o),
(20,392,c),
(25,354,l),
(25,354,o),
(53,360,o),
(71,360,cs),
(93,360,o),
(97,344,o),
(97,326,cs),
(97,76,ls),
(97,59,o),
(95,54,o),
(82,46,cs),
(65,35,o),
(28,27,o),
(28,27,c),
(37,-9,l),
(82,-4,o),
(133,0,o),
(161,0,cs),
(192,0,o),
(248,-5,o),
(301,-9,c),
(308,31,l),
(308,31,o),
(257,38,o),
(238,47,cs),
(221,55,o),
(217,60,o),
(217,77,cs),
(217,285,l),
(235,310,o),
(269,354,o),
(303,354,cs),
(321,354,o),
(330,311,o),
(330,259,c),
(372,264,l),
(385,295,o),
(407,380,o),
(413,413,c),
(396,419,o),
(361,437,o),
(335,437,cs),
(302,437,o),
(274,425,o),
(245,384,cs),
(217,345,l),
(212,363,o),
(208,393,o),
(208,414,c),
(187,437,l)
);
}
);
width = 408;
}
);
unicode = 114;
},
{
glyphname = s;
lastChange = "2024-04-18 14:46:39 +0000";
layers = (
{
layerId = "619f1a1e-fd92-11ee-b280-8aa624eb3053";
shapes = (
{
closed = 1;
nodes = (
(124,22,o),
(87,66,o),
(77,126,c),
(48,120,l),
(45,102,o),
(45,30,o),
(48,11,c),
(78,-4,o),
(129,-16,o),
(166,-16,cs),
(268,-16,o),
(337,28,o),
(337,118,cs),
(337,197,o),
(270,223,o),
(206,255,cs),
(151,282,o),
(123,298,o),
(123,333,cs),
(123,369,o),
(144,396,o),
(193,396,cs),
(239,396,o),
(269,361,o),
(284,305,c),
(304,309,l),
(309,326,o),
(319,387,o),
(321,409,c),
(290,417,o),
(237,432,o),
(200,432,cs),
(110,432,o),
(51,387,o),
(51,311,cs),
(51,241,o),
(101,214,o),
(154,189,cs),
(224,156,o),
(260,137,o),
(260,92,cs),
(260,41,o),
(224,22,o),
(179,22,cs)
);
}
);
width = 381;
},
{
layerId = "66e3d46a-fd92-11ee-8244-8aa624eb3053";
shapes = (
{
closed = 1;
nodes = (
(128,32,o),
(91,78,o),
(81,141,c),
(32,130,l),
(29,110,o),
(30,32,o),
(32,11,c),
(66,-4,o),
(125,-16,o),
(170,-16,cs),
(281,-16,o),
(356,28,o),
(356,118,cs),
(356,207,o),
(282,241,o),
(223,270,cs),
(184,289,o),
(152,307,o),
(152,338,cs),
(152,368,o),
(165,391,o),
(197,391,cs),
(243,391,o),
(273,354,o),
(288,295,c),
(328,304,l),
(334,323,o),
(344,390,o),
(345,414,c),
(312,423,o),
(249,437,o),
(204,437,cs),
(105,437,o),
(40,392,o),
(40,316,cs),
(40,233,o),
(101,201,o),
(156,174,cs),
(200,152,o),
(239,133,o),
(239,92,cs),
(239,49,o),
(213,32,o),
(183,32,cs)
);
}
);
width = 389;
}
);
unicode = 115;
},
{
glyphname = germandbls;
lastChange = "2024-04-18 15:03:21 +0000";
layers = (
{
layerId = "619f1a1e-fd92-11ee-b280-8aa624eb3053";
shapes = (
{
closed = 1;
nodes = (
(41,401,l),
(44,372,l),
(107,372,l),
(107,66,ls),
(107,49,o),
(106,45,o),
(92,37,c),
(73,28,o),
(34,22,o),
(34,22,c),
(42,-8,l),
(90,-3,o),
(121,0,o),
(147,0,cs),
(167,0,o),
(194,-3,o),
(233,-8,c),
(241,22,l),
(241,22,o),
(215,30,o),
(204,37,cs),
(189,46,o),
(187,50,o),
(187,67,cs),
(187,531,ls),
(187,593,o),
(207,675,o),
(277,675,cs),
(375,675,o),
(406,621,o),
(406,535,cs),
(406,420,o),
(284,431,o),
(284,326,cs),
(284,253,o),
(332,226,o),
(382,199,cs),
(449,163,o),
(483,141,o),
(483,92,cs),
(483,41,o),
(449,22,o),
(407,22,cs),
(355,22,o),
(320,66,o),
(310,126,c),
(281,120,l),
(278,102,o),
(278,30,o),
(281,11,c),
(310,-4,o),
(359,-16,o),
(394,-16,cs),
(493,-16,o),
(560,28,o),
(560,118,cs),
(560,197,o),
(503,228,o),
(446,259,cs),
(393,288,o),
(356,310,o),
(356,348,cs),
(356,398,o),
(494,427,o),
(494,555,cs),
(494,633,o),
(431,718,o),
(306,718,cs),
(174,718,o),
(107,600,o),
(107,474,cs),
(107,416,l)
);
}
);
width = 590;
},
{
layerId = "66e3d46a-fd92-11ee-8244-8aa624eb3053";
shapes = (
{
closed = 1;
nodes = (
(34,407,l),
(39,367,l),
(95,367,l),
(95,76,ls),
(95,59,o),
(93,55,o),
(80,47,cs),
(63,36,o),
(27,27,o),
(27,27,c),
(35,-8,l),
(87,-3,o),
(122,0,o),
(150,0,cs),
(174,0,o),
(209,-3,o),
(256,-8,c),
(264,22,l),
(264,22,o),
(242,30,o),
(232,37,cs),
(217,47,o),
(215,50,o),
(215,67,cs),
(215,531,ls),
(215,591,o),
(230,660,o),
(280,660,cs),
(358,660,o),
(384,618,o),
(384,535,cs),
(384,420,o),
(277,431,o),
(277,326,cs),
(277,250,o),
(329,220,o),
(378,192,cs),
(421,168,o),
(461,145,o),
(461,92,cs),
(461,49,o),
(437,32,o),
(410,32,cs),
(364,32,o),
(332,76,o),
(323,136,c),
(284,129,l),
(281,109,o),
(281,32,o),
(284,11,c),
(313,-4,o),
(362,-16,o),
(397,-16,cs),
(505,-16,o),
(578,28,o),
(578,118,cs),
(578,191,o),
(532,226,o),
(485,253,cs),
(435,282,o),
(384,303,o),
(384,348,cs),
(384,398,o),
(512,417,o),
(512,545,cs),
(512,623,o),
(443,718,o),
(309,718,cs),
(168,718,o),
(95,600,o),
(95,474,cs),
(95,422,l)
);
}
);
width = 596;
}
);
unicode = 223;
},
{
glyphname = t;
lastChange = "2024-04-18 14:46:39 +0000";
layers = (
{
layerId = "619f1a1e-fd92-11ee-b280-8aa624eb3053";
shapes = (
{
closed = 1;
nodes = (
(85,372,l),
(85,109,ls),
(85,7,o),
(136,-16,o),
(191,-16,cs),
(245,-16,o),
(297,26,o),
(330,53,c),
(315,76,l),
(294,62,o),
(262,45,o),
(233,45,cs),
(193,45,o),
(165,57,o),
(165,124,cs),
(165,370,l),
(285,366,l),
(293,419,l),
(165,410,l),
(165,520,l),
(85,483,l),
(85,416,l),
(22,398,l),
(27,372,l)
);
}
);
width = 336;
},
{
layerId = "66e3d46a-fd92-11ee-8244-8aa624eb3053";
shapes = (
{
closed = 1;
nodes = (
(73,371,l),
(73,109,ls),
(73,7,o),
(130,-16,o),
(194,-16,cs),
(252,-16,o),
(306,28,o),
(341,57,c),
(321,90,l),
(299,76,o),
(267,60,o),
(236,60,cs),
(211,60,o),
(193,69,o),
(193,124,cs),
(193,368,l),
(300,364,l),
(311,429,l),
(193,420,l),
(193,530,l),
(73,475,l),
(73,426,l),
(15,408,l),
(23,371,l)
);
}
);
width = 342;
}
);
unicode = 116;
},
{
glyphname = u;
lastChange = "2024-04-18 14:58:50 +0000";
layers = (
{
anchors = (
{
name = top;
pos = (270,0);
}
);
layerId = "619f1a1e-fd92-11ee-b280-8aa624eb3053";
shapes = (
{
closed = 1;
nodes = (
(453,316,ls),
(453,357,o),
(454,388,o),
(460,414,c),
(445,432,l),
(407,430,o),
(331,415,o),
(293,398,c),
(299,368,l),
(299,368,o),
(340,376,o),
(356,373,cs),
(370,370,o),
(372,357,o),
(372,338,cs),
(372,92,l),
(339,67,o),
(298,45,o),
(263,45,cs),
(200,45,o),
(173,80,o),
(173,155,cs),
(173,316,ls),
(173,357,o),
(174,388,o),
(180,414,c),
(166,432,l),
(126,428,o),
(58,414,o),
(21,398,c),
(26,368,l),
(26,368,o),
(62,376,o),
(76,373,cs),
(91,370,o),
(93,357,o),
(93,338,cs),
(93,135,ls),
(93,22,o),
(144,-16,o),
(226,-16,cs),
(263,-16,o),
(303,2,o),
(339,30,cs),
(351,39,o),
(363,48,o),
(375,57,c),
(375,23,o),
(401,-1,o),
(422,-16,c),
(456,-2,o),
(505,11,o),
(539,18,c),
(532,48,l),
(515,46,o),
(484,46,o),
(469,52,cs),
(458,57,o),
(453,72,o),
(453,85,cs)
);
}
);
width = 550;
},
{
anchors = (
{
name = top;
pos = (270,0);
}
);
layerId = "66e3d46a-fd92-11ee-8244-8aa624eb3053";
shapes = (
{
closed = 1;
nodes = (
(467,321,ls),
(467,360,o),
(473,388,o),
(483,414,c),
(463,437,l),
(419,437,o),
(324,414,o),
(277,394,c),
(285,354,l),
(285,354,o),
(304,361,o),
(320,361,cs),
(344,361,o),
(347,342,o),
(347,326,cs),
(347,96,l),
(322,77,o),
(288,60,o),
(263,60,cs),
(217,60,o),
(198,89,o),
(198,155,cs),
(198,321,ls),
(198,360,o),
(204,388,o),
(214,414,c),
(194,437,l),
(150,437,o),
(55,414,o),
(8,394,c),
(16,354,l),
(16,354,o),
(35,361,o),
(51,361,cs),
(75,361,o),
(78,342,o),
(78,326,cs),
(78,135,ls),
(78,22,o),
(135,-16,o),
(226,-16,cs),
(252,-16,o),
(284,-1,o),
(323,31,cs),
(332,38,o),
(341,45,o),
(350,54,c),
(350,22,o),
(379,-2,o),
(402,-16,c),
(441,-2,o),
(505,12,o),
(544,19,c),
(536,53,l),
(521,53,o),
(496,53,o),
(483,62,c),
(472,67,o),
(467,82,o),
(467,95,cs)
);
}
);
width = 550;
}
);
unicode = 117;
},
{
glyphname = v;
lastChange = "2024-04-18 15:02:30 +0000";
layers = (
{
layerId = "619f1a1e-fd92-11ee-b280-8aa624eb3053";
shapes = (
{
closed = 1;
nodes = (
(137,353,ls),
(130,369,o),
(137,381,o),
(150,385,cs),
(162,389,o),
(194,394,o),
(194,394,c),
(197,423,l),
(150,418,o),
(121,416,o),
(94,416,cs),
(67,416,o),
(44,418,o),
(-3,423,c),
(3,392,l),
(33,390,o),
(37,385,o),
(51,353,cs),
(205,-9,l),
(251,-9,l),
(402,350,ls),
(416,382,o),
(420,390,o),
(450,392,c),
(457,423,l),
(415,418,o),
(400,417,o),
(378,417,cs),
(355,417,o),
(331,418,o),
(289,423,c),
(291,394,l),
(291,394,o),
(323,389,o),
(336,385,cs),
(348,381,o),
(355,369,o),
(348,353,cs),
(255,114,l),
(248,86,l),
(242,87,l),
(236,112,l)
);
}
);
width = 451;
},
{
layerId = "66e3d46a-fd92-11ee-8244-8aa624eb3053";
shapes = (
{
closed = 1;
nodes = (
(170,348,ls),
(164,362,o),
(165,377,o),
(174,381,cs),
(186,386,o),
(217,394,o),
(217,394,c),
(221,429,l),
(164,424,o),
(125,421,o),
(93,421,cs),
(63,421,o),
(31,423,o),
(-19,429,c),
(-12,392,l),
(24,388,o),
(30,379,o),
(43,348,cs),
(195,-9,l),
(268,-9,l),
(419,344,ls),
(434,378,o),
(440,387,o),
(476,391,c),
(483,428,l),
(441,423,o),
(418,421,o),
(394,421,cs),
(368,421,o),
(340,422,o),
(292,428,c),
(294,393,l),
(294,393,o),
(330,390,o),
(341,380,cs),
(348,374,o),
(346,356,o),
(342,347,c),
(267,152,l),
(260,123,l),
(254,124,l),
(248,150,l)
);
}
);
width = 464;
}
);
unicode = 118;
},
{
glyphname = w;
lastChange = "2024-04-18 14:46:39 +0000";
layers = (
{
layerId = "619f1a1e-fd92-11ee-b280-8aa624eb3053";
shapes = (
{
closed = 1;
nodes = (
(459,-9,l),
(506,-9,l),
(642,353,ls),
(654,384,o),
(659,390,o),
(690,392,c),
(696,423,l),
(654,418,o),
(642,417,o),
(619,417,cs),
(596,417,o),
(568,418,o),
(526,423,c),
(528,394,l),
(528,394,o),
(568,389,o),
(580,385,cs),
(593,381,o),
(599,369,o),
(593,353,cs),
(509,122,l),
(500,90,l),
(494,92,l),
(489,119,l),
(389,416,l),
(341,416,l),
(240,119,l),
(233,90,l),
(228,92,l),
(223,118,l),
(137,353,ls),
(131,369,o),
(137,381,o),
(150,385,cs),
(162,389,o),
(202,394,o),
(202,394,c),
(204,423,l),
(157,418,o),
(121,416,o),
(94,416,cs),
(67,416,o),
(45,418,o),
(-2,423,c),
(4,392,l),
(34,390,o),
(40,385,o),
(52,353,cs),
(193,-9,l),
(241,-9,l),
(340,282,l),
(347,311,l),
(353,309,l),
(358,283,l)
);
}
);
width = 686;
},
{
layerId = "66e3d46a-fd92-11ee-8244-8aa624eb3053";
shapes = (
{
closed = 1;
nodes = (
(466,-9,l),
(540,-9,l),
(683,344,ls),
(698,378,o),
(704,387,o),
(740,391,c),
(747,428,l),
(705,423,o),
(682,421,o),
(658,421,cs),
(632,421,o),
(604,422,o),
(556,428,c),
(558,393,l),
(558,393,o),
(594,390,o),
(605,380,cs),
(612,374,o),
(610,356,o),
(606,347,c),
(538,152,l),
(531,123,l),
(525,124,l),
(519,150,l),
(431,421,l),
(357,421,l),
(262,152,l),
(255,123,l),
(249,124,l),
(243,150,l),
(172,348,ls),
(167,362,o),
(168,377,o),
(176,381,c),
(188,386,o),
(219,394,o),
(219,394,c),
(223,429,l),
(166,424,o),
(127,421,o),
(95,421,cs),
(65,421,o),
(33,423,o),
(-17,429,c),
(-10,392,l),
(26,388,o),
(32,379,o),
(45,348,cs),
(190,-9,l),
(262,-9,l),
(356,241,l),
(362,271,l),
(368,270,l),
(375,241,l)
);
}
);
width = 730;
}
);
unicode = 119;
},
{
glyphname = x;
lastChange = "2024-04-18 15:02:37 +0000";
layers = (
{
layerId = "619f1a1e-fd92-11ee-b280-8aa624eb3053";
shapes = (
{
closed = 1;
nodes = (
(332,51,o),
(320,36,o),
(308,32,cs),
(295,28,o),
(263,22,o),
(263,22,c),
(270,-8,l),
(295,-4,o),
(349,0,o),
(376,0,cs),
(403,0,o),
(448,-4,o),
(473,-8,c),
(480,22,l),
(453,24,o),
(439,35,o),
(417,60,cs),
(287,222,l),
(398,352,l),
(425,380,o),
(432,390,o),
(459,392,c),
(462,422,l),
(438,418,o),
(401,416,o),
(378,416,cs),
(355,416,o),
(313,418,o),
(288,422,c),
(290,392,l),
(290,392,o),
(313,388,o),
(325,385,cs),
(340,381,o),
(351,366,o),
(340,353,cs),
(261,254,l),
(182,354,ls),
(170,368,o),
(179,382,o),
(191,386,cs),
(204,390,o),
(226,393,o),
(226,393,c),
(228,423,l),
(204,419,o),
(146,416,o),
(119,416,cs),
(92,416,o),
(45,419,o),
(20,423,c),
(24,393,l),
(51,391,o),
(65,385,o),
(87,358,cs),
(205,210,l),
(77,64,l),
(53,41,o),
(30,24,o),
(3,22,c),
(10,-8,l),
(34,-4,o),
(70,0,o),
(93,0,cs),
(116,0,o),
(161,-4,o),
(187,-8,c),
(194,22,l),
(194,22,o),
(160,28,o),
(147,32,cs),
(135,36,o),
(126,51,o),
(140,68,cs),
(231,178,l),
(319,68,ls)
);
}
);
width = 483;
},
{
layerId = "66e3d46a-fd92-11ee-8244-8aa624eb3053";
shapes = (
{
closed = 1;
nodes = (
(315,70,o),
(320,62,o),
(320,56,cs),
(320,38,o),
(274,29,o),
(262,27,c),
(270,-9,l),
(298,-5,o),
(361,0,o),
(391,0,cs),
(424,0,o),
(486,-5,o),
(517,-9,c),
(525,27,l),
(496,29,o),
(475,42,o),
(451,70,cs),
(316,231,l),
(412,347,ls),
(439,379,o),
(454,390,o),
(483,392,c),
(487,428,l),
(461,424,o),
(418,421,o),
(393,421,cs),
(369,421,o),
(324,422,o),
(298,428,c),
(300,392,l),
(315,389,o),
(347,389,o),
(347,369,cs),
(347,364,o),
(344,355,o),
(339,348,cs),
(281,272,l),
(217,349,ls),
(212,355,o),
(206,363,o),
(206,369,cs),
(206,385,o),
(238,390,o),
(250,393,c),
(253,429,l),
(226,425,o),
(158,421,o),
(128,421,cs),
(96,421,o),
(33,425,o),
(3,429,c),
(8,393,l),
(35,392,o),
(52,383,o),
(77,353,cs),
(202,204,l),
(87,74,ls),
(62,45,o),
(33,30,o),
(2,27,c),
(10,-9,l),
(36,-5,o),
(77,0,o),
(102,0,cs),
(126,0,o),
(173,-5,o),
(200,-9,c),
(209,27,l),
(196,30,o),
(152,35,o),
(152,52,cs),
(152,59,o),
(157,69,o),
(165,78,cs),
(236,164,l),
(308,78,ls)
);
}
);
width = 520;
}
);
unicode = 120;
},
{
glyphname = y;
lastChange = "2024-04-18 15:03:07 +0000";
layers = (
{
anchors = (
{
name = top;
pos = (241,0);
}
);
layerId = "619f1a1e-fd92-11ee-b280-8aa624eb3053";
shapes = (
{
closed = 1;
nodes = (
(419,383,o),
(422,389,o),
(452,391,c),
(459,422,l),
(417,417,o),
(400,416,o),
(377,416,cs),
(355,416,o),
(333,417,o),
(291,422,c),
(293,393,l),
(293,393,o),
(325,388,o),
(338,384,cs),
(350,380,o),
(357,368,o),
(350,352,cs),
(256,118,l),
(249,88,l),
(243,88,l),
(238,113,l),
(133,353,ls),
(126,369,o),
(133,381,o),
(146,385,cs),
(158,389,o),
(190,394,o),
(190,394,c),
(192,423,l),
(146,418,o),
(116,416,o),
(89,416,cs),
(62,416,o),
(39,418,o),
(-7,423,c),
(-1,392,l),
(29,390,o),
(32,385,o),
(47,353,cs),
(207,-1,l),
(165,-93,ls),
(148,-130,o),
(121,-151,o),
(90,-151,cs),
(71,-151,o),
(54,-145,o),
(39,-138,c),
(21,-147,l),
(25,-173,o),
(39,-221,o),
(53,-244,c),
(65,-244,ls),
(130,-244,o),
(169,-199,o),
(195,-139,cs),
(406,352,ls)
);
}
);
width = 466;
},
{
anchors = (
{
name = top;
pos = (241,0);
}
);
layerId = "66e3d46a-fd92-11ee-8244-8aa624eb3053";
shapes = (
{
closed = 1;
nodes = (
(436,381,o),
(443,389,o),
(476,391,c),
(483,428,l),
(429,423,o),
(404,421,o),
(377,421,cs),
(355,421,o),
(334,422,o),
(292,428,c),
(294,393,l),
(313,391,o),
(347,387,o),
(347,369,cs),
(347,363,o),
(346,358,o),
(344,352,cs),
(266,143,l),
(258,123,l),
(257,123,l),
(250,143,l),
(170,348,l),
(168,355,o),
(166,364,o),
(166,369,cs),
(166,384,o),
(203,390,o),
(217,394,c),
(221,429,l),
(165,424,o),
(121,421,o),
(89,421,cs),
(60,421,o),
(31,424,o),
(-19,429,c),
(-12,392,l),
(21,388,o),
(27,385,o),
(43,348,cs),
(196,-9,l),
(162,-88,l),
(146,-116,o),
(119,-131,o),
(90,-131,cs),
(71,-131,o),
(55,-123,o),
(39,-113,c),
(16,-127,l),
(21,-157,o),
(37,-217,o),
(53,-244,c),
(70,-244,ls),
(139,-244,o),
(187,-200,o),
(213,-139,cs),
(423,352,ls)
);
}
);
width = 465;
}
);
unicode = 121;
},
{
glyphname = z;
lastChange = "2024-04-18 14:46:39 +0000";
layers = (
{
layerId = "619f1a1e-fd92-11ee-b280-8aa624eb3053";
shapes = (
{
closed = 1;
nodes = (
(35,0,l),
(351,0,l),
(357,22,o),
(377,109,o),
(378,132,c),
(347,138,l),
(340,116,o),
(309,56,o),
(296,43,c),
(131,43,l),
(369,393,l),
(358,416,l),
(165,416,ls),
(122,416,o),
(78,430,o),
(78,430,c),
(58,419,l),
(53,397,o),
(47,313,o),
(47,289,c),
(76,284,l),
(82,308,o),
(102,361,o),
(114,375,c),
(268,375,l),
(29,23,l)
);
}
);
width = 405;
},
{
layerId = "66e3d46a-fd92-11ee-8244-8aa624eb3053";
shapes = (
{
closed = 1;
nodes = (
(30,0,l),
(373,0,l),
(379,23,o),
(399,115,o),
(400,139,c),
(354,147,l),
(347,126,o),
(316,67,o),
(303,55,c),
(169,55,l),
(389,393,l),
(378,421,l),
(160,421,ls),
(110,421,o),
(63,435,o),
(63,435,c),
(38,419,l),
(32,397,o),
(32,311,o),
(32,287,c),
(76,280,l),
(82,303,o),
(102,355,o),
(114,368,c),
(245,368,l),
(24,28,l)
);
}
);
width = 419;
}
);
unicode = 122;
},
{
glyphname = ordfeminine;
lastChange = "2024-04-18 14:46:39 +0000";
layers = (
{
layerId = "619f1a1e-fd92-11ee-b280-8aa624eb3053";
shapes = (
{
closed = 1;
nodes = (
(283,579,o),
(250,610,o),
(182,610,cs),
(147,610,o),
(95,588,o),
(67,575,c),
(68,560,o),
(80,512,o),
(86,499,c),
(119,507,l),
(118,521,o),
(120,555,o),
(123,566,c),
(134,571,o),
(150,574,o),
(165,574,cs),
(204,574,o),
(213,541,o),
(213,502,cs),
(213,473,l),
(157,466,ls),
(98,459,o),
(50,444,o),
(50,385,cs),
(50,337,o),
(79,306,o),
(127,306,cs),
(161,306,o),
(187,327,o),
(218,351,c),
(222,333,o),
(239,312,o),
(252,306,c),
(274,316,o),
(312,329,o),
(335,333,c),
(329,364,l),
(311,361,o),
(297,362,o),
(290,365,c),
(285,369,o),
(283,374,o),
(283,386,cs),
(283,511,ls)
);
},
{
closed = 1;
nodes = (
(126,420,o),
(145,431,o),
(172,436,cs),
(213,443,l),
(213,378,l),
(198,366,o),
(179,358,o),
(161,358,cs),
(138,358,o),
(126,373,o),
(126,392,cs)
);
}
);
width = 381;
},
{
layerId = "66e3d46a-fd92-11ee-8244-8aa624eb3053";
shapes = (
{
closed = 1;
nodes = (
(288,582,o),
(253,615,o),
(182,615,cs),
(145,615,o),
(91,593,o),
(62,580,c),
(63,565,o),
(75,517,o),
(81,504,c),
(119,512,l),
(118,525,o),
(120,556,o),
(123,566,c),
(134,571,o),
(150,574,o),
(165,574,cs),
(196,574,o),
(203,541,o),
(203,502,cs),
(203,478,l),
(157,471,ls),
(95,464,o),
(45,448,o),
(45,385,cs),
(45,337,o),
(76,306,o),
(127,306,cs),
(157,306,o),
(181,329,o),
(208,356,c),
(214,336,o),
(235,313,o),
(252,306,c),
(275,316,o),
(316,329,o),
(340,333,c),
(332,369,l),
(314,366,o),
(302,367,o),
(295,370,c),
(290,374,o),
(288,379,o),
(288,391,cs),
(288,511,ls)
);
},
{
closed = 1;
nodes = (
(136,423,o),
(151,435,o),
(172,441,c),
(203,448,l),
(203,383,l),
(190,371,o),
(175,363,o),
(161,363,cs),
(144,363,o),
(136,376,o),
(136,392,cs)
);
}
);
width = 381;
}
);
unicode = 170;
},
{
glyphname = ordmasculine;
lastChange = "2024-04-18 14:46:39 +0000";
layers = (
{
layerId = "619f1a1e-fd92-11ee-b280-8aa624eb3053";
shapes = (
{
closed = 1;
nodes = (
(43,365,o),
(94,305,o),
(191,305,cs),
(279,305,o),
(339,372,o),
(339,466,cs),
(339,550,o),
(287,610,o),
(190,610,cs),
(102,610,o),
(43,543,o),
(43,452,cs)
);
},
{
closed = 1;
nodes = (
(122,534,o),
(141,569,o),
(181,569,cs),
(230,569,o),
(259,527,o),
(259,452,cs),
(259,380,o),
(240,346,o),
(200,346,cs),
(151,346,o),
(122,388,o),
(122,466,cs)
);
}
);
width = 382;
},
{
layerId = "66e3d46a-fd92-11ee-8244-8aa624eb3053";
shapes = (
{
closed = 1;
nodes = (
(38,367,o),
(91,305,o),
(191,305,cs),
(282,305,o),
(344,374,o),
(344,471,cs),
(344,555,o),
(290,615,o),
(190,615,cs),
(99,615,o),
(38,548,o),
(38,457,cs)
);
},
{
closed = 1;
nodes = (
(132,536,o),
(147,569,o),
(181,569,cs),
(224,569,o),
(249,529,o),
(249,457,cs),
(249,385,o),
(234,351,o),
(200,351,cs),
(157,351,o),
(132,393,o),
(132,471,cs)
);
}
);
width = 382;
}
);
unicode = 186;
},
{
glyphname = zero;
lastChange = "2024-04-18 14:46:39 +0000";
layers = (
{
layerId = "619f1a1e-fd92-11ee-b280-8aa624eb3053";
shapes = (
{
closed = 1;
nodes = (
(510,352,o),
(413,440,o),
(274,440,cs),
(134,440,o),
(37,344,o),
(37,214,cs),
(37,75,o),
(134,-14,o),
(274,-14,cs),
(413,-14,o),
(510,83,o),
(510,214,cs)
);
},
{
closed = 1;
nodes = (
(416,89,o),
(348,34,o),
(274,34,cs),
(199,34,o),
(131,89,o),
(131,214,cs),
(131,338,o),
(199,392,o),
(274,392,cs),
(348,392,o),
(416,338,o),
(416,214,cs)
);
}
);
width = 547;
},
{
layerId = "66e3d46a-fd92-11ee-8244-8aa624eb3053";
shapes = (
{
closed = 1;
nodes = (
(532,357,o),
(429,445,o),
(281,445,cs),
(132,445,o),
(29,349,o),
(29,219,cs),
(29,77,o),
(132,-14,o),
(281,-14,cs),
(429,-14,o),
(532,85,o),
(532,219,cs)
);
},
{
closed = 1;
nodes = (
(398,97,o),
(340,44,o),
(281,44,cs),
(221,44,o),
(163,97,o),
(163,219,cs),
(163,337,o),
(221,387,o),
(281,387,cs),
(340,387,o),
(398,337,o),
(398,219,cs)
);
}
);
width = 561;
}
);
unicode = 48;
},
{
glyphname = one;
lastChange = "2024-04-18 14:46:39 +0000";
layers = (
{
layerId = "619f1a1e-fd92-11ee-b280-8aa624eb3053";
shapes = (
{
closed = 1;
nodes = (
(180,440,l),
(144,434,o),
(58,411,o),
(22,397,c),
(28,373,l),
(80,373,ls),
(106,373,o),
(114,363,o),
(114,337,cs),
(114,71,ls),
(114,53,o),
(109,46,o),
(95,40,cs),
(76,31,o),
(23,24,o),
(23,24,c),
(30,-7,l),
(67,-2,o),
(129,0,o),
(155,0,cs),
(182,0,o),
(239,-2,o),
(276,-7,c),
(283,24,l),
(283,24,o),
(233,31,o),
(214,40,cs),
(200,46,o),
(196,53,o),
(196,71,cs),
(196,424,l)
);
}
);
width = 303;
},
{
layerId = "66e3d46a-fd92-11ee-8244-8aa624eb3053";
shapes = (
{
closed = 1;
nodes = (
(207,445,l),
(165,438,o),
(61,413,o),
(19,397,c),
(25,363,l),
(72,363,ls),
(98,363,o),
(106,353,o),
(106,327,cs),
(106,81,ls),
(106,63,o),
(100,56,o),
(87,49,cs),
(68,39,o),
(20,29,o),
(20,29,c),
(28,-8,l),
(69,-3,o),
(142,0,o),
(172,0,cs),
(201,0,o),
(261,-3,o),
(302,-8,c),
(310,29,l),
(310,29,o),
(265,39,o),
(246,49,cs),
(233,56,o),
(228,63,o),
(228,81,cs),
(228,424,l)
);
}
);
width = 323;
}
);
unicode = 49;
},
{
glyphname = two;
lastChange = "2024-04-18 14:46:39 +0000";
layers = (
{
layerId = "619f1a1e-fd92-11ee-b280-8aa624eb3053";
shapes = (
{
closed = 1;
nodes = (
(133,394,o),
(160,400,o),
(187,400,cs),
(241,400,o),
(268,362,o),
(268,311,cs),
(268,261,o),
(241,223,o),
(188,172,cs),
(151,134,o),
(76,72,o),
(44,47,c),
(50,0,l),
(375,0,l),
(381,22,o),
(402,119,o),
(403,141,c),
(371,148,l),
(365,126,o),
(330,71,o),
(316,57,c),
(135,57,l),
(131,66,l),
(156,83,o),
(208,118,o),
(246,148,cs),
(308,199,o),
(360,241,o),
(360,318,cs),
(360,406,o),
(286,440,o),
(200,440,cs),
(148,440,o),
(77,413,o),
(44,400,c),
(47,374,o),
(64,298,o),
(75,272,c),
(107,278,l),
(105,309,o),
(107,365,o),
(115,384,c)
);
}
);
width = 445;
},
{
layerId = "66e3d46a-fd92-11ee-8244-8aa624eb3053";
shapes = (
{
closed = 1;
nodes = (
(137,385,o),
(160,390,o),
(183,390,cs),
(222,390,o),
(239,356,o),
(239,311,cs),
(239,261,o),
(217,222,o),
(169,172,cs),
(133,135,o),
(57,76,o),
(25,52,c),
(31,0,l),
(386,0,l),
(391,23,o),
(407,123,o),
(408,146,c),
(366,153,l),
(360,133,o),
(330,84,o),
(317,72,c),
(161,72,l),
(157,81,l),
(180,95,o),
(229,122,o),
(262,148,cs),
(323,196,o),
(371,241,o),
(371,318,cs),
(371,410,o),
(291,445,o),
(196,445,cs),
(140,445,o),
(65,415,o),
(30,400,c),
(33,373,o),
(50,294,o),
(61,267,c),
(112,275,l),
(109,304,o),
(113,358,o),
(121,375,c)
);
}
);
width = 439;
}
);
unicode = 50;
},
{
glyphname = three;
lastChange = "2024-04-18 14:46:39 +0000";
layers = (
{
layerId = "619f1a1e-fd92-11ee-b280-8aa624eb3053";
shapes = (
{
closed = 1;
nodes = (
(217,135,o),
(296,112,o),
(296,0,cs),
(296,-75,o),
(245,-130,o),
(170,-130,cs),
(138,-130,o),
(111,-123,o),
(93,-115,c),
(87,-96,o),
(87,-37,o),
(89,-7,c),
(55,-1,l),
(45,-28,o),
(25,-112,o),
(23,-139,c),
(54,-150,o),
(133,-170,o),
(182,-170,cs),
(296,-170,o),
(388,-92,o),
(388,17,cs),
(388,120,o),
(309,169,o),
(230,169,c),
(230,178,l),
(290,197,o),
(358,248,o),
(358,322,cs),
(358,405,o),
(288,440,o),
(202,440,cs),
(149,440,o),
(75,413,o),
(42,400,c),
(45,374,o),
(62,296,o),
(73,272,c),
(105,278,l),
(103,309,o),
(105,365,o),
(112,384,c),
(128,394,o),
(162,400,o),
(186,400,cs),
(246,400,o),
(272,363,o),
(272,305,cs),
(272,232,o),
(189,181,o),
(131,168,c),
(129,129,l)
);
}
);
width = 435;
},
{
layerId = "66e3d46a-fd92-11ee-8244-8aa624eb3053";
shapes = (
{
closed = 1;
nodes = (
(198,125,o),
(266,108,o),
(266,0,cs),
(266,-66,o),
(225,-115,o),
(165,-115,cs),
(135,-115,o),
(110,-108,o),
(93,-100,c),
(89,-83,o),
(89,-30,o),
(89,-2,c),
(42,6,l),
(33,-22,o),
(10,-111,o),
(8,-139,c),
(41,-150,o),
(124,-170,o),
(177,-170,cs),
(300,-170,o),
(398,-92,o),
(398,17,cs),
(398,120,o),
(316,170,o),
(235,170,c),
(235,179,l),
(297,198,o),
(368,248,o),
(368,322,cs),
(368,409,o),
(292,445,o),
(197,445,cs),
(140,445,o),
(62,418,o),
(27,405,c),
(30,378,o),
(47,297,o),
(58,272,c),
(105,280,l),
(101,309,o),
(105,361,o),
(112,379,c),
(127,386,o),
(159,390,o),
(181,390,cs),
(224,390,o),
(242,357,o),
(242,305,cs),
(242,232,o),
(170,182,o),
(118,169,c),
(116,125,l)
);
}
);
width = 425;
}
);
unicode = 51;
},
{
glyphname = four;
lastChange = "2024-04-18 14:46:39 +0000";
layers = (
{
layerId = "619f1a1e-fd92-11ee-b280-8aa624eb3053";
shapes = (
{
closed = 1;
nodes = (
(418,0,l),
(434,57,l),
(352,57,l),
(352,432,l),
(292,432,l),
(15,42,l),
(41,0,l),
(270,0,l),
(270,-85,ls),
(270,-103,o),
(265,-110,o),
(251,-116,cs),
(232,-125,o),
(179,-132,o),
(179,-132,c),
(186,-163,l),
(223,-160,o),
(285,-156,o),
(311,-156,cs),
(334,-156,o),
(382,-160,o),
(412,-163,c),
(419,-132,l),
(419,-132,o),
(385,-125,o),
(370,-116,c),
(356,-110,o),
(352,-103,o),
(352,-85,cs),
(352,0,l)
);
},
{
closed = 1;
nodes = (
(257,304,l),
(266,327,l),
(270,326,l),
(270,57,l),
(92,57,l),
(87,66,l)
);
}
);
width = 455;
},
{
layerId = "66e3d46a-fd92-11ee-8244-8aa624eb3053";
shapes = (
{
closed = 1;
nodes = (
(429,0,l),
(447,67,l),
(370,67,l),
(370,432,l),
(267,432,l),
(5,47,l),
(36,0,l),
(250,0,l),
(250,-75,ls),
(250,-93,o),
(244,-100,o),
(231,-107,cs),
(212,-117,o),
(164,-127,o),
(164,-127,c),
(172,-164,l),
(212,-161,o),
(286,-156,o),
(316,-156,cs),
(341,-156,o),
(394,-160,o),
(424,-164,c),
(432,-127,l),
(432,-127,o),
(403,-118,o),
(388,-108,cs),
(375,-100,o),
(370,-93,o),
(370,-75,cs),
(370,0,l)
);
},
{
closed = 1;
nodes = (
(237,294,l),
(246,317,l),
(250,316,l),
(250,67,l),
(95,67,l),
(90,76,l)
);
}
);
width = 460;
}
);
unicode = 52;
},
{
glyphname = five;
lastChange = "2024-04-18 14:46:39 +0000";
layers = (
{
layerId = "619f1a1e-fd92-11ee-b280-8aa624eb3053";
shapes = (
{
closed = 1;
nodes = (
(198,162,o),
(276,128,o),
(276,9,cs),
(276,-70,o),
(231,-130,o),
(158,-130,cs),
(126,-130,o),
(96,-121,o),
(78,-114,c),
(73,-95,o),
(74,-34,o),
(76,-4,c),
(42,3,l),
(31,-24,o),
(10,-112,o),
(8,-139,c),
(41,-149,o),
(117,-170,o),
(170,-170,cs),
(278,-170,o),
(367,-89,o),
(367,25,cs),
(367,170,o),
(254,225,o),
(124,203,c),
(118,210,l),
(139,366,l),
(332,366,l),
(338,379,o),
(353,431,o),
(354,444,c),
(347,454,l),
(347,454,o),
(325,441,o),
(265,437,cs),
(102,426,l),
(59,180,l),
(87,145,l)
);
}
);
width = 397;
},
{
layerId = "66e3d46a-fd92-11ee-8244-8aa624eb3053";
shapes = (
{
closed = 1;
nodes = (
(183,156,o),
(255,126,o),
(255,11,cs),
(255,-59,o),
(220,-115,o),
(162,-115,cs),
(130,-115,o),
(100,-106,o),
(82,-99,c),
(77,-82,o),
(78,-27,o),
(80,1,c),
(31,9,l),
(20,-19,o),
(-1,-111,o),
(-3,-139,c),
(33,-149,o),
(115,-170,o),
(174,-170,cs),
(291,-170,o),
(386,-87,o),
(386,27,cs),
(386,172,o),
(277,225,o),
(153,203,c),
(147,210,l),
(168,361,l),
(351,361,l),
(358,375,o),
(377,430,o),
(378,444,c),
(366,459,l),
(366,459,o),
(344,446,o),
(284,442,cs),
(91,431,l),
(48,180,l),
(81,140,l)
);
}
);
width = 405;
}
);
unicode = 53;
},
{
glyphname = six;
lastChange = "2024-04-18 14:46:39 +0000";
layers = (
{
layerId = "619f1a1e-fd92-11ee-b280-8aa624eb3053";
shapes = (
{
closed = 1;
nodes = (
(239,359,o),
(213,355,o),
(204,351,cs),
(179,340,o),
(162,319,o),
(151,304,c),
(154,288,l),
(180,305,o),
(208,315,o),
(238,315,cs),
(311,315,o),
(339,244,o),
(339,168,cs),
(339,91,o),
(312,29,o),
(240,29,cs),
(156,29,o),
(132,143,o),
(132,230,cs),
(132,437,o),
(218,556,o),
(376,578,c),
(373,610,l),
(206,602,o),
(40,472,o),
(40,227,cs),
(40,91,o),
(102,-14,o),
(236,-14,cs),
(339,-14,o),
(427,67,o),
(427,182,cs),
(427,292,o),
(366,359,o),
(258,359,cs)
);
}
);
width = 460;
},
{
layerId = "66e3d46a-fd92-11ee-8244-8aa624eb3053";
shapes = (
{
closed = 1;
nodes = (
(256,364,o),
(241,362,o),
(233,358,cs),
(210,347,o),
(190,324,o),
(182,314,c),
(186,293,l),
(203,304,o),
(224,310,o),
(244,310,cs),
(297,310,o),
(320,241,o),
(320,168,cs),
(320,97,o),
(298,39,o),
(246,39,cs),
(182,39,o),
(163,147,o),
(163,230,cs),
(163,434,o),
(242,550,o),
(388,572,c),
(384,610,l),
(205,602,o),
(31,472,o),
(31,227,cs),
(31,91,o),
(99,-14,o),
(242,-14,cs),
(354,-14,o),
(448,67,o),
(448,182,cs),
(448,295,o),
(381,364,o),
(264,364,cs)
);
}
);
width = 475;
}
);
unicode = 54;
},
{
glyphname = seven;
lastChange = "2024-04-18 14:46:39 +0000";
layers = (
{
layerId = "619f1a1e-fd92-11ee-b280-8aa624eb3053";
shapes = (
{
closed = 1;
nodes = (
(333,358,l),
(195,165,o),
(76,-39,o),
(67,-158,c),
(76,-170,l),
(95,-170,o),
(143,-164,o),
(165,-156,c),
(169,-4,o),
(279,195,o),
(410,393,c),
(388,424,l),
(126,424,ls),
(104,424,o),
(56,426,o),
(32,429,c),
(30,416,o),
(29,392,o),
(29,366,cs),
(29,330,o),
(31,291,o),
(33,270,c),
(66,268,l),
(69,291,o),
(79,347,o),
(87,365,c),
(328,365,l)
);
}
);
width = 414;
},
{
layerId = "66e3d46a-fd92-11ee-8244-8aa624eb3053";
shapes = (
{
closed = 1;
nodes = (
(308,348,l),
(173,161,o),
(56,-37,o),
(47,-153,c),
(61,-170,l),
(86,-170,o),
(152,-164,o),
(180,-156,c),
(184,-4,o),
(292,195,o),
(420,393,c),
(393,429,l),
(126,429,ls),
(102,429,o),
(48,432,o),
(22,437,c),
(20,421,o),
(19,388,o),
(19,356,cs),
(19,322,o),
(21,287,o),
(23,267,c),
(71,263,l),
(74,285,o),
(84,338,o),
(92,355,c),
(303,355,l)
);
}
);
width = 414;
}
);
unicode = 55;
},
{
glyphname = eight;
lastChange = "2024-04-18 14:56:03 +0000";
layers = (
{
background = {
shapes = (
{
closed = 1;
nodes = (
(123,281,o),
(37,234,o),
(37,142,cs),
(37,35,o),
(120,-14,o),
(223,-14,cs),
(322,-14,o),
(420,54,o),
(420,155,cs),
(420,247,o),
(345,304,o),
(285,326,c),
(287,333,l),
(338,352,o),
(392,406,o),
(392,477,cs),
(392,566,o),
(320,610,o),
(230,610,cs),
(145,610,o),
(61,543,o),
(61,452,cs),
(61,375,o),
(117,322,o),
(164,303,c),
(165,296,l)
);
},
{
closed = 1;
nodes = (
(119,209,o),
(146,249,o),
(193,281,c),
(197,277,o),
(201,277,o),
(206,274,cs),
(272,237,o),
(336,197,o),
(336,132,cs),
(336,73,o),
(294,29,o),
(229,29,cs),
(157,29,o),
(119,82,o),
(119,152,cs)
);
},
{
closed = 1;
nodes = (
(319,420,o),
(294,381,o),
(254,347,c),
(194,380,o),
(138,417,o),
(138,478,cs),
(138,529,o),
(173,566,o),
(224,566,cs),
(285,566,o),
(319,529,o),
(319,468,cs)
);
}
);
};
layerId = "619f1a1e-fd92-11ee-b280-8aa624eb3053";
shapes = (
{
closed = 1;
nodes = (
(93,270,o),
(37,216,o),
(37,142,cs),
(37,35,o),
(120,-14,o),
(223,-14,cs),
(322,-14,o),
(420,54,o),
(420,155,cs),
(420,247,o),
(345,304,o),
(285,326,c),
(348,351,o),
(392,423,o),
(392,477,cs),
(392,566,o),
(320,610,o),
(230,610,cs),
(145,610,o),
(61,543,o),
(61,452,cs),
(61,375,o),
(120,317,o),
(173,299,c)
);
},
{
closed = 1;
nodes = (
(119,209,o),
(146,249,o),
(193,281,c),
(238,260,o),
(336,205,o),
(336,132,cs),
(336,73,o),
(294,29,o),
(229,29,cs),
(157,29,o),
(119,82,o),
(119,152,cs)
);
},
{
closed = 1;
nodes = (
(319,420,o),
(294,381,o),
(254,347,c),
(194,380,o),
(138,417,o),
(138,478,cs),
(138,529,o),
(173,566,o),
(224,566,cs),
(285,566,o),
(319,529,o),
(319,468,cs)
);
}
);
width = 457;
},
{
layerId = "66e3d46a-fd92-11ee-8244-8aa624eb3053";
shapes = (
{
closed = 1;
nodes = (
(85,268,o),
(30,213,o),
(30,142,cs),
(30,35,o),
(119,-14,o),
(231,-14,cs),
(339,-14,o),
(443,54,o),
(443,155,cs),
(443,250,o),
(377,293,o),
(310,331,c),
(367,357,o),
(415,407,o),
(415,477,cs),
(415,566,o),
(337,610,o),
(238,610,cs),
(144,610,o),
(54,543,o),
(54,452,cs),
(54,375,o),
(101,332,o),
(155,296,c)
);
},
{
closed = 1;
nodes = (
(152,201,o),
(170,242,o),
(197,271,c),
(260,234,o),
(319,200,o),
(319,132,cs),
(319,79,o),
(287,39,o),
(237,39,cs),
(180,39,o),
(152,88,o),
(152,152,cs)
);
},
{
closed = 1;
nodes = (
(302,423,o),
(283,384,o),
(263,357,c),
(212,387,o),
(171,420,o),
(171,478,cs),
(171,523,o),
(196,556,o),
(232,556,cs),
(278,556,o),
(302,523,o),
(302,468,cs)
);
}
);
width = 473;
}
);
unicode = 56;
},
{
glyphname = nine;
lastChange = "2024-04-18 15:02:03 +0000";
layers = (
{
layerId = "619f1a1e-fd92-11ee-b280-8aa624eb3053";
shapes = (
{
closed = 1;
nodes = (
(245,-163,o),
(420,-43,o),
(420,194,cs),
(420,333,o),
(361,440,o),
(226,440,cs),
(123,440,o),
(33,351,o),
(33,245,cs),
(33,140,o),
(101,72,o),
(202,72,cs),
(254,72,o),
(294,92,o),
(323,112,c),
(296,-57,o),
(178,-124,o),
(75,-138,c),
(78,-170,l)
);
},
{
closed = 1;
nodes = (
(150,115,o),
(121,183,o),
(121,260,cs),
(121,337,o),
(149,396,o),
(222,396,cs),
(308,396,o),
(328,288,o),
(328,197,cs),
(328,184,o),
(328,170,o),
(327,158,c),
(306,140,o),
(270,115,o),
(223,115,cs)
);
}
);
width = 460;
},
{
layerId = "66e3d46a-fd92-11ee-8244-8aa624eb3053";
shapes = (
{
closed = 1;
nodes = (
(255,-163,o),
(442,-43,o),
(442,194,cs),
(442,336,o),
(377,445,o),
(233,445,cs),
(121,445,o),
(25,354,o),
(25,245,cs),
(25,140,o),
(99,72,o),
(209,72,cs),
(243,72,o),
(274,81,o),
(302,95,c),
(275,-49,o),
(182,-117,o),
(77,-133,c),
(80,-170,l)
);
},
{
closed = 1;
nodes = (
(176,125,o),
(153,189,o),
(153,260,cs),
(153,334,o),
(176,391,o),
(229,391,cs),
(295,391,o),
(310,286,o),
(310,197,cs),
(310,181,o),
(309,165,o),
(309,149,c),
(285,135,o),
(259,125,o),
(230,125,cs)
);
}
);
width = 477;
}
);
unicode = 57;
},
{
glyphname = onehalf;
lastChange = "2024-04-18 14:46:39 +0000";
layers = (
{
layerId = "619f1a1e-fd92-11ee-b280-8aa624eb3053";
shapes = (
{
closed = 1;
nodes = (
(201,-16,l),
(561,663,l),
(521,687,l),
(161,8,l)
);
},
{
pos = (16,0);
ref = onesuperior;
},
{
pos = (391,-315);
ref = twosuperior;
}
);
width = 779;
},
{
layerId = "66e3d46a-fd92-11ee-8244-8aa624eb3053";
shapes = (
{
closed = 1;
nodes = (
(209,-16,l),
(566,657,l),
(513,687,l),
(157,15,l)
);
},
{
pos = (16,0);
ref = onesuperior;
},
{
pos = (391,-315);
ref = twosuperior;
}
);
width = 779;
}
);
unicode = 189;
},
{
glyphname = onequarter;
lastChange = "2024-04-18 14:46:39 +0000";
layers = (
{
layerId = "619f1a1e-fd92-11ee-b280-8aa624eb3053";
shapes = (
{
closed = 1;
nodes = (
(223,-16,l),
(583,663,l),
(543,687,l),
(183,8,l)
);
},
{
pos = (16,0);
ref = onesuperior;
},
{
pos = (373,-315);
ref = foursuperior;
}
);
width = 731;
},
{
layerId = "66e3d46a-fd92-11ee-8244-8aa624eb3053";
shapes = (
{
closed = 1;
nodes = (
(231,-16,l),
(588,657,l),
(535,687,l),
(179,15,l)
);
},
{
pos = (16,0);
ref = onesuperior;
},
{
pos = (373,-315);
ref = foursuperior;
}
);
width = 731;
}
);
unicode = 188;
},
{
glyphname = threequarters;
lastChange = "2024-04-18 14:46:39 +0000";
layers = (
{
layerId = "619f1a1e-fd92-11ee-b280-8aa624eb3053";
shapes = (
{
closed = 1;
nodes = (
(230,-16,l),
(590,663,l),
(550,687,l),
(190,8,l)
);
},
{
pos = (13,0);
ref = threesuperior;
},
{
pos = (380,-315);
ref = foursuperior;
}
);
width = 738;
},
{
layerId = "66e3d46a-fd92-11ee-8244-8aa624eb3053";
shapes = (
{
closed = 1;
nodes = (
(237,-16,l),
(594,657,l),
(541,687,l),
(185,15,l)
);
},
{
pos = (13,0);
ref = threesuperior;
},
{
pos = (380,-315);
ref = foursuperior;
}
);
width = 738;
}
);
unicode = 190;
},
{
glyphname = onesuperior;
lastChange = "2024-04-18 14:46:39 +0000";
layers = (
{
layerId = "619f1a1e-fd92-11ee-b280-8aa624eb3053";
shapes = (
{
closed = 1;
nodes = (
(171,666,l),
(141,661,o),
(75,640,o),
(46,628,c),
(50,604,l),
(90,604,ls),
(111,604,o),
(118,596,o),
(118,575,cs),
(118,379,ls),
(118,366,o),
(113,360,o),
(103,355,cs),
(88,347,o),
(48,342,o),
(48,342,c),
(55,310,l),
(84,314,o),
(133,315,o),
(154,315,cs),
(175,315,o),
(218,314,o),
(248,310,c),
(253,342,l),
(253,342,o),
(217,347,o),
(202,355,cs),
(192,360,o),
(188,366,o),
(188,379,cs),
(188,649,l)
);
}
);
width = 293;
},
{
layerId = "66e3d46a-fd92-11ee-8244-8aa624eb3053";
shapes = (
{
closed = 1;
nodes = (
(176,666,l),
(143,660,o),
(68,637,o),
(36,623,c),
(40,594,l),
(80,594,ls),
(101,594,o),
(108,586,o),
(108,565,cs),
(108,384,ls),
(108,371,o),
(103,365,o),
(93,359,cs),
(77,349,o),
(41,346,o),
(41,346,c),
(48,310,l),
(79,314,o),
(131,315,o),
(154,315,cs),
(176,315,o),
(219,314,o),
(251,310,c),
(256,346,l),
(256,346,o),
(223,349,o),
(207,359,cs),
(197,365,o),
(193,371,o),
(193,384,cs),
(193,649,l)
);
}
);
width = 293;
}
);
unicode = 185;
},
{
glyphname = twosuperior;
lastChange = "2024-04-18 14:46:39 +0000";
layers = (
{
layerId = "619f1a1e-fd92-11ee-b280-8aa624eb3053";
shapes = (
{
closed = 1;
nodes = (
(119,619,o),
(138,624,o),
(156,624,cs),
(190,624,o),
(206,598,o),
(206,563,cs),
(206,526,o),
(187,497,o),
(150,459,c),
(123,426,o),
(69,376,o),
(45,355,c),
(50,315,l),
(299,315,l),
(304,331,o),
(320,401,o),
(320,417,c),
(293,422,l),
(288,407,o),
(262,370,o),
(251,361,c),
(130,361,l),
(127,368,l),
(145,382,o),
(182,411,o),
(209,436,cs),
(250,475,o),
(285,509,o),
(285,568,cs),
(285,638,o),
(230,665,o),
(166,665,cs),
(126,665,o),
(71,645,o),
(45,635,c),
(48,615,o),
(63,558,o),
(73,539,c),
(105,543,l),
(103,564,o),
(104,600,o),
(106,612,c)
);
}
);
width = 367;
},
{
layerId = "66e3d46a-fd92-11ee-8244-8aa624eb3053";
shapes = (
{
closed = 1;
nodes = (
(119,614,o),
(138,619,o),
(156,619,cs),
(184,619,o),
(196,595,o),
(196,563,cs),
(196,526,o),
(178,498,o),
(145,459,cs),
(117,427,o),
(64,376,o),
(40,355,c),
(45,315,l),
(304,315,l),
(309,332,o),
(325,405,o),
(325,422,c),
(298,427,l),
(293,412,o),
(267,375,o),
(256,366,c),
(140,366,l),
(137,373,l),
(154,386,o),
(189,413,o),
(214,436,cs),
(255,475,o),
(290,509,o),
(290,568,cs),
(290,638,o),
(233,665,o),
(166,665,cs),
(124,665,o),
(67,645,o),
(40,635,c),
(43,614,o),
(58,554,o),
(68,534,c),
(105,538,l),
(103,559,o),
(104,595,o),
(106,607,c)
);
}
);
width = 367;
}
);
unicode = 178;
},
{
glyphname = threesuperior;
lastChange = "2024-04-18 14:46:39 +0000";
layers = (
{
layerId = "619f1a1e-fd92-11ee-b280-8aa624eb3053";
shapes = (
{
closed = 1;
nodes = (
(173,479,o),
(221,467,o),
(221,406,cs),
(221,371,o),
(189,347,o),
(146,347,cs),
(126,347,o),
(111,350,o),
(99,354,c),
(95,365,o),
(95,400,o),
(96,421,c),
(67,425,l),
(60,406,o),
(44,344,o),
(43,324,c),
(65,318,o),
(122,306,o),
(155,306,cs),
(234,306,o),
(300,352,o),
(300,418,cs),
(300,478,o),
(247,502,o),
(198,502,c),
(198,509,l),
(236,516,o),
(278,547,o),
(278,587,cs),
(278,642,o),
(226,666,o),
(165,666,cs),
(126,666,o),
(73,648,o),
(48,641,c),
(50,623,o),
(61,568,o),
(71,551,c),
(99,556,l),
(98,574,o),
(101,608,o),
(102,618,c),
(113,623,o),
(137,625,o),
(153,625,cs),
(185,625,o),
(203,605,o),
(203,574,cs),
(203,539,o),
(158,511,o),
(128,505,c),
(126,475,l)
);
}
);
width = 347;
},
{
layerId = "66e3d46a-fd92-11ee-8244-8aa624eb3053";
shapes = (
{
closed = 1;
nodes = (
(168,478,o),
(211,467,o),
(211,406,cs),
(211,374,o),
(183,352,o),
(146,352,cs),
(126,352,o),
(111,355,o),
(99,359,c),
(95,370,o),
(95,405,o),
(96,426,c),
(62,430,l),
(54,410,o),
(39,345,o),
(38,324,c),
(61,318,o),
(121,306,o),
(155,306,cs),
(237,306,o),
(305,352,o),
(305,418,cs),
(305,478,o),
(249,502,o),
(198,502,c),
(198,509,l),
(238,516,o),
(283,547,o),
(283,587,cs),
(283,642,o),
(229,666,o),
(165,666,cs),
(124,666,o),
(69,648,o),
(43,641,c),
(45,622,o),
(56,564,o),
(66,546,c),
(99,551,l),
(98,569,o),
(101,603,o),
(102,613,c),
(113,618,o),
(137,620,o),
(153,620,cs),
(179,620,o),
(193,602,o),
(193,574,cs),
(193,542,o),
(154,515,o),
(128,509,c),
(126,474,l)
);
}
);
width = 347;
}
);
unicode = 179;
},
{
glyphname = foursuperior;
lastChange = "2024-04-18 14:46:39 +0000";
layers = (
{
layerId = "619f1a1e-fd92-11ee-b280-8aa624eb3053";
shapes = (
{
closed = 1;
nodes = (
(282,415,l),
(292,461,l),
(243,461,l),
(243,666,l),
(180,666,l),
(24,452,l),
(46,415,l),
(173,415,l),
(173,370,ls),
(173,359,o),
(169,355,o),
(162,351,c),
(151,346,o),
(119,342,o),
(119,342,c),
(123,310,l),
(147,312,o),
(190,315,o),
(207,315,cs),
(224,315,o),
(259,312,o),
(279,310,c),
(283,342,l),
(283,342,o),
(263,346,o),
(254,351,cs),
(246,355,o),
(243,359,o),
(243,370,cs),
(243,415,l)
);
},
{
closed = 1;
nodes = (
(165,586,l),
(171,600,l),
(173,599,l),
(173,461,l),
(81,461,l),
(78,466,l)
);
}
);
width = 335;
},
{
layerId = "66e3d46a-fd92-11ee-8244-8aa624eb3053";
shapes = (
{
closed = 1;
nodes = (
(287,413,l),
(297,463,l),
(248,463,l),
(248,666,l),
(168,666,l),
(12,452,l),
(36,413,l),
(163,413,l),
(163,373,ls),
(163,362,o),
(159,358,o),
(152,354,c),
(141,349,o),
(110,344,o),
(110,344,c),
(114,310,l),
(138,312,o),
(190,315,o),
(207,315,cs),
(225,315,o),
(263,312,o),
(284,310,c),
(288,344,l),
(288,344,o),
(268,349,o),
(259,354,cs),
(251,358,o),
(248,362,o),
(248,373,cs),
(248,413,l)
);
},
{
closed = 1;
nodes = (
(155,588,l),
(161,602,l),
(163,601,l),
(163,463,l),
(71,463,l),
(68,468,l)
);
}
);
width = 335;
}
);
unicode = 8308;
},
{
glyphname = period;
lastChange = "2024-04-18 14:46:39 +0000";
layers = (
{
layerId = "619f1a1e-fd92-11ee-b280-8aa624eb3053";
shapes = (
{
closed = 1;
nodes = (
(40,17,o),
(65,-8,o),
(102,-8,cs),
(139,-8,o),
(165,17,o),
(165,51,cs),
(165,85,o),
(139,110,o),
(102,110,cs),
(63,110,o),
(40,85,o),
(40,51,cs)
);
}
);
width = 205;
},
{
layerId = "66e3d46a-fd92-11ee-8244-8aa624eb3053";
shapes = (
{
closed = 1;
nodes = (
(40,14,o),
(74,-16,o),
(123,-16,cs),
(173,-16,o),
(207,14,o),
(207,58,cs),
(207,102,o),
(173,132,o),
(123,132,cs),
(73,132,o),
(40,102,o),
(40,58,cs)
);
}
);
width = 247;
}
);
unicode = 46;
},
{
glyphname = comma;
lastChange = "2024-04-18 14:46:39 +0000";
layers = (
{
layerId = "619f1a1e-fd92-11ee-b280-8aa624eb3053";
shapes = (
{
closed = 1;
nodes = (
(98,18,o),
(122,9,o),
(122,-11,cs),
(122,-58,o),
(76,-126,o),
(52,-159,c),
(76,-178,l),
(116,-137,o),
(197,-30,o),
(197,30,cs),
(197,77,o),
(148,108,o),
(114,111,c),
(93,97,o),
(60,62,o),
(48,41,c),
(56,21,l)
);
}
);
width = 239;
},
{
layerId = "66e3d46a-fd92-11ee-8244-8aa624eb3053";
shapes = (
{
closed = 1;
nodes = (
(89,14,o),
(112,7,o),
(112,-10,cs),
(112,-57,o),
(67,-125,o),
(45,-158,c),
(75,-182,l),
(122,-140,o),
(215,-30,o),
(215,32,cs),
(215,83,o),
(155,117,o),
(114,120,c),
(88,106,o),
(50,69,o),
(35,48,c),
(49,17,l)
);
}
);
width = 255;
}
);
unicode = 44;
},
{
glyphname = colon;
lastChange = "2024-04-18 14:46:39 +0000";
layers = (
{
layerId = "619f1a1e-fd92-11ee-b280-8aa624eb3053";
shapes = (
{
closed = 1;
nodes = (
(64,18,o),
(87,-7,o),
(126,-7,cs),
(163,-7,o),
(189,18,o),
(189,52,cs),
(189,86,o),
(163,111,o),
(126,111,cs),
(86,111,o),
(64,86,o),
(64,52,cs)
);
},
{
closed = 1;
nodes = (
(64,316,o),
(87,291,o),
(126,291,cs),
(163,291,o),
(189,316,o),
(189,351,cs),
(189,385,o),
(163,410,o),
(126,410,cs),
(86,410,o),
(64,385,o),
(64,351,cs)
);
}
);
width = 253;
},
{
layerId = "66e3d46a-fd92-11ee-8244-8aa624eb3053";
shapes = (
{
closed = 1;
nodes = (
(40,14,o),
(74,-16,o),
(123,-16,cs),
(173,-16,o),
(207,14,o),
(207,58,cs),
(207,102,o),
(173,132,o),
(123,132,cs),
(73,132,o),
(40,102,o),
(40,58,cs)
);
},
{
closed = 1;
nodes = (
(40,309,o),
(74,279,o),
(123,279,cs),
(173,279,o),
(207,309,o),
(207,353,cs),
(207,397,o),
(173,427,o),
(123,427,cs),
(73,427,o),
(40,397,o),
(40,353,cs)
);
}
);
width = 247;
}
);
unicode = 58;
},
{
glyphname = semicolon;
lastChange = "2024-04-18 14:56:47 +0000";
layers = (
{
layerId = "619f1a1e-fd92-11ee-b280-8aa624eb3053";
shapes = (
{
closed = 1;
nodes = (
(98,18,o),
(122,9,o),
(122,-11,cs),
(122,-58,o),
(76,-126,o),
(52,-159,c),
(76,-178,l),
(116,-137,o),
(197,-30,o),
(197,30,cs),
(197,77,o),
(148,108,o),
(114,111,c),
(93,97,o),
(60,62,o),
(48,41,c),
(56,21,l)
);
},
{
closed = 1;
nodes = (
(56,316,o),
(79,291,o),
(118,291,cs),
(155,291,o),
(181,316,o),
(181,351,cs),
(181,385,o),
(155,410,o),
(118,410,cs),
(78,410,o),
(56,385,o),
(56,351,cs)
);
}
);
width = 239;
},
{
layerId = "66e3d46a-fd92-11ee-8244-8aa624eb3053";
shapes = (
{
closed = 1;
nodes = (
(89,14,o),
(112,7,o),
(112,-10,cs),
(112,-57,o),
(67,-125,o),
(45,-158,c),
(75,-182,l),
(122,-140,o),
(215,-30,o),
(215,32,cs),
(215,83,o),
(155,117,o),
(114,120,c),
(88,106,o),
(50,69,o),
(35,48,c),
(49,17,l)
);
},
{
closed = 1;
nodes = (
(40,309,o),
(74,279,o),
(123,279,cs),
(173,279,o),
(207,309,o),
(207,353,cs),
(207,397,o),
(173,427,o),
(123,427,cs),
(73,427,o),
(40,397,o),
(40,353,cs)
);
}
);
width = 255;
}
);
unicode = 59;
},
{
glyphname = ellipsis;
lastChange = "2024-04-18 14:46:39 +0000";
layers = (
{
layerId = "619f1a1e-fd92-11ee-b280-8aa624eb3053";
shapes = (
{
closed = 1;
nodes = (
(110,12,o),
(131,-8,o),
(162,-8,cs),
(194,-8,o),
(215,12,o),
(215,42,cs),
(215,71,o),
(194,93,o),
(162,93,cs),
(130,93,o),
(110,71,o),
(110,42,cs)
);
},
{
closed = 1;
nodes = (
(363,12,o),
(384,-8,o),
(415,-8,cs),
(447,-8,o),
(468,12,o),
(468,42,cs),
(468,71,o),
(447,93,o),
(415,93,cs),
(383,93,o),
(363,71,o),
(363,42,cs)
);
},
{
closed = 1;
nodes = (
(616,12,o),
(636,-8,o),
(668,-8,cs),
(700,-8,o),
(721,12,o),
(721,42,cs),
(721,71,o),
(700,93,o),
(668,93,cs),
(635,93,o),
(616,71,o),
(616,42,cs)
);
}
);
width = 831;
},
{
layerId = "66e3d46a-fd92-11ee-8244-8aa624eb3053";
shapes = (
{
closed = 1;
nodes = (
(65,13,o),
(96,-14,o),
(140,-14,cs),
(185,-14,o),
(216,13,o),
(216,53,cs),
(216,93,o),
(185,120,o),
(140,120,cs),
(95,120,o),
(65,93,o),
(65,53,cs)
);
},
{
closed = 1;
nodes = (
(354,13,o),
(385,-14,o),
(429,-14,cs),
(474,-14,o),
(505,13,o),
(505,53,cs),
(505,93,o),
(474,120,o),
(429,120,cs),
(384,120,o),
(354,93,o),
(354,53,cs)
);
},
{
closed = 1;
nodes = (
(643,13,o),
(674,-14,o),
(718,-14,cs),
(763,-14,o),
(794,13,o),
(794,53,cs),
(794,93,o),
(763,120,o),
(718,120,cs),
(673,120,o),
(643,93,o),
(643,53,cs)
);
}
);
width = 859;
}
);
unicode = 8230;
},
{
glyphname = exclam;
lastChange = "2024-04-18 14:48:48 +0000";
layers = (
{
layerId = "619f1a1e-fd92-11ee-b280-8aa624eb3053";
shapes = (
{
closed = 1;
nodes = (
(69,15,o),
(92,-8,o),
(126,-8,cs),
(161,-8,o),
(182,15,o),
(182,46,cs),
(182,77,o),
(160,100,o),
(126,100,cs),
(92,100,o),
(69,77,o),
(69,46,cs)
);
},
{
closed = 1;
nodes = (
(76,660,o),
(92,447,o),
(96,358,cs),
(103,200,l),
(115,193,l),
(144,201,l),
(154,309,ls),
(165,435,o),
(185,658,o),
(185,658,c),
(174,666,o),
(110,676,o),
(89,676,c),
(76,660,l)
);
}
);
width = 253;
},
{
layerId = "66e3d46a-fd92-11ee-8244-8aa624eb3053";
shapes = (
{
closed = 1;
nodes = (
(52,14,o),
(86,-16,o),
(135,-16,cs),
(185,-16,o),
(219,14,o),
(219,58,cs),
(219,102,o),
(185,132,o),
(135,132,cs),
(85,132,o),
(52,102,o),
(52,58,cs)
);
},
{
closed = 1;
nodes = (
(65,660,o),
(86,447,o),
(90,358,cs),
(97,205,l),
(114,193,l),
(168,206,l),
(178,309,ls),
(190,435,o),
(209,658,o),
(209,658,c),
(191,666,o),
(106,676,o),
(78,676,c),
(65,660,l)
);
}
);
width = 271;
}
);
unicode = 33;
},
{
glyphname = exclamdown;
lastChange = "2024-04-18 15:01:16 +0000";
layers = (
{
layerId = "619f1a1e-fd92-11ee-b280-8aa624eb3053";
shapes = (
{
closed = 1;
nodes = (
(71,339,o),
(93,316,o),
(127,316,cs),
(161,316,o),
(184,339,o),
(184,370,cs),
(184,401,o),
(161,424,o),
(127,424,cs),
(92,424,o),
(71,401,o),
(71,370,cs)
);
},
{
closed = 1;
nodes = (
(177,-244,o),
(160,-31,o),
(156,58,cs),
(149,216,l),
(136,223,l),
(108,215,l),
(98,107,ls),
(86,-19,o),
(68,-242,o),
(68,-242,c),
(79,-250,o),
(142,-260,o),
(163,-260,c),
(177,-244,l)
);
}
);
width = 253;
},
{
layerId = "66e3d46a-fd92-11ee-8244-8aa624eb3053";
shapes = (
{
closed = 1;
nodes = (
(52,319,o),
(86,289,o),
(136,289,cs),
(186,289,o),
(219,319,o),
(219,363,cs),
(219,407,o),
(185,437,o),
(136,437,cs),
(86,437,o),
(52,407,o),
(52,363,cs)
);
},
{
closed = 1;
nodes = (
(206,-244,o),
(185,-27,o),
(181,63,cs),
(174,216,l),
(157,228,l),
(103,215,l),
(93,112,ls),
(81,-16,o),
(62,-242,o),
(62,-242,c),
(80,-250,o),
(165,-260,o),
(193,-260,c),
(206,-244,l)
);
}
);
width = 271;
}
);
unicode = 161;
},
{
glyphname = question;
lastChange = "2024-04-18 14:46:39 +0000";
layers = (
{
layerId = "619f1a1e-fd92-11ee-b280-8aa624eb3053";
shapes = (
{
closed = 1;
nodes = (
(124,231,o),
(156,194,o),
(175,176,c),
(199,196,l),
(199,196,o),
(187,225,o),
(187,245,cs),
(187,283,o),
(233,322,o),
(281,363,cs),
(330,405,o),
(380,449,o),
(380,510,cs),
(380,613,o),
(316,659,o),
(226,659,cs),
(176,659,o),
(101,635,o),
(50,612,c),
(50,581,o),
(69,506,o),
(76,482,c),
(110,490,l),
(113,580,o),
(137,618,o),
(207,618,cs),
(254,618,o),
(300,583,o),
(300,524,cs),
(300,485,o),
(266,450,o),
(228,415,cs),
(175,366,o),
(110,313,o),
(110,267,c)
);
},
{
closed = 1;
nodes = (
(113,15,o),
(135,-8,o),
(170,-8,cs),
(204,-8,o),
(227,15,o),
(227,46,cs),
(227,77,o),
(204,100,o),
(170,100,cs),
(134,100,o),
(113,77,o),
(113,46,cs)
);
}
);
width = 432;
},
{
layerId = "66e3d46a-fd92-11ee-8244-8aa624eb3053";
shapes = (
{
closed = 1;
nodes = (
(126,243,o),
(158,200,o),
(176,182,c),
(215,215,l),
(215,215,o),
(210,242,o),
(210,262,cs),
(210,298,o),
(251,331,o),
(295,367,cs),
(347,409,o),
(403,455,o),
(403,517,cs),
(403,620,o),
(333,666,o),
(234,666,cs),
(183,666,o),
(105,642,o),
(53,619,c),
(53,587,o),
(72,509,o),
(79,484,c),
(133,495,l),
(136,582,o),
(157,615,o),
(215,615,cs),
(249,615,o),
(283,584,o),
(283,531,cs),
(283,492,o),
(252,456,o),
(217,421,cs),
(170,374,o),
(115,329,o),
(113,279,c)
);
},
{
closed = 1;
nodes = (
(108,14,o),
(142,-16,o),
(191,-16,cs),
(241,-16,o),
(275,14,o),
(275,58,cs),
(275,102,o),
(241,132,o),
(191,132,cs),
(141,132,o),
(108,102,o),
(108,58,cs)
);
}
);
width = 442;
}
);
unicode = 63;
},
{
glyphname = periodcentered;
lastChange = "2024-04-18 14:46:39 +0000";
layers = (
{
layerId = "619f1a1e-fd92-11ee-b280-8aa624eb3053";
shapes = (
{
closed = 1;
nodes = (
(87,241,o),
(110,219,o),
(142,219,cs),
(175,219,o),
(198,241,o),
(198,271,cs),
(198,301,o),
(175,324,o),
(142,324,cs),
(109,324,o),
(87,301,o),
(87,271,cs)
);
}
);
width = 285;
},
{
layerId = "66e3d46a-fd92-11ee-8244-8aa624eb3053";
shapes = (
{
closed = 1;
nodes = (
(57,234,o),
(91,204,o),
(140,204,cs),
(190,204,o),
(224,234,o),
(224,277,cs),
(224,320,o),
(190,350,o),
(140,350,cs),
(90,350,o),
(57,320,o),
(57,277,cs)
);
}
);
width = 285;
}
);
unicode = 183;
},
{
glyphname = asterisk;
lastChange = "2024-04-18 14:53:02 +0000";
layers = (
{
layerId = "619f1a1e-fd92-11ee-b280-8aa624eb3053";
shapes = (
{
closed = 1;
nodes = (
(303,622,o),
(263,600,o),
(232,582,c),
(242,623,o),
(253,688,o),
(253,712,c),
(226,722,o),
(194,723,o),
(188,723,c),
(169,712,l),
(173,662,o),
(182,617,o),
(190,582,c),
(153,604,o),
(96,635,o),
(74,643,c),
(55,620,o),
(45,596,o),
(42,584,c),
(48,562,l),
(96,551,o),
(142,546,o),
(176,542,c),
(145,515,o),
(98,469,o),
(83,450,c),
(100,426,o),
(120,407,o),
(129,402,c),
(152,401,l),
(177,442,o),
(196,483,o),
(210,516,c),
(227,478,o),
(255,419,o),
(269,401,c),
(297,407,o),
(321,422,o),
(328,429,c),
(338,450,l),
(305,486,o),
(271,518,o),
(245,542,c),
(286,546,o),
(351,554,o),
(374,562,c),
(376,591,o),
(369,618,o),
(365,627,c),
(348,643,l)
);
}
);
width = 417;
},
{
layerId = "66e3d46a-fd92-11ee-8244-8aa624eb3053";
shapes = (
{
closed = 1;
nodes = (
(346.333,620.667,o),
(307.667,605.333,o),
(269,590,c),
(278,641,o),
(286,692,o),
(286,714,c),
(272,720,o),
(227,728,o),
(206,728,c),
(186,719,l),
(188.667,677,o),
(191.333,635,o),
(194,593,c),
(148,618,o),
(100,642,o),
(80,649,c),
(68,638,o),
(48,597,o),
(42,577,c),
(44,555,l),
(84.667,544.667,o),
(125.333,534.333,o),
(166,524,c),
(128,488,o),
(90,451,o),
(78,433,c),
(85,418,o),
(118,387,o),
(135,375,c),
(157,370,l),
(179.333,405.333,o),
(201.667,440.667,o),
(224,476,c),
(246,429,o),
(270,382,o),
(283,364,c),
(300,366,o),
(339,388,o),
(356,401,c),
(368,420,l),
(341.333,452,o),
(314.667,484,o),
(288,516,c),
(339,523,o),
(391,531,o),
(412,538,c),
(415,555,o),
(406,599,o),
(399,619,c),
(385,636,l)
);
}
);
width = 455;
}
);
unicode = 42;
},
{
glyphname = numbersign;
lastChange = "2024-04-18 14:51:50 +0000";
layers = (
{
layerId = "619f1a1e-fd92-11ee-b280-8aa624eb3053";
shapes = (
{
closed = 1;
nodes = (
(334,0,l),
(359,174,l),
(468,174,l),
(480,238,l),
(368,238,l),
(375,286,o),
(382,335,o),
(389,383,c),
(497,383,l),
(510,447,l),
(398,447,l),
(421,608,l),
(368,608,l),
(345,447,l),
(226,447,l),
(250,608,l),
(197,608,l),
(174,447,l),
(64,447,l),
(52,383,l),
(164,383,l),
(157,335,o),
(151,286,o),
(144,238,c),
(35,238,l),
(23,174,l),
(134,174,l),
(109,0,l),
(161,0,l),
(186,174,l),
(306,174,l),
(281,0,l)
);
},
{
closed = 1;
nodes = (
(336,383,l),
(329,335,o),
(322,286,o),
(315,238,c),
(196,238,l),
(216,383,l)
);
}
);
width = 541;
},
{
layerId = "66e3d46a-fd92-11ee-8244-8aa624eb3053";
shapes = (
{
closed = 1;
nodes = (
(362,0,l),
(387,169,l),
(492,169,l),
(506,243,l),
(397,243,l),
(404,288,o),
(409,329,o),
(416,372,c),
(521,372,l),
(535,446,l),
(426,446,l),
(449,603,l),
(380,603,l),
(357,446,l),
(259,446,l),
(282,603,l),
(213,603,l),
(191,446,l),
(84,446,l),
(71,372,l),
(180,372,l),
(175,328,o),
(167,287,o),
(161,243,c),
(56,243,l),
(42,169,l),
(150,169,l),
(126,0,l),
(194,0,l),
(218,169,l),
(317,169,l),
(293,0,l)
);
},
{
closed = 1;
nodes = (
(347,372,l),
(340,328,o),
(335,287,o),
(328,243,c),
(229,243,l),
(248,372,l)
);
}
);
width = 577;
}
);
unicode = 35;
},
{
glyphname = slash;
lastChange = "2024-04-18 14:46:39 +0000";
layers = (
{
layerId = "619f1a1e-fd92-11ee-b280-8aa624eb3053";
shapes = (
{
closed = 1;
nodes = (
(78,-170,l),
(418,639,l),
(363,667,l),
(23,-142,l)
);
}
);
width = 441;
},
{
layerId = "66e3d46a-fd92-11ee-8244-8aa624eb3053";
shapes = (
{
closed = 1;
nodes = (
(101,-170,l),
(414,628,l),
(340,667,l),
(27,-131,l)
);
}
);
width = 441;
}
);
unicode = 47;
},
{
glyphname = backslash;
lastChange = "2024-04-18 14:46:39 +0000";
layers = (
{
layerId = "619f1a1e-fd92-11ee-b280-8aa624eb3053";
shapes = (
{
closed = 1;
nodes = (
(363,-170,l),
(23,639,l),
(78,667,l),
(418,-142,l)
);
}
);
width = 441;
},
{
layerId = "66e3d46a-fd92-11ee-8244-8aa624eb3053";
shapes = (
{
closed = 1;
nodes = (
(340,-170,l),
(27,628,l),
(101,667,l),
(414,-131,l)
);
}
);
width = 441;
}
);
unicode = 92;
},
{
glyphname = hyphen;
lastChange = "2024-04-18 14:46:39 +0000";
layers = (
{
layerId = "619f1a1e-fd92-11ee-b280-8aa624eb3053";
shapes = (
{
closed = 1;
nodes = (
(258,192,l),
(268,257,l),
(46,257,l),
(35,192,l)
);
}
);
width = 304;
},
{
layerId = "66e3d46a-fd92-11ee-8244-8aa624eb3053";
shapes = (
{
closed = 1;
nodes = (
(268,185,l),
(282,274,l),
(48,274,l),
(33,185,l)
);
}
);
width = 315;
}
);
unicode = 45;
},
{
glyphname = endash;
lastChange = "2024-04-18 14:46:39 +0000";
layers = (
{
layerId = "619f1a1e-fd92-11ee-b280-8aa624eb3053";
shapes = (
{
closed = 1;
nodes = (
(563,194,l),
(571,255,l),
(4,255,l),
(-4,194,l)
);
}
);
width = 567;
},
{
layerId = "66e3d46a-fd92-11ee-8244-8aa624eb3053";
shapes = (
{
closed = 1;
nodes = (
(572,189,l),
(582,270,l),
(5,270,l),
(-5,189,l)
);
}
);
width = 577;
}
);
unicode = 8211;
},
{
glyphname = emdash;
lastChange = "2024-04-18 14:46:39 +0000";
layers = (
{
layerId = "619f1a1e-fd92-11ee-b280-8aa624eb3053";
shapes = (
{
closed = 1;
nodes = (
(832,194,l),
(840,255,l),
(4,255,l),
(-4,194,l)
);
}
);
width = 836;
},
{
layerId = "66e3d46a-fd92-11ee-8244-8aa624eb3053";
shapes = (
{
closed = 1;
nodes = (
(833,189,l),
(843,270,l),
(5,270,l),
(-5,189,l)
);
}
);
width = 838;
}
);
unicode = 8212;
},
{
glyphname = underscore;
lastChange = "2024-04-18 14:46:39 +0000";
layers = (
{
layerId = "619f1a1e-fd92-11ee-b280-8aa624eb3053";
shapes = (
{
closed = 1;
nodes = (
(500,-156,l),
(500,-107,l),
(0,-107,l),
(0,-156,l)
);
}
);
width = 500;
},
{
layerId = "66e3d46a-fd92-11ee-8244-8aa624eb3053";
shapes = (
{
closed = 1;
nodes = (
(500,-156,l),
(500,-87,l),
(0,-87,l),
(0,-156,l)
);
}
);
width = 500;
}
);
unicode = 95;
},
{
glyphname = parenleft;
lastChange = "2024-04-18 14:46:39 +0000";
layers = (
{
layerId = "619f1a1e-fd92-11ee-b280-8aa624eb3053";
shapes = (
{
closed = 1;
nodes = (
(154,582,o),
(77,429,o),
(77,250,cs),
(77,68,o),
(154,-85,o),
(269,-170,c),
(292,-150,l),
(197,-53,o),
(166,73,o),
(166,250,cs),
(166,421,o),
(194,546,o),
(289,643,c),
(269,666,l)
);
}
);
width = 323;
},
{
layerId = "66e3d46a-fd92-11ee-8244-8aa624eb3053";
shapes = (
{
closed = 1;
nodes = (
(150,582,o),
(65,429,o),
(65,250,cs),
(65,68,o),
(150,-85,o),
(277,-170,c),
(305,-145,l),
(222,-49,o),
(194,75,o),
(194,250,cs),
(194,419,o),
(219,542,o),
(302,638,c),
(277,666,l)
);
}
);
width = 329;
}
);
unicode = 40;
},
{
glyphname = parenright;
lastChange = "2024-04-18 15:24:44 +0000";
layers = (
{
layerId = "619f1a1e-fd92-11ee-b280-8aa624eb3053";
shapes = (
{
closed = 1;
nodes = (
(169,-85,o),
(246,68,o),
(246,250,cs),
(246,429,o),
(169,582,o),
(54,666,c),
(34,643,l),
(129,546,o),
(157,421,o),
(157,250,cs),
(157,73,o),
(126,-53,o),
(31,-150,c),
(54,-170,l)
);
}
);
width = 323;
},
{
layerId = "66e3d46a-fd92-11ee-8244-8aa624eb3053";
shapes = (
{
closed = 1;
nodes = (
(179,-85,o),
(264,68,o),
(264,250,cs),
(264,429,o),
(179,582,o),
(52,666,c),
(27,638,l),
(110,542,o),
(135,419,o),
(135,250,cs),
(135,75,o),
(107,-49,o),
(24,-145,c),
(52,-170,l)
);
}
);
width = 329;
}
);
unicode = 41;
},
{
glyphname = braceleft;
lastChange = "2024-04-18 14:46:39 +0000";
layers = (
{
layerId = "619f1a1e-fd92-11ee-b280-8aa624eb3053";
shapes = (
{
closed = 1;
nodes = (
(157,238,o),
(211,171,o),
(211,87,cs),
(211,35,o),
(197,-30,o),
(197,-82,cs),
(197,-121,o),
(248,-135,o),
(277,-146,c),
(264,-170,l),
(217,-158,o),
(129,-151,o),
(129,-68,cs),
(129,-21,o),
(138,47,o),
(138,97,cs),
(138,163,o),
(112,237,o),
(53,237,c),
(53,276,l),
(112,276,o),
(138,347,o),
(138,411,cs),
(138,457,o),
(129,519,o),
(129,564,cs),
(129,647,o),
(217,654,o),
(264,666,c),
(277,642,l),
(248,631,o),
(197,617,o),
(197,578,cs),
(197,531,o),
(211,468,o),
(211,421,cs),
(211,340,o),
(157,275,o),
(112,261,c),
(112,252,l)
);
}
);
width = 327;
},
{
layerId = "66e3d46a-fd92-11ee-8244-8aa624eb3053";
shapes = (
{
closed = 1;
nodes = (
(170,238,o),
(236,171,o),
(236,87,cs),
(236,35,o),
(222,-30,o),
(222,-82,cs),
(222,-118,o),
(271,-131,o),
(296,-141,c),
(281,-170,l),
(222,-158,o),
(116,-151,o),
(116,-68,cs),
(116,-21,o),
(125,47,o),
(125,97,cs),
(125,163,o),
(99,235,o),
(40,235,c),
(40,278,l),
(99,278,o),
(125,347,o),
(125,411,cs),
(125,457,o),
(116,519,o),
(116,564,cs),
(116,647,o),
(222,654,o),
(281,666,c),
(296,637,l),
(271,627,o),
(222,614,o),
(222,578,cs),
(222,531,o),
(236,468,o),
(236,421,cs),
(236,340,o),
(170,275,o),
(117,261,c),
(117,252,l)
);
}
);
width = 336;
}
);
unicode = 123;
},
{
glyphname = braceright;
lastChange = "2024-04-18 14:46:39 +0000";
layers = (
{
layerId = "619f1a1e-fd92-11ee-b280-8aa624eb3053";
shapes = (
{
closed = 1;
nodes = (
(170,238,o),
(116,171,o),
(116,87,cs),
(116,35,o),
(130,-30,o),
(130,-82,cs),
(130,-121,o),
(79,-135,o),
(50,-146,c),
(63,-170,l),
(110,-158,o),
(198,-151,o),
(198,-68,cs),
(198,-21,o),
(189,47,o),
(189,97,cs),
(189,163,o),
(215,237,o),
(274,237,c),
(274,276,l),
(215,276,o),
(189,347,o),
(189,411,cs),
(189,457,o),
(198,519,o),
(198,564,cs),
(198,647,o),
(110,654,o),
(63,666,c),
(50,642,l),
(79,631,o),
(130,617,o),
(130,578,cs),
(130,531,o),
(116,468,o),
(116,421,cs),
(116,340,o),
(170,275,o),
(215,261,c),
(215,252,l)
);
}
);
width = 327;
},
{
layerId = "66e3d46a-fd92-11ee-8244-8aa624eb3053";
shapes = (
{
closed = 1;
nodes = (
(166,238,o),
(100,171,o),
(100,87,cs),
(100,35,o),
(114,-30,o),
(114,-82,cs),
(114,-118,o),
(65,-131,o),
(40,-141,c),
(55,-170,l),
(114,-158,o),
(220,-151,o),
(220,-68,cs),
(220,-21,o),
(211,47,o),
(211,97,cs),
(211,163,o),
(237,235,o),
(296,235,c),
(296,278,l),
(237,278,o),
(211,347,o),
(211,411,cs),
(211,457,o),
(220,519,o),
(220,564,cs),
(220,647,o),
(114,654,o),
(55,666,c),
(40,637,l),
(65,627,o),
(114,614,o),
(114,578,cs),
(114,531,o),
(100,468,o),
(100,421,cs),
(100,340,o),
(166,275,o),
(219,261,c),
(219,252,l)
);
}
);
width = 336;
}
);
unicode = 125;
},
{
glyphname = bracketleft;
lastChange = "2024-04-18 14:46:39 +0000";
layers = (
{
layerId = "619f1a1e-fd92-11ee-b280-8aa624eb3053";
shapes = (
{
closed = 1;
nodes = (
(308,-156,l),
(308,-102,l),
(179,-102,l),
(179,596,l),
(308,596,l),
(308,650,l),
(112,650,l),
(112,-156,l)
);
}
);
width = 327;
},
{
layerId = "66e3d46a-fd92-11ee-8244-8aa624eb3053";
shapes = (
{
closed = 1;
nodes = (
(305,-156,l),
(305,-92,l),
(186,-92,l),
(186,586,l),
(305,586,l),
(305,650,l),
(96,650,l),
(96,-156,l)
);
}
);
width = 327;
}
);
unicode = 91;
},
{
glyphname = bracketright;
lastChange = "2024-04-18 15:24:25 +0000";
layers = (
{
layerId = "619f1a1e-fd92-11ee-b280-8aa624eb3053";
shapes = (
{
closed = 1;
nodes = (
(309,-156,l),
(309,650,l),
(112,650,l),
(112,595,l),
(237,595,l),
(237,-101,l),
(112,-101,l),
(112,-156,l)
);
}
);
width = 327;
},
{
layerId = "66e3d46a-fd92-11ee-8244-8aa624eb3053";
shapes = (
{
closed = 1;
nodes = (
(231,-156,l),
(231,650,l),
(22,650,l),
(22,586,l),
(141,586,l),
(141,-92,l),
(22,-92,l),
(22,-156,l)
);
}
);
width = 327;
}
);
unicode = 93;
},
{
glyphname = quotesinglbase;
lastChange = "2024-04-18 14:46:39 +0000";
layers = (
{
layerId = "619f1a1e-fd92-11ee-b280-8aa624eb3053";
shapes = (
{
closed = 1;
nodes = (
(94,15,o),
(115,9,o),
(115,-12,cs),
(115,-45,o),
(73,-106,o),
(47,-144,c),
(70,-163,l),
(110,-123,o),
(190,-23,o),
(190,28,cs),
(190,73,o),
(144,106,o),
(110,109,c),
(88,94,o),
(56,60,o),
(44,38,c),
(52,19,l)
);
}
);
width = 222;
},
{
layerId = "66e3d46a-fd92-11ee-8244-8aa624eb3053";
shapes = (
{
closed = 1;
nodes = (
(90,9,o),
(110,4,o),
(110,-15,cs),
(110,-48,o),
(66,-107,o),
(40,-145,c),
(70,-170,l),
(118,-129,o),
(210,-26,o),
(210,27,cs),
(210,76,o),
(153,112,o),
(112,115,c),
(87,100,o),
(50,65,o),
(36,42,c),
(50,12,l)
);
}
);
width = 246;
}
);
unicode = 8218;
},
{
glyphname = quotedblbase;
lastChange = "2024-04-18 14:46:39 +0000";
layers = (
{
layerId = "619f1a1e-fd92-11ee-b280-8aa624eb3053";
shapes = (
{
closed = 1;
nodes = (
(278,15,o),
(300,9,o),
(300,-12,cs),
(300,-45,o),
(257,-106,o),
(231,-144,c),
(254,-163,l),
(294,-123,o),
(374,-23,o),
(374,28,cs),
(374,73,o),
(328,106,o),
(294,109,c),
(272,94,o),
(240,60,o),
(228,38,c),
(236,19,l)
);
},
{
closed = 1;
nodes = (
(92,15,o),
(113,9,o),
(113,-12,cs),
(113,-45,o),
(71,-106,o),
(45,-144,c),
(68,-163,l),
(108,-123,o),
(188,-23,o),
(188,28,cs),
(188,73,o),
(141,106,o),
(108,109,c),
(86,94,o),
(54,60,o),
(42,38,c),
(50,19,l)
);
}
);
width = 408;
},
{
layerId = "66e3d46a-fd92-11ee-8244-8aa624eb3053";
shapes = (
{
closed = 1;
nodes = (
(300,10,o),
(320,3,o),
(320,-15,cs),
(320,-48,o),
(276,-107,o),
(250,-145,c),
(281,-170,l),
(328,-129,o),
(420,-23,o),
(420,30,cs),
(420,79,o),
(363,112,o),
(322,115,c),
(297,100,o),
(260,65,o),
(247,42,c),
(260,12,l)
);
},
{
closed = 1;
nodes = (
(90,10,o),
(110,3,o),
(110,-15,cs),
(110,-48,o),
(66,-107,o),
(40,-145,c),
(70,-170,l),
(118,-129,o),
(209,-23,o),
(209,30,cs),
(209,79,o),
(153,112,o),
(112,115,c),
(87,100,o),
(50,65,o),
(36,42,c),
(50,12,l)
);
}
);
width = 456;
}
);
unicode = 8222;
},
{
glyphname = quotedblleft;
lastChange = "2024-04-18 14:46:39 +0000";
layers = (
{
layerId = "619f1a1e-fd92-11ee-b280-8aa624eb3053";
shapes = (
{
closed = 1;
nodes = (
(129,510,o),
(107,516,o),
(107,537,cs),
(107,570,o),
(150,631,o),
(176,669,c),
(153,688,l),
(112,648,o),
(32,548,o),
(32,497,cs),
(32,452,o),
(79,419,o),
(112,416,c),
(134,431,o),
(166,465,o),
(179,487,c),
(171,506,l)
);
},
{
closed = 1;
nodes = (
(315,510,o),
(293,516,o),
(293,537,cs),
(293,570,o),
(336,631,o),
(362,669,c),
(339,688,l),
(298,648,o),
(218,548,o),
(218,497,cs),
(218,452,o),
(265,419,o),
(298,416,c),
(320,431,o),
(353,465,o),
(365,487,c),
(357,506,l)
);
}
);
width = 408;
},
{
layerId = "66e3d46a-fd92-11ee-8244-8aa624eb3053";
shapes = (
{
closed = 1;
nodes = (
(156,509,o),
(136,514,o),
(136,533,cs),
(136,566,o),
(180,625,o),
(206,663,c),
(175,688,l),
(128,647,o),
(36,541,o),
(36,488,cs),
(36,439,o),
(93,406,o),
(134,403,c),
(159,418,o),
(196,453,o),
(209,476,c),
(196,506,l)
);
},
{
closed = 1;
nodes = (
(366,509,o),
(346,514,o),
(346,533,cs),
(346,566,o),
(390,625,o),
(416,663,c),
(386,688,l),
(338,647,o),
(247,541,o),
(247,488,cs),
(247,439,o),
(303,406,o),
(344,403,c),
(369,418,o),
(406,453,o),
(420,476,c),
(406,506,l)
);
}
);
width = 456;
}
);
unicode = 8220;
},
{
glyphname = quotedblright;
lastChange = "2024-04-18 14:46:39 +0000";
layers = (
{
layerId = "619f1a1e-fd92-11ee-b280-8aa624eb3053";
shapes = (
{
closed = 1;
nodes = (
(278,582,o),
(300,576,o),
(300,555,cs),
(300,522,o),
(257,461,o),
(231,423,c),
(254,404,l),
(294,444,o),
(374,544,o),
(374,595,cs),
(374,640,o),
(328,673,o),
(294,676,c),
(272,661,o),
(240,627,o),
(228,605,c),
(236,586,l)
);
},
{
closed = 1;
nodes = (
(92,582,o),
(113,576,o),
(113,555,cs),
(113,522,o),
(71,461,o),
(45,423,c),
(68,404,l),
(108,444,o),
(188,544,o),
(188,595,cs),
(188,640,o),
(141,673,o),
(108,676,c),
(86,661,o),
(54,627,o),
(42,605,c),
(50,586,l)
);
}
);
width = 408;
},
{
layerId = "66e3d46a-fd92-11ee-8244-8aa624eb3053";
shapes = (
{
closed = 1;
nodes = (
(300,579,o),
(320,574,o),
(320,555,cs),
(320,522,o),
(276,463,o),
(250,425,c),
(281,400,l),
(328,441,o),
(420,547,o),
(420,600,cs),
(420,649,o),
(363,682,o),
(322,685,c),
(297,670,o),
(260,635,o),
(247,612,c),
(260,582,l)
);
},
{
closed = 1;
nodes = (
(90,579,o),
(110,574,o),
(110,555,cs),
(110,522,o),
(66,463,o),
(40,425,c),
(70,400,l),
(118,441,o),
(209,547,o),
(209,600,cs),
(209,649,o),
(153,682,o),
(112,685,c),
(87,670,o),
(50,635,o),
(36,612,c),
(50,582,l)
);
}
);
width = 456;
}
);
unicode = 8221;
},
{
glyphname = quoteleft;
lastChange = "2024-04-18 14:46:39 +0000";
layers = (
{
layerId = "619f1a1e-fd92-11ee-b280-8aa624eb3053";
shapes = (
{
closed = 1;
nodes = (
(129,510,o),
(107,516,o),
(107,537,cs),
(107,570,o),
(150,631,o),
(176,669,c),
(153,688,l),
(112,648,o),
(32,548,o),
(32,497,cs),
(32,452,o),
(79,419,o),
(112,416,c),
(134,431,o),
(166,465,o),
(179,487,c),
(171,506,l)
);
}
);
width = 222;
},
{
layerId = "66e3d46a-fd92-11ee-8244-8aa624eb3053";
shapes = (
{
closed = 1;
nodes = (
(156,509,o),
(136,514,o),
(136,533,cs),
(136,566,o),
(180,625,o),
(206,663,c),
(176,688,l),
(128,647,o),
(36,541,o),
(36,488,cs),
(36,439,o),
(93,406,o),
(134,403,c),
(159,418,o),
(196,453,o),
(210,476,c),
(196,506,l)
);
}
);
width = 246;
}
);
unicode = 8216;
},
{
glyphname = quoteright;
lastChange = "2024-04-18 14:46:39 +0000";
layers = (
{
layerId = "619f1a1e-fd92-11ee-b280-8aa624eb3053";
shapes = (
{
closed = 1;
nodes = (
(94,582,o),
(115,576,o),
(115,555,cs),
(115,522,o),
(73,461,o),
(47,423,c),
(70,404,l),
(110,444,o),
(190,544,o),
(190,595,cs),
(190,640,o),
(144,673,o),
(110,676,c),
(88,661,o),
(56,627,o),
(44,605,c),
(52,586,l)
);
}
);
width = 222;
},
{
layerId = "66e3d46a-fd92-11ee-8244-8aa624eb3053";
shapes = (
{
closed = 1;
nodes = (
(90,579,o),
(110,574,o),
(110,555,cs),
(110,522,o),
(66,463,o),
(40,425,c),
(70,400,l),
(118,441,o),
(210,544,o),
(210,597,cs),
(210,646,o),
(153,682,o),
(112,685,c),
(87,670,o),
(50,635,o),
(36,612,c),
(50,582,l)
);
}
);
width = 246;
}
);
unicode = 8217;
},
{
glyphname = guillemotleft;
lastChange = "2024-04-18 15:19:44 +0000";
layers = (
{
layerId = "619f1a1e-fd92-11ee-b280-8aa624eb3053";
shapes = (
{
closed = 1;
nodes = (
(419,50,l),
(316,208,l),
(419,366,l),
(396,388,l),
(223,220,l),
(223,196,l),
(396,28,l)
);
},
{
closed = 1;
nodes = (
(241,50,l),
(138,208,l),
(241,366,l),
(218,388,l),
(45,220,l),
(45,196,l),
(218,28,l)
);
}
);
width = 466;
},
{
layerId = "66e3d46a-fd92-11ee-8244-8aa624eb3053";
shapes = (
{
closed = 1;
nodes = (
(464,53,l),
(366,213,l),
(464,373,l),
(434,402,l),
(247,230,l),
(247,196,l),
(434,24,l)
);
},
{
closed = 1;
nodes = (
(255,53,l),
(157,213,l),
(255,373,l),
(225,402,l),
(38,230,l),
(38,196,l),
(225,24,l)
);
}
);
width = 512;
}
);
unicode = 171;
},
{
glyphname = guillemotright;
lastChange = "2024-04-18 15:19:31 +0000";
layers = (
{
layerId = "619f1a1e-fd92-11ee-b280-8aa624eb3053";
shapes = (
{
closed = 1;
nodes = (
(421,196,l),
(421,220,l),
(248,388,l),
(225,366,l),
(328,208,l),
(225,50,l),
(248,28,l)
);
},
{
closed = 1;
nodes = (
(243,196,l),
(243,220,l),
(70,388,l),
(47,366,l),
(150,208,l),
(47,50,l),
(70,28,l)
);
}
);
width = 466;
},
{
layerId = "66e3d46a-fd92-11ee-8244-8aa624eb3053";
shapes = (
{
closed = 1;
nodes = (
(474,196,l),
(474,230,l),
(287,402,l),
(257,373,l),
(355,213,l),
(257,53,l),
(287,24,l)
);
},
{
closed = 1;
nodes = (
(265,196,l),
(265,230,l),
(78,402,l),
(48,373,l),
(146,213,l),
(48,53,l),
(78,24,l)
);
}
);
width = 512;
}
);
unicode = 187;
},
{
glyphname = guilsinglleft;
lastChange = "2024-04-18 14:46:39 +0000";
layers = (
{
layerId = "619f1a1e-fd92-11ee-b280-8aa624eb3053";
shapes = (
{
closed = 1;
nodes = (
(241,50,l),
(138,208,l),
(241,366,l),
(218,388,l),
(45,220,l),
(45,196,l),
(218,28,l)
);
}
);
width = 288;
},
{
layerId = "66e3d46a-fd92-11ee-8244-8aa624eb3053";
shapes = (
{
closed = 1;
nodes = (
(255,53,l),
(157,213,l),
(255,373,l),
(225,402,l),
(38,230,l),
(38,196,l),
(225,24,l)
);
}
);
width = 303;
}
);
unicode = 8249;
},
{
glyphname = guilsinglright;
lastChange = "2024-04-18 15:25:09 +0000";
layers = (
{
layerId = "619f1a1e-fd92-11ee-b280-8aa624eb3053";
shapes = (
{
closed = 1;
nodes = (
(243,196,l),
(243,220,l),
(70,388,l),
(47,366,l),
(150,208,l),
(47,50,l),
(70,28,l)
);
}
);
width = 288;
},
{
layerId = "66e3d46a-fd92-11ee-8244-8aa624eb3053";
shapes = (
{
closed = 1;
nodes = (
(265,196,l),
(265,230,l),
(78,402,l),
(48,373,l),
(146,213,l),
(48,53,l),
(78,24,l)
);
}
);
width = 303;
}
);
unicode = 8250;
},
{
glyphname = quotedbl;
lastChange = "2024-04-18 14:46:39 +0000";
layers = (
{
layerId = "619f1a1e-fd92-11ee-b280-8aa624eb3053";
shapes = (
{
closed = 1;
nodes = (
(217,479,l),
(227,472,l),
(255,477,l),
(271,552,o),
(294,672,o),
(294,711,c),
(281,719,o),
(241,728,o),
(220,728,c),
(206,717,l)
);
},
{
closed = 1;
nodes = (
(61,479,l),
(71,472,l),
(99,477,l),
(115,552,o),
(138,672,o),
(138,711,c),
(125,719,o),
(85,728,o),
(64,728,c),
(50,717,l)
);
}
);
width = 338;
},
{
layerId = "66e3d46a-fd92-11ee-8244-8aa624eb3053";
shapes = (
{
closed = 1;
nodes = (
(228,479,l),
(244,467,l),
(293,477,l),
(309,552,o),
(331,672,o),
(331,711,c),
(314,719,o),
(262,728,o),
(237,728,c),
(213,717,l)
);
},
{
closed = 1;
nodes = (
(50,479,l),
(66,467,l),
(115,477,l),
(131,552,o),
(153,672,o),
(153,711,c),
(136,719,o),
(84,728,o),
(59,728,c),
(35,717,l)
);
}
);
width = 366;
}
);
unicode = 34;
},
{
glyphname = quotesingle;
lastChange = "2024-04-18 14:46:39 +0000";
layers = (
{
layerId = "619f1a1e-fd92-11ee-b280-8aa624eb3053";
shapes = (
{
closed = 1;
nodes = (
(61,479,l),
(71,472,l),
(99,477,l),
(115,552,o),
(138,672,o),
(138,711,c),
(125,719,o),
(85,728,o),
(64,728,c),
(50,717,l)
);
}
);
width = 182;
},
{
layerId = "66e3d46a-fd92-11ee-8244-8aa624eb3053";
shapes = (
{
closed = 1;
nodes = (
(61,479,l),
(71,472,l),
(99,477,l),
(115,552,o),
(138,672,o),
(138,711,c),
(125,719,o),
(85,728,o),
(64,728,c),
(50,717,l)
);
}
);
width = 182;
}
);
unicode = 39;
},
{
glyphname = at;
lastChange = "2024-04-18 14:46:39 +0000";
layers = (
{
layerId = "619f1a1e-fd92-11ee-b280-8aa624eb3053";
shapes = (
{
closed = 1;
nodes = (
(732,107,o),
(850,217,o),
(850,288,cs),
(850,485,o),
(716,610,o),
(504,610,cs),
(262,610,o),
(47,430,o),
(47,188,cs),
(47,-46,o),
(187,-204,o),
(433,-204,cs),
(512,-204,o),
(599,-160,o),
(650,-114,c),
(630,-90,l),
(586,-120,o),
(512,-146,o),
(456,-146,cs),
(239,-146,o),
(130,-15,o),
(130,190,cs),
(130,407,o),
(288,554,o),
(493,554,cs),
(670,554,o),
(773,446,o),
(773,281,cs),
(773,207,o),
(710,131,o),
(640,81,cs),
(623,68,o),
(590,51,o),
(578,51,cs),
(562,51,o),
(566,71,o),
(572,99,cs),
(627,337,ls),
(635,371,o),
(648,402,o),
(648,402,c),
(637,418,l),
(613,423,o),
(574,432,o),
(533,432,cs),
(383,432,o),
(243,258,o),
(243,84,cs),
(243,23,o),
(266,-16,o),
(320,-16,cs),
(389,-16,o),
(462,89,o),
(508,156,c),
(514,154,l),
(498,89,ls),
(481,17,o),
(483,-16,o),
(520,-16,cs),
(551,-16,o),
(612,24,o),
(645,49,c)
);
},
{
closed = 1;
nodes = (
(473,145,o),
(395,45,o),
(352,45,cs),
(328,45,o),
(323,72,o),
(323,105,cs),
(323,215,o),
(382,387,o),
(492,387,cs),
(545,387,o),
(559,374,o),
(559,374,c),
(557,344,o),
(541,263,o),
(529,233,c)
);
}
);
width = 879;
},
{
layerId = "66e3d46a-fd92-11ee-8244-8aa624eb3053";
shapes = (
{
closed = 1;
nodes = (
(738,103,o),
(865,216,o),
(865,288,cs),
(865,485,o),
(725,610,o),
(504,610,cs),
(256,610,o),
(38,430,o),
(38,188,cs),
(38,-48,o),
(179,-204,o),
(428,-204,cs),
(507,-204,o),
(600,-160,o),
(650,-115,c),
(626,-85,l),
(581,-115,o),
(509,-141,o),
(451,-141,cs),
(237,-141,o),
(131,-12,o),
(131,190,cs),
(131,404,o),
(288,549,o),
(493,549,cs),
(667,549,o),
(768,443,o),
(768,281,cs),
(768,209,o),
(707,135,o),
(640,86,cs),
(626,75,o),
(602,61,o),
(593,61,cs),
(577,61,o),
(582,77,o),
(587,99,cs),
(642,342,l),
(652,373,o),
(668,402,o),
(668,402,c),
(652,423,l),
(625,428,o),
(580,437,o),
(533,437,cs),
(374,437,o),
(228,260,o),
(228,84,cs),
(228,23,o),
(253,-16,o),
(315,-16,cs),
(382,-16,o),
(453,87,o),
(496,151,c),
(502,149,l),
(488,89,ls),
(471,17,o),
(472,-16,o),
(510,-16,cs),
(543,-16,o),
(610,21,o),
(645,44,cs)
);
},
{
closed = 1;
nodes = (
(470,155,o),
(394,55,o),
(352,55,cs),
(332,55,o),
(328,78,o),
(328,105,cs),
(328,211,o),
(385,377,o),
(492,377,cs),
(537,377,o),
(549,369,o),
(549,369,c),
(547,342,o),
(534,270,o),
(524,243,c)
);
}
);
width = 879;
}
);
unicode = 64;
},
{
glyphname = ampersand;
lastChange = "2024-04-18 14:52:34 +0000";
layers = (
{
layerId = "619f1a1e-fd92-11ee-b280-8aa624eb3053";
shapes = (
{
closed = 1;
nodes = (
(345,338,o),
(421,400,o),
(421,482,cs),
(421,560,o),
(348,610,o),
(261,610,cs),
(184,610,o),
(107,547,o),
(107,462,cs),
(107,397,o),
(130,363,o),
(173,322,c),
(249,241,o),
(460,-7,o),
(496,-7,cs),
(636,-7,l),
(641,25,l),
(614,25,o),
(583,29,o),
(560,46,cs),
(508,83,o),
(382,222,o),
(297,313,cs),
(250,364,o),
(189,426,o),
(189,488,cs),
(189,533,o),
(216,567,o),
(255,567,cs),
(305,567,o),
(335,526,o),
(335,478,cs),
(335,412,o),
(288,366,o),
(253,357,c),
(278,328,l)
);
},
{
closed = 1;
nodes = (
(549,273,o),
(501,317,o),
(479,335,c),
(452,317,l),
(470,284,o),
(478,255,o),
(478,228,cs),
(478,191,o),
(463,158,o),
(438,128,cs),
(397,77,o),
(338,28,o),
(265,28,cs),
(188,28,o),
(131,90,o),
(131,162,cs),
(131,223,o),
(159,279,o),
(230,311,c),
(206,331,l),
(111,302,o),
(42,249,o),
(42,147,cs),
(42,32,o),
(144,-16,o),
(259,-16,cs),
(348,-16,o),
(414,34,o),
(464,98,cs),
(497,139,o),
(545,199,o),
(571,244,c)
);
}
);
width = 629;
},
{
layerId = "66e3d46a-fd92-11ee-8244-8aa624eb3053";
shapes = (
{
closed = 1;
nodes = (
(357,338,o),
(439,400,o),
(439,482,cs),
(439,560,o),
(362,610,o),
(269,610,cs),
(186,610,o),
(103,547,o),
(103,462,cs),
(103,397,o),
(122,363,o),
(159,322,cs),
(234,240,o),
(446,-7,o),
(482,-7,cs),
(647,-7,l),
(654,30,l),
(627,30,o),
(596,34,o),
(573,51,cs),
(522,87,o),
(396,222,o),
(315,313,cs),
(271,363,o),
(217,426,o),
(217,488,cs),
(217,527,o),
(236,557,o),
(263,557,cs),
(301,557,o),
(323,520,o),
(323,478,cs),
(323,415,o),
(288,371,o),
(261,362,c),
(286,328,l)
);
},
{
closed = 1;
nodes = (
(556,272,o),
(499,324,o),
(477,342,c),
(444,321,l),
(462,287,o),
(474,254,o),
(474,224,cs),
(474,186,o),
(456,151,o),
(426,120,cs),
(387,79,o),
(338,38,o),
(273,38,cs),
(211,38,o),
(164,96,o),
(164,162,cs),
(164,221,o),
(186,275,o),
(238,306,c),
(214,331,l),
(110,302,o),
(35,249,o),
(35,147,cs),
(35,32,o),
(143,-16,o),
(267,-16,cs),
(356,-16,o),
(422,34,o),
(472,98,cs),
(505,139,o),
(552,198,o),
(578,243,c)
);
}
);
width = 642;
}
);
unicode = 38;
},
{
glyphname = paragraph;
lastChange = "2024-04-18 14:46:39 +0000";
layers = (
{
layerId = "619f1a1e-fd92-11ee-b280-8aa624eb3053";
shapes = (
{
closed = 1;
nodes = (
(22,312,o),
(92,248,o),
(203,248,cs),
(233,248,l),
(256,267,l),
(256,591,l),
(233,610,l),
(203,610,ls),
(91,610,o),
(22,527,o),
(22,420,cs)
);
},
{
closed = 1;
nodes = (
(373,587,o),
(375,599,o),
(398,599,cs),
(423,599,o),
(462,591,o),
(462,591,c),
(471,631,l),
(432,646,o),
(359,662,o),
(320,666,c),
(300,643,l),
(311,614,o),
(313,569,o),
(313,522,cs),
(313,77,ls),
(313,48,o),
(313,22,o),
(306,0,c),
(298,-35,o),
(272,-62,o),
(238,-62,cs),
(217,-62,o),
(201,-53,o),
(184,-43,c),
(164,-53,l),
(171,-81,o),
(191,-145,o),
(211,-170,c),
(223,-170,ls),
(289,-170,o),
(337,-118,o),
(357,-60,cs),
(369,-26,o),
(373,10,o),
(373,42,cs),
(373,565,ls)
);
}
);
width = 481;
},
{
layerId = "66e3d46a-fd92-11ee-8244-8aa624eb3053";
shapes = (
{
closed = 1;
nodes = (
(26,304,o),
(102,238,o),
(222,238,cs),
(262,238,l),
(285,257,l),
(285,591,l),
(262,610,l),
(222,610,ls),
(101,610,o),
(26,525,o),
(26,415,cs)
);
},
{
closed = 1;
nodes = (
(437,577,o),
(439,592,o),
(462,592,cs),
(487,592,o),
(526,586,o),
(526,586,c),
(535,631,l),
(489,646,o),
(395,662,o),
(349,666,c),
(329,643,l),
(340,614,o),
(342,569,o),
(342,522,cs),
(342,77,ls),
(342,48,o),
(342,22,o),
(335,0,c),
(327,-35,o),
(300,-62,o),
(267,-62,cs),
(246,-62,o),
(228,-51,o),
(211,-38,c),
(186,-48,l),
(193,-77,o),
(215,-144,o),
(235,-170,c),
(252,-170,ls),
(332,-170,o),
(394,-118,o),
(421,-60,c),
(433,-26,o),
(437,10,o),
(437,42,cs),
(437,555,ls)
);
}
);
width = 535;
}
);
unicode = 182;
},
{
glyphname = section;
lastChange = "2024-04-18 14:46:39 +0000";
layers = (
{
layerId = "619f1a1e-fd92-11ee-b280-8aa624eb3053";
shapes = (
{
closed = 1;
nodes = (
(53,168,o),
(110,137,o),
(173,96,cs),
(256,47,o),
(303,19,o),
(303,-36,cs),
(303,-102,o),
(262,-126,o),
(202,-126,cs),
(137,-126,o),
(92,-70,o),
(81,10,c),
(48,3,l),
(45,-29,o),
(46,-103,o),
(48,-136,c),
(83,-157,o),
(143,-171,o),
(187,-171,cs),
(309,-171,o),
(392,-116,o),
(392,-8,cs),
(392,90,o),
(306,122,o),
(233,170,cs),
(163,218,o),
(130,237,o),
(130,291,cs),
(130,323,o),
(156,371,o),
(205,371,c),
(170,399,l),
(117,399,o),
(53,332,o),
(53,266,cs)
);
},
{
closed = 1;
nodes = (
(313,182,o),
(286,134,o),
(238,134,c),
(271,106,l),
(324,106,o),
(395,175,o),
(395,244,cs),
(395,348,o),
(316,382,o),
(243,427,cs),
(171,470,o),
(134,492,o),
(134,538,cs),
(134,585,o),
(161,623,o),
(227,623,cs),
(256,623,o),
(284,617,o),
(304,600,c),
(315,579,o),
(321,539,o),
(327,505,c),
(354,510,l),
(361,532,o),
(372,612,o),
(373,639,c),
(338,649,o),
(277,666,o),
(236,666,cs),
(123,666,o),
(50,608,o),
(50,512,cs),
(50,420,o),
(114,388,o),
(184,348,cs),
(271,300,o),
(313,273,o),
(313,214,cs)
);
}
);
width = 448;
},
{
layerId = "66e3d46a-fd92-11ee-8244-8aa624eb3053";
shapes = (
{
closed = 1;
nodes = (
(45,159,o),
(108,125,o),
(180,81,cs),
(251,38,o),
(290,13,o),
(290,-36,cs),
(290,-94,o),
(259,-116,o),
(214,-116,cs),
(155,-116,o),
(114,-58,o),
(103,19,c),
(55,8,l),
(55,-25,o),
(55,-102,o),
(55,-136,c),
(91,-157,o),
(153,-171,o),
(199,-171,cs),
(330,-171,o),
(419,-116,o),
(419,-8,cs),
(419,99,o),
(328,135,o),
(250,185,cs),
(184,228,o),
(157,243,o),
(157,291,cs),
(157,323,o),
(175,371,o),
(212,371,c),
(177,399,l),
(118,399,o),
(45,332,o),
(45,266,cs)
);
},
{
closed = 1;
nodes = (
(310,182,o),
(291,134,o),
(255,134,c),
(288,106,l),
(347,106,o),
(427,175,o),
(427,244,cs),
(427,354,o),
(338,389,o),
(260,437,cs),
(199,475,o),
(171,496,o),
(171,538,cs),
(171,579,o),
(191,613,o),
(239,613,cs),
(264,613,o),
(288,607,o),
(306,590,c),
(317,570,o),
(323,528,o),
(329,496,c),
(371,505,l),
(378,528,o),
(389,611,o),
(390,639,c),
(354,649,o),
(290,666,o),
(248,666,cs),
(126,666,o),
(47,608,o),
(47,512,cs),
(47,414,o),
(120,383,o),
(196,338,cs),
(273,292,o),
(310,269,o),
(310,214,cs)
);
}
);
width = 471;
}
);
unicode = 167;
},
{
glyphname = copyright;
lastChange = "2024-04-18 14:46:39 +0000";
layers = (
{
layerId = "619f1a1e-fd92-11ee-b280-8aa624eb3053";
shapes = (
{
closed = 1;
nodes = (
(398,133,o),
(441,142,o),
(465,150,c),
(470,178,o),
(475,210,o),
(475,239,c),
(455,241,l),
(439,190,o),
(418,167,o),
(365,167,cs),
(299,167,o),
(258,236,o),
(258,305,cs),
(258,385,o),
(292,439,o),
(359,439,cs),
(385,439,o),
(414,435,o),
(431,427,c),
(436,414,o),
(438,388,o),
(441,360,c),
(464,364,l),
(470,388,o),
(475,427,o),
(477,456,c),
(441,464,o),
(409,473,o),
(364,473,cs),
(256,473,o),
(187,396,o),
(187,291,cs),
(187,193,o),
(261,133,o),
(361,133,cs)
);
},
{
closed = 1;
nodes = (
(40,124,o),
(180,-16,o),
(353,-16,cs),
(526,-16,o),
(666,124,o),
(666,297,cs),
(666,470,o),
(526,610,o),
(353,610,cs),
(180,610,o),
(40,470,o),
(40,297,cs)
);
},
{
closed = 1;
nodes = (
(84,449,o),
(204,571,o),
(353,571,cs),
(502,571,o),
(622,449,o),
(622,297,cs),
(622,145,o),
(502,23,o),
(353,23,cs),
(204,23,o),
(84,145,o),
(84,297,cs)
);
}
);
width = 706;
},
{
layerId = "66e3d46a-fd92-11ee-8244-8aa624eb3053";
shapes = (
{
closed = 1;
nodes = (
(395,131,o),
(439,140,o),
(464,149,c),
(469,177,o),
(474,209,o),
(474,242,c),
(442,244,l),
(426,194,o),
(407,172,o),
(361,172,cs),
(306,172,o),
(271,237,o),
(271,303,cs),
(271,380,o),
(300,433,o),
(356,433,cs),
(377,433,o),
(400,430,o),
(416,423,c),
(423,399,o),
(425,375,o),
(425,353,c),
(463,360,l),
(469,383,o),
(474,423,o),
(476,455,c),
(428,467,o),
(398,474,o),
(361,474,cs),
(252,474,o),
(182,395,o),
(182,289,cs),
(182,191,o),
(257,131,o),
(358,131,cs)
);
},
{
closed = 1;
nodes = (
(35,124,o),
(177,-16,o),
(353,-16,cs),
(529,-16,o),
(671,124,o),
(671,297,cs),
(671,470,o),
(529,610,o),
(353,610,cs),
(177,610,o),
(35,470,o),
(35,297,cs)
);
},
{
closed = 1;
nodes = (
(94,443,o),
(210,561,o),
(353,561,cs),
(496,561,o),
(612,443,o),
(612,297,cs),
(612,151,o),
(496,33,o),
(353,33,cs),
(210,33,o),
(94,151,o),
(94,297,cs)
);
}
);
width = 706;
}
);
unicode = 169;
},
{
glyphname = registered;
lastChange = "2024-04-18 15:04:24 +0000";
layers = (
{
layerId = "619f1a1e-fd92-11ee-b280-8aa624eb3053";
shapes = (
{
closed = 1;
nodes = (
(228,540,o),
(239,541,o),
(244,541,cs),
(268,541,o),
(279,529,o),
(279,505,cs),
(279,479,o),
(265,468,o),
(241,468,cs),
(223,468,l),
(223,538,l)
);
},
{
closed = 1;
nodes = (
(185,385,o),
(185,382,o),
(180,381,c),
(175,377,o),
(163,377,o),
(163,377,c),
(164,360,l),
(180,361,o),
(197,362,o),
(207,362,cs),
(217,362,o),
(237,361,o),
(253,360,c),
(255,377,l),
(255,377,o),
(235,380,o),
(230,381,c),
(223,383,o),
(223,387,o),
(223,392,cs),
(223,449,l),
(238,449,ls),
(248,449,o),
(249,443,o),
(259,429,c),
(275,403,o),
(296,361,o),
(310,361,cs),
(357,361,l),
(360,377,l),
(352,377,o),
(344,377,o),
(335,383,cs),
(314,396,o),
(296,451,o),
(273,457,c),
(273,460,l),
(298,461,o),
(319,482,o),
(319,509,cs),
(319,545,o),
(284,559,o),
(244,559,cs),
(216,559,o),
(183,555,o),
(164,557,c),
(163,541,l),
(163,541,o),
(175,541,o),
(180,537,c),
(185,536,o),
(185,533,o),
(185,529,cs),
(185,389,ls)
);
},
{
closed = 1;
nodes = (
(32,328,o),
(128,233,o),
(249,233,cs),
(370,233,o),
(465,328,o),
(465,449,cs),
(465,570,o),
(370,666,o),
(249,666,cs),
(128,666,o),
(32,570,o),
(32,449,cs)
);
},
{
closed = 1;
nodes = (
(73,551,o),
(152,634,o),
(249,634,cs),
(345,634,o),
(424,551,o),
(424,449,cs),
(424,347,o),
(345,265,o),
(249,265,cs),
(152,265,o),
(73,347,o),
(73,449,cs)
);
}
);
width = 497;
},
{
layerId = "66e3d46a-fd92-11ee-8244-8aa624eb3053";
shapes = (
{
closed = 1;
nodes = (
(232,540,o),
(240,541,o),
(244,541,cs),
(265,541,o),
(274,531,o),
(274,507,cs),
(274,481,o),
(262,471,o),
(241,471,cs),
(228,471,l),
(228,538,l)
);
},
{
closed = 1;
nodes = (
(180,385,o),
(180,382,o),
(175,381,c),
(169,377,o),
(158,377,o),
(158,377,c),
(159,360,l),
(177,361,o),
(196,362,o),
(207,362,cs),
(217,362,o),
(237,361,o),
(253,360,c),
(255,377,l),
(255,377,o),
(239,380,o),
(235,381,cs),
(228,383,o),
(228,387,o),
(228,392,cs),
(228,451,l),
(235,451,ls),
(246,451,o),
(252,435,o),
(256,429,cs),
(272,403,o),
(293,361,o),
(307,361,cs),
(357,361,l),
(362,380,l),
(356,380,o),
(349,380,o),
(342,386,c),
(319,398,o),
(300,453,o),
(275,459,c),
(275,462,l),
(303,463,o),
(324,484,o),
(324,511,cs),
(324,547,o),
(287,561,o),
(244,561,cs),
(214,561,o),
(179,557,o),
(159,559,c),
(158,543,l),
(158,543,o),
(170,543,o),
(175,539,c),
(180,538,o),
(180,535,o),
(180,531,cs),
(180,389,ls)
);
},
{
closed = 1;
nodes = (
(32,328,o),
(128,233,o),
(249,233,cs),
(370,233,o),
(465,328,o),
(465,449,cs),
(465,570,o),
(370,666,o),
(249,666,cs),
(128,666,o),
(32,570,o),
(32,449,cs)
);
},
{
closed = 1;
nodes = (
(83,548,o),
(158,627,o),
(249,627,cs),
(339,627,o),
(414,548,o),
(414,449,cs),
(414,350,o),
(339,271,o),
(249,271,cs),
(158,271,o),
(83,350,o),
(83,449,cs)
);
}
);
width = 497;
}
);
unicode = 174;
},
{
glyphname = degree;
lastChange = "2024-04-18 14:46:39 +0000";
layers = (
{
layerId = "619f1a1e-fd92-11ee-b280-8aa624eb3053";
shapes = (
{
closed = 1;
nodes = (
(27,483,o),
(81,430,o),
(149,430,cs),
(216,430,o),
(272,483,o),
(272,548,cs),
(272,613,o),
(216,666,o),
(149,666,cs),
(81,666,o),
(27,613,o),
(27,548,cs)
);
},
{
closed = 1;
nodes = (
(78,585,o),
(109,618,o),
(149,618,cs),
(187,618,o),
(221,585,o),
(221,548,cs),
(221,511,o),
(187,478,o),
(149,478,cs),
(109,478,o),
(78,511,o),
(78,548,cs)
);
}
);
width = 299;
},
{
layerId = "66e3d46a-fd92-11ee-8244-8aa624eb3053";
shapes = (
{
closed = 1;
nodes = (
(36,472,o),
(93,416,o),
(165,416,cs),
(236,416,o),
(295,472,o),
(295,541,cs),
(295,610,o),
(236,666,o),
(165,666,cs),
(93,666,o),
(36,610,o),
(36,541,cs)
);
},
{
closed = 1;
nodes = (
(104,576,o),
(131,607,o),
(165,607,cs),
(199,607,o),
(227,576,o),
(227,541,cs),
(227,505,o),
(199,475,o),
(165,475,cs),
(131,475,o),
(104,505,o),
(104,541,cs)
);
}
);
width = 331;
}
);
unicode = 176;
},
{
glyphname = bar;
lastChange = "2024-04-18 14:46:39 +0000";
layers = (
{
layerId = "619f1a1e-fd92-11ee-b280-8aa624eb3053";
shapes = (
{
closed = 1;
nodes = (
(192,-170,l),
(192,666,l),
(125,666,l),
(125,-170,l)
);
}
);
width = 317;
},
{
layerId = "66e3d46a-fd92-11ee-8244-8aa624eb3053";
shapes = (
{
closed = 1;
nodes = (
(197,-170,l),
(197,666,l),
(112,666,l),
(112,-170,l)
);
}
);
width = 309;
}
);
unicode = 124;
},
{
glyphname = brokenbar;
lastChange = "2024-04-18 14:46:39 +0000";
layers = (
{
layerId = "619f1a1e-fd92-11ee-b280-8aa624eb3053";
shapes = (
{
closed = 1;
nodes = (
(192,-170,l),
(192,119,l),
(125,119,l),
(125,-170,l)
);
},
{
closed = 1;
nodes = (
(192,384,l),
(192,666,l),
(125,666,l),
(125,384,l)
);
}
);
width = 317;
},
{
layerId = "66e3d46a-fd92-11ee-8244-8aa624eb3053";
shapes = (
{
closed = 1;
nodes = (
(197,-170,l),
(197,124,l),
(112,124,l),
(112,-170,l)
);
},
{
closed = 1;
nodes = (
(197,379,l),
(197,666,l),
(112,666,l),
(112,379,l)
);
}
);
width = 309;
}
);
unicode = 166;
},
{
glyphname = Euro;
lastChange = "2024-04-18 14:46:39 +0000";
layers = (
{
layerId = "619f1a1e-fd92-11ee-b280-8aa624eb3053";
shapes = (
{
closed = 1;
nodes = (
(417,-16,o),
(489,0,o),
(528,14,c),
(537,60,o),
(546,119,o),
(547,167,c),
(516,171,l),
(492,73,o),
(453,28,o),
(365,28,cs),
(240,28,o),
(165,160,o),
(165,301,cs),
(165,460,o),
(230,566,o),
(352,566,cs),
(393,566,o),
(438,558,o),
(465,542,c),
(480,517,o),
(490,468,o),
(496,416,c),
(527,422,l),
(539,467,o),
(547,533,o),
(552,581,c),
(493,594,o),
(437,610,o),
(364,610,cs),
(183,610,o),
(70,469,o),
(70,273,cs),
(70,94,o),
(192,-16,o),
(356,-16,cs)
);
},
{
closed = 1;
nodes = (
(9,334,l),
(349,334,l),
(357,376,l),
(17,376,l)
);
},
{
closed = 1;
nodes = (
(-5,239,l),
(335,239,l),
(343,281,l),
(3,281,l)
);
}
);
width = 592;
},
{
layerId = "66e3d46a-fd92-11ee-8244-8aa624eb3053";
shapes = (
{
closed = 1;
nodes = (
(489,-16,o),
(557,0,o),
(599,14,c),
(608,64,o),
(617,123,o),
(618,174,c),
(568,179,l),
(545,80,o),
(516,37,o),
(431,37,cs),
(311,37,o),
(238,166,o),
(238,301,cs),
(238,455,o),
(301,557,o),
(418,557,cs),
(458,557,o),
(491,550,o),
(517,533,c),
(533,509,o),
(542,459,o),
(548,410,c),
(598,419,l),
(610,465,o),
(618,531,o),
(622,581,c),
(558,594,o),
(509,610,o),
(430,610,cs),
(226,610,o),
(99,469,o),
(99,273,cs),
(99,94,o),
(235,-16,o),
(422,-16,cs)
);
},
{
closed = 1;
nodes = (
(52,334,l),
(403,334,l),
(413,386,l),
(62,386,l)
);
},
{
closed = 1;
nodes = (
(35,229,l),
(386,229,l),
(396,281,l),
(45,281,l)
);
}
);
width = 665;
}
);
unicode = 8364;
},
{
glyphname = cent;
lastChange = "2024-04-18 15:04:04 +0000";
layers = (
{
layerId = "619f1a1e-fd92-11ee-b280-8aa624eb3053";
shapes = (
{
closed = 1;
nodes = (
(377,379,o),
(398,456,o),
(401,480,c),
(374,492,o),
(292,518,o),
(246,518,cs),
(118,518,o),
(45,414,o),
(45,296,cs),
(45,170,o),
(127,90,o),
(245,90,cs),
(291,90,o),
(342,110,o),
(408,165,c),
(392,189,l),
(360,170,o),
(316,153,o),
(278,153,cs),
(192,153,o),
(134,207,o),
(134,319,cs),
(134,411,o),
(161,476,o),
(238,476,cs),
(276,476,o),
(305,467,o),
(318,458,c),
(327,443,o),
(330,390,o),
(328,362,c),
(365,355,l)
);
},
{
closed = 1;
nodes = (
(245,-12,l),
(267,610,l),
(229,605,l),
(207,-16,l)
);
}
);
width = 441;
},
{
layerId = "66e3d46a-fd92-11ee-8244-8aa624eb3053";
shapes = (
{
closed = 1;
nodes = (
(397,371,o),
(418,454,o),
(421,480,c),
(392,492,o),
(304,518,o),
(256,518,cs),
(119,518,o),
(40,412,o),
(40,291,cs),
(40,159,o),
(128,75,o),
(255,75,cs),
(303,75,o),
(357,97,o),
(427,160,c),
(407,189,l),
(374,170,o),
(328,153,o),
(288,153,cs),
(214,153,o),
(164,205,o),
(164,314,cs),
(164,403,o),
(187,466,o),
(248,466,cs),
(284,466,o),
(309,457,o),
(321,449,c),
(330,435,o),
(334,381,o),
(331,355,c),
(385,345,l)
);
},
{
closed = 1;
nodes = (
(264,-11,l),
(286,610,l),
(238,604,l),
(216,-16,l)
);
}
);
width = 462;
}
);
unicode = 162;
},
{
glyphname = currency;
lastChange = "2024-04-18 14:46:39 +0000";
layers = (
{
layerId = "619f1a1e-fd92-11ee-b280-8aa624eb3053";
shapes = (
{
closed = 1;
nodes = (
(91,190,o),
(177,102,o),
(287,102,cs),
(397,102,o),
(484,190,o),
(484,303,cs),
(484,416,o),
(397,505,o),
(287,505,cs),
(177,505,o),
(91,416,o),
(91,303,cs)
);
},
{
closed = 1;
nodes = (
(157,386,o),
(214,448,o),
(287,448,cs),
(361,448,o),
(418,386,o),
(418,303,cs),
(418,221,o),
(361,159,o),
(287,159,cs),
(214,159,o),
(157,221,o),
(157,303,cs)
);
},
{
closed = 1;
nodes = (
(164,457,o),
(138,495,o),
(106,533,c),
(87,529,l),
(80,526,o),
(65,510,o),
(61,504,c),
(58,485,l),
(96,452,o),
(134,427,o),
(164,408,c),
(164,408,o),
(183,426,o),
(183,426,c)
);
},
{
closed = 1;
nodes = (
(391,426,o),
(410,408,o),
(410,408,c),
(440,427,o),
(478,452,o),
(516,485,c),
(513,504,l),
(509,510,o),
(494,526,o),
(487,529,c),
(468,533,l),
(436,495,o),
(410,457,o),
(391,426,c)
);
},
{
closed = 1;
nodes = (
(183,181,o),
(164,199,o),
(164,199,c),
(134,180,o),
(96,155,o),
(58,122,c),
(61,103,l),
(65,97,o),
(80,81,o),
(87,78,c),
(106,74,l),
(138,112,o),
(164,150,o),
(183,181,c)
);
},
{
closed = 1;
nodes = (
(410,150,o),
(436,112,o),
(468,74,c),
(487,78,l),
(494,81,o),
(509,97,o),
(513,103,c),
(516,122,l),
(478,155,o),
(440,180,o),
(410,199,c),
(410,199,o),
(391,181,o),
(391,181,c)
);
}
);
width = 574;
},
{
layerId = "66e3d46a-fd92-11ee-8244-8aa624eb3053";
shapes = (
{
closed = 1;
nodes = (
(93,188,o),
(181,98,o),
(293,98,cs),
(405,98,o),
(494,188,o),
(494,303,cs),
(494,418,o),
(405,509,o),
(293,509,cs),
(181,509,o),
(93,418,o),
(93,303,cs)
);
},
{
closed = 1;
nodes = (
(177,377,o),
(228,432,o),
(293,432,cs),
(359,432,o),
(410,377,o),
(410,303,cs),
(410,230,o),
(359,175,o),
(293,175,cs),
(228,175,o),
(177,230,o),
(177,303,cs)
);
},
{
closed = 1;
nodes = (
(182,450,o),
(152,494,o),
(115,537,c),
(93,533,l),
(85,529,o),
(68,511,o),
(63,504,c),
(60,482,l),
(103,444,o),
(147,416,o),
(182,394,c),
(182,394,o),
(203,414,o),
(203,414,c)
);
},
{
closed = 1;
nodes = (
(383,414,o),
(404,394,o),
(404,394,c),
(439,416,o),
(483,444,o),
(526,482,c),
(523,504,l),
(518,511,o),
(501,529,o),
(493,533,c),
(471,537,l),
(434,494,o),
(404,450,o),
(383,414,c)
);
},
{
closed = 1;
nodes = (
(203,193,o),
(182,213,o),
(182,213,c),
(147,191,o),
(103,163,o),
(60,125,c),
(63,103,l),
(68,96,o),
(85,78,o),
(93,74,c),
(115,70,l),
(152,113,o),
(182,157,o),
(203,193,c)
);
},
{
closed = 1;
nodes = (
(404,157,o),
(434,113,o),
(471,70,c),
(493,74,l),
(501,78,o),
(518,96,o),
(523,103,c),
(526,125,l),
(483,163,o),
(439,191,o),
(404,213,c),
(404,213,o),
(383,193,o),
(383,193,c)
);
}
);
width = 586;
}
);
unicode = 164;
},
{
glyphname = dollar;
lastChange = "2024-04-18 14:52:21 +0000";
layers = (
{
layerId = "619f1a1e-fd92-11ee-b280-8aa624eb3053";
shapes = (
{
closed = 1;
nodes = (
(171,69,o),
(127,128,o),
(120,222,c),
(85,212,l),
(81,182,o),
(77,97,o),
(81,59,c),
(120,44,o),
(191,25,o),
(250,25,cs),
(367,25,o),
(459,82,o),
(459,200,cs),
(459,285,o),
(374,325,o),
(297,362,cs),
(233,392,o),
(174,420,o),
(174,469,cs),
(174,526,o),
(216,549,o),
(274,549,cs),
(313,549,o),
(353,539,o),
(373,525,c),
(386,494,o),
(386,458,o),
(389,418,c),
(421,422,l),
(428,448,o),
(441,531,o),
(444,564,c),
(398,575,o),
(335,593,o),
(282,593,cs),
(178,593,o),
(95,546,o),
(95,442,cs),
(95,363,o),
(172,325,o),
(244,289,cs),
(310,257,o),
(373,225,o),
(373,167,cs),
(373,104,o),
(328,69,o),
(264,69,cs)
);
},
{
closed = 1;
nodes = (
(280,-57,l),
(305,690,l),
(267,685,l),
(242,-61,l)
);
}
);
width = 534;
},
{
layerId = "66e3d46a-fd92-11ee-8244-8aa624eb3053";
shapes = (
{
closed = 1;
nodes = (
(178,79,o),
(138,136,o),
(131,227,c),
(81,217,l),
(77,186,o),
(73,96,o),
(77,57,c),
(117,42,o),
(190,23,o),
(251,23,cs),
(377,23,o),
(475,82,o),
(475,200,cs),
(475,290,o),
(389,336,o),
(313,375,cs),
(253,405,o),
(200,431,o),
(200,469,cs),
(200,518,o),
(232,539,o),
(275,539,cs),
(310,539,o),
(346,529,o),
(364,515,c),
(377,485,o),
(377,451,o),
(380,413,c),
(427,417,l),
(433,444,o),
(447,532,o),
(450,566,c),
(403,577,o),
(338,595,o),
(283,595,cs),
(170,595,o),
(81,546,o),
(81,442,cs),
(81,350,o),
(168,307,o),
(243,268,cs),
(299,239,o),
(349,211,o),
(349,167,cs),
(349,110,o),
(314,79,o),
(265,79,cs)
);
},
{
closed = 1;
nodes = (
(281,-57,l),
(316,690,l),
(268,685,l),
(233,-61,l)
);
}
);
width = 544;
}
);
unicode = 36;
},
{
glyphname = sterling;
lastChange = "2024-04-18 14:46:39 +0000";
layers = (
{
layerId = "619f1a1e-fd92-11ee-b280-8aa624eb3053";
shapes = (
{
closed = 1;
nodes = (
(153,62,l),
(174,69,l),
(191,87,o),
(212,130,o),
(212,187,cs),
(212,423,ls),
(212,485,o),
(232,565,o),
(302,565,cs),
(331,565,o),
(353,558,o),
(367,548,c),
(371,523,o),
(377,482,o),
(377,448,c),
(411,450,l),
(421,480,o),
(441,555,o),
(446,592,c),
(407,602,o),
(357,610,o),
(331,610,cs),
(196,610,o),
(127,492,o),
(127,366,cs),
(127,125,ls),
(127,92,o),
(112,64,o),
(96,49,cs),
(83,36,o),
(46,25,o),
(33,24,c),
(40,-8,l),
(91,-3,o),
(124,0,o),
(150,0,cs),
(454,0,l),
(460,28,o),
(472,133,o),
(473,164,c),
(439,171,l),
(433,145,o),
(404,72,o),
(388,56,c),
(156,56,l)
);
},
{
closed = 1;
nodes = (
(49,288,l),
(354,288,l),
(362,330,l),
(57,330,l)
);
}
);
width = 511;
},
{
layerId = "66e3d46a-fd92-11ee-8244-8aa624eb3053";
shapes = (
{
closed = 1;
nodes = (
(180,77,l),
(201,84,l),
(220,99,o),
(244,136,o),
(244,187,cs),
(244,423,ls),
(244,481,o),
(259,555,o),
(309,555,cs),
(334,555,o),
(352,548,o),
(364,538,c),
(368,514,o),
(374,475,o),
(374,443,c),
(423,446,l),
(433,477,o),
(453,554,o),
(458,592,c),
(417,602,o),
(365,610,o),
(338,610,cs),
(194,610,o),
(119,492,o),
(119,366,cs),
(119,135,ls),
(119,102,o),
(102,75,o),
(88,59,cs),
(75,44,o),
(42,30,o),
(30,29,c),
(38,-9,l),
(93,-4,o),
(129,0,o),
(157,0,cs),
(466,0,l),
(471,29,o),
(484,137,o),
(485,169,c),
(438,178,l),
(433,154,o),
(404,85,o),
(390,71,c),
(183,71,l)
);
},
{
closed = 1;
nodes = (
(50,283,l),
(370,283,l),
(380,335,l),
(60,335,l)
);
}
);
width = 525;
}
);
unicode = 163;
},
{
glyphname = yen;
lastChange = "2024-04-18 14:46:39 +0000";
layers = (
{
layerId = "619f1a1e-fd92-11ee-b280-8aa624eb3053";
shapes = (
{
closed = 1;
nodes = (
(250,68,ls),
(250,51,o),
(249,44,o),
(234,37,cs),
(215,29,o),
(165,24,o),
(165,24,c),
(172,-8,l),
(213,-3,o),
(270,0,o),
(296,0,cs),
(323,0,o),
(378,-3,o),
(419,-8,c),
(427,23,l),
(427,23,o),
(374,29,o),
(355,37,cs),
(340,44,o),
(339,51,o),
(339,68,cs),
(339,281,l),
(495,508,ls),
(527,559,o),
(546,569,o),
(590,573,c),
(594,605,l),
(560,600,o),
(520,596,o),
(489,596,cs),
(453,596,o),
(413,600,o),
(376,605,c),
(379,573,l),
(390,570,o),
(419,565,o),
(434,557,cs),
(449,549,o),
(451,530,o),
(439,514,cs),
(316,340,l),
(192,514,ls),
(177,535,o),
(190,554,o),
(204,560,cs),
(222,568,o),
(253,573,o),
(253,573,c),
(256,605,l),
(218,600,o),
(158,596,o),
(115,596,cs),
(74,596,o),
(39,598,o),
(3,605,c),
(7,573,l),
(47,569,o),
(63,559,o),
(89,515,c),
(250,279,l)
);
},
{
closed = 1;
nodes = (
(129,209,l),
(469,209,l),
(477,251,l),
(137,251,l)
);
},
{
closed = 1;
nodes = (
(115,114,l),
(455,114,l),
(463,156,l),
(123,156,l)
);
}
);
width = 592;
},
{
layerId = "66e3d46a-fd92-11ee-8244-8aa624eb3053";
shapes = (
{
closed = 1;
nodes = (
(250,68,ls),
(250,51,o),
(249,44,o),
(234,37,cs),
(215,29,o),
(165,24,o),
(165,24,c),
(172,-8,l),
(213,-3,o),
(270,0,o),
(296,0,cs),
(323,0,o),
(378,-3,o),
(419,-8,c),
(427,23,l),
(427,23,o),
(374,29,o),
(355,37,cs),
(340,44,o),
(339,51,o),
(339,68,cs),
(339,281,l),
(495,508,ls),
(527,559,o),
(546,569,o),
(590,573,c),
(594,605,l),
(560,600,o),
(520,596,o),
(489,596,cs),
(453,596,o),
(413,600,o),
(376,605,c),
(379,573,l),
(390,570,o),
(419,565,o),
(434,557,cs),
(449,549,o),
(451,530,o),
(439,514,cs),
(316,340,l),
(192,514,ls),
(177,535,o),
(190,554,o),
(204,560,cs),
(222,568,o),
(253,573,o),
(253,573,c),
(256,605,l),
(218,600,o),
(158,596,o),
(115,596,cs),
(74,596,o),
(39,598,o),
(3,605,c),
(7,573,l),
(47,569,o),
(63,559,o),
(89,515,c),
(250,279,l)
);
},
{
closed = 1;
nodes = (
(129,209,l),
(469,209,l),
(477,251,l),
(137,251,l)
);
},
{
closed = 1;
nodes = (
(115,114,l),
(455,114,l),
(463,156,l),
(123,156,l)
);
}
);
width = 592;
}
);
unicode = 165;
},
{
glyphname = plus;
lastChange = "2024-04-18 14:46:39 +0000";
layers = (
{
layerId = "619f1a1e-fd92-11ee-b280-8aa624eb3053";
shapes = (
{
closed = 1;
nodes = (
(414,244,l),
(46,244,l),
(46,186,l),
(414,186,l)
);
},
{
closed = 1;
nodes = (
(199,411,l),
(199,15,l),
(261,15,l),
(261,411,l)
);
}
);
width = 460;
},
{
layerId = "66e3d46a-fd92-11ee-8244-8aa624eb3053";
shapes = (
{
closed = 1;
nodes = (
(421,257,l),
(43,257,l),
(43,181,l),
(421,181,l)
);
},
{
closed = 1;
nodes = (
(192,421,l),
(192,15,l),
(272,15,l),
(272,421,l)
);
}
);
width = 464;
}
);
unicode = 43;
},
{
glyphname = minus;
lastChange = "2024-04-18 14:46:39 +0000";
layers = (
{
layerId = "619f1a1e-fd92-11ee-b280-8aa624eb3053";
shapes = (
{
closed = 1;
nodes = (
(414,244,l),
(46,244,l),
(46,186,l),
(414,186,l)
);
}
);
width = 460;
},
{
layerId = "66e3d46a-fd92-11ee-8244-8aa624eb3053";
shapes = (
{
closed = 1;
nodes = (
(421,257,l),
(43,257,l),
(43,181,l),
(421,181,l)
);
}
);
width = 464;
}
);
unicode = 8722;
},
{
glyphname = multiply;
lastChange = "2024-04-18 15:19:58 +0000";
layers = (
{
layerId = "619f1a1e-fd92-11ee-b280-8aa624eb3053";
shapes = (
{
closed = 1;
nodes = (
(92,34,l),
(409,351,l),
(368,392,l),
(51,75,l)
);
},
{
closed = 1;
nodes = (
(368,34,l),
(409,75,l),
(92,392,l),
(51,351,l)
);
}
);
width = 460;
},
{
layerId = "66e3d46a-fd92-11ee-8244-8aa624eb3053";
shapes = (
{
closed = 1;
nodes = (
(101,32,l),
(422,353,l),
(371,404,l),
(50,83,l)
);
},
{
closed = 1;
nodes = (
(371,32,l),
(422,83,l),
(101,404,l),
(50,353,l)
);
}
);
width = 472;
}
);
unicode = 215;
},
{
glyphname = divide;
lastChange = "2024-04-18 15:20:31 +0000";
layers = (
{
layerId = "619f1a1e-fd92-11ee-b280-8aa624eb3053";
shapes = (
{
closed = 1;
nodes = (
(178,324,o),
(197,303,o),
(229,303,cs),
(260,303,o),
(281,324,o),
(281,353,cs),
(281,382,o),
(260,402,o),
(229,402,cs),
(197,402,o),
(178,382,o),
(178,353,cs)
);
},
{
ref = minus;
},
{
closed = 1;
nodes = (
(178,49,o),
(197,29,o),
(229,29,cs),
(260,29,o),
(281,49,o),
(281,78,cs),
(281,106,o),
(260,127,o),
(229,127,cs),
(197,127,o),
(178,106,o),
(178,78,cs)
);
}
);
width = 460;
},
{
layerId = "66e3d46a-fd92-11ee-8244-8aa624eb3053";
shapes = (
{
closed = 1;
nodes = (
(162,334,o),
(191,310,o),
(231,310,cs),
(272,310,o),
(301,334,o),
(301,371,cs),
(301,407,o),
(272,432,o),
(231,432,cs),
(190,432,o),
(162,407,o),
(162,371,cs)
);
},
{
pos = (0,5);
ref = minus;
},
{
closed = 1;
nodes = (
(162,41,o),
(191,16,o),
(231,16,cs),
(272,16,o),
(301,41,o),
(301,77,cs),
(301,114,o),
(272,138,o),
(231,138,cs),
(190,138,o),
(162,114,o),
(162,77,cs)
);
}
);
width = 464;
}
);
unicode = 247;
},
{
glyphname = equal;
lastChange = "2024-04-18 15:20:11 +0000";
layers = (
{
layerId = "619f1a1e-fd92-11ee-b280-8aa624eb3053";
shapes = (
{
closed = 1;
nodes = (
(410,319,l),
(50,319,l),
(50,261,l),
(410,261,l)
);
},
{
closed = 1;
nodes = (
(410,164,l),
(50,164,l),
(50,106,l),
(410,106,l)
);
}
);
width = 460;
},
{
layerId = "66e3d46a-fd92-11ee-8244-8aa624eb3053";
shapes = (
{
closed = 1;
nodes = (
(417,346,l),
(47,346,l),
(47,271,l),
(417,271,l)
);
},
{
closed = 1;
nodes = (
(417,168,l),
(47,168,l),
(47,93,l),
(417,93,l)
);
}
);
width = 464;
}
);
unicode = 61;
},
{
glyphname = greater;
lastChange = "2024-04-18 15:25:00 +0000";
layers = (
{
layerId = "619f1a1e-fd92-11ee-b280-8aa624eb3053";
shapes = (
{
closed = 1;
nodes = (
(425,184,l),
(425,232,l),
(44,432,l),
(44,365,l),
(349,208,l),
(44,51,l),
(44,-16,l)
);
}
);
width = 469;
},
{
layerId = "66e3d46a-fd92-11ee-8244-8aa624eb3053";
shapes = (
{
closed = 1;
nodes = (
(432,182,l),
(432,240,l),
(46,438,l),
(46,355,l),
(336,211,l),
(46,67,l),
(46,-16,l)
);
}
);
width = 478;
}
);
unicode = 62;
},
{
glyphname = less;
lastChange = "2024-04-18 14:46:39 +0000";
layers = (
{
layerId = "619f1a1e-fd92-11ee-b280-8aa624eb3053";
shapes = (
{
closed = 1;
nodes = (
(425,51,l),
(120,208,l),
(425,365,l),
(425,432,l),
(44,232,l),
(44,184,l),
(425,-16,l)
);
}
);
width = 469;
},
{
layerId = "66e3d46a-fd92-11ee-8244-8aa624eb3053";
shapes = (
{
closed = 1;
nodes = (
(432,67,l),
(142,211,l),
(432,355,l),
(432,438,l),
(46,240,l),
(46,182,l),
(432,-16,l)
);
}
);
width = 478;
}
);
unicode = 60;
},
{
glyphname = plusminus;
lastChange = "2024-04-18 15:25:30 +0000";
layers = (
{
layerId = "619f1a1e-fd92-11ee-b280-8aa624eb3053";
shapes = (
{
closed = 1;
nodes = (
(410,341,l),
(50,341,l),
(50,285,l),
(410,285,l)
);
},
{
closed = 1;
nodes = (
(199,496,l),
(199,127,l),
(261,127,l),
(261,496,l)
);
},
{
closed = 1;
nodes = (
(414,74,l),
(46,74,l),
(46,18,l),
(414,18,l)
);
}
);
width = 460;
},
{
layerId = "66e3d46a-fd92-11ee-8244-8aa624eb3053";
shapes = (
{
closed = 1;
nodes = (
(418,353,l),
(54,353,l),
(54,277,l),
(418,277,l)
);
},
{
closed = 1;
nodes = (
(196,502,l),
(196,126,l),
(276,126,l),
(276,502,l)
);
},
{
closed = 1;
nodes = (
(425,86,l),
(47,86,l),
(47,11,l),
(425,11,l)
);
}
);
width = 472;
}
);
unicode = 177;
},
